<mxfile host="app.diagrams.net" modified="2024-01-18T14:09:05.700Z" agent="Mozilla/5.0 (Windows NT 10.0; Win64; x64) AppleWebKit/537.36 (KHTML, like Gecko) Chrome/120.0.0.0 Safari/537.36" etag="J2ebmDXNrcwB5FECKmB_" version="22.1.21" type="github">
  <diagram name="第 1 页" id="ZXN7L20CpJUbnjewXX7y">
    <mxGraphModel dx="4207" dy="-2998" grid="0" gridSize="10" guides="1" tooltips="1" connect="1" arrows="1" fold="1" page="0" pageScale="1" pageWidth="1169" pageHeight="827" math="1" shadow="0">
      <root>
        <mxCell id="0" />
        <mxCell id="1" parent="0" />
        <mxCell id="3zQvHG_156ugY79DkXVN-2" value="" style="rounded=0;whiteSpace=wrap;html=1;dashed=1;" vertex="1" parent="1">
          <mxGeometry x="-981" y="5247" width="165" height="292" as="geometry" />
        </mxCell>
        <mxCell id="3zQvHG_156ugY79DkXVN-3" style="edgeStyle=orthogonalEdgeStyle;rounded=0;orthogonalLoop=1;jettySize=auto;html=1;" edge="1" parent="1" source="3zQvHG_156ugY79DkXVN-4">
          <mxGeometry relative="1" as="geometry">
            <mxPoint x="-1310.5294117647059" y="5289.5" as="targetPoint" />
          </mxGeometry>
        </mxCell>
        <mxCell id="3zQvHG_156ugY79DkXVN-4" value="&lt;font style=&quot;font-size: 39px;&quot;&gt;$$x_{1}$$&lt;/font&gt;" style="rounded=0;whiteSpace=wrap;html=1;fillColor=#fad9d5;strokeColor=#ae4132;" vertex="1" parent="1">
          <mxGeometry x="-1458" y="5260" width="73" height="59" as="geometry" />
        </mxCell>
        <mxCell id="3zQvHG_156ugY79DkXVN-5" style="edgeStyle=orthogonalEdgeStyle;rounded=0;orthogonalLoop=1;jettySize=auto;html=1;" edge="1" parent="1" source="3zQvHG_156ugY79DkXVN-6">
          <mxGeometry relative="1" as="geometry">
            <mxPoint x="-1311.7058823529412" y="5389.5" as="targetPoint" />
          </mxGeometry>
        </mxCell>
        <mxCell id="3zQvHG_156ugY79DkXVN-6" value="&lt;font style=&quot;font-size: 39px;&quot;&gt;$$x_{2}$$&lt;/font&gt;" style="rounded=0;whiteSpace=wrap;html=1;fillColor=#fad9d5;strokeColor=#ae4132;" vertex="1" parent="1">
          <mxGeometry x="-1458" y="5360" width="73" height="59" as="geometry" />
        </mxCell>
        <mxCell id="3zQvHG_156ugY79DkXVN-7" style="edgeStyle=orthogonalEdgeStyle;rounded=0;orthogonalLoop=1;jettySize=auto;html=1;" edge="1" parent="1" source="3zQvHG_156ugY79DkXVN-9">
          <mxGeometry relative="1" as="geometry">
            <mxPoint x="-1311.7058823529412" y="5489.5" as="targetPoint" />
          </mxGeometry>
        </mxCell>
        <mxCell id="3zQvHG_156ugY79DkXVN-8" style="edgeStyle=orthogonalEdgeStyle;rounded=0;orthogonalLoop=1;jettySize=auto;html=1;entryX=0.5;entryY=1;entryDx=0;entryDy=0;" edge="1" parent="1" source="3zQvHG_156ugY79DkXVN-9" target="3zQvHG_156ugY79DkXVN-32">
          <mxGeometry relative="1" as="geometry">
            <Array as="points">
              <mxPoint x="-1421" y="5570" />
              <mxPoint x="-420" y="5570" />
            </Array>
          </mxGeometry>
        </mxCell>
        <mxCell id="3zQvHG_156ugY79DkXVN-9" value="&lt;font style=&quot;font-size: 39px;&quot;&gt;$$x_{3}$$&lt;/font&gt;" style="rounded=0;whiteSpace=wrap;html=1;fillColor=#fad9d5;strokeColor=#ae4132;" vertex="1" parent="1">
          <mxGeometry x="-1458" y="5460" width="73" height="59" as="geometry" />
        </mxCell>
        <mxCell id="3zQvHG_156ugY79DkXVN-10" value="&lt;font style=&quot;font-size: 25px;&quot;&gt;编&lt;br&gt;码&lt;br&gt;器&lt;/font&gt;" style="rounded=0;whiteSpace=wrap;html=1;fillColor=#dae8fc;strokeColor=#6c8ebf;" vertex="1" parent="1">
          <mxGeometry x="-1308" y="5260" width="63" height="259" as="geometry" />
        </mxCell>
        <mxCell id="3zQvHG_156ugY79DkXVN-11" style="edgeStyle=orthogonalEdgeStyle;rounded=0;orthogonalLoop=1;jettySize=auto;html=1;" edge="1" parent="1" source="3zQvHG_156ugY79DkXVN-12">
          <mxGeometry relative="1" as="geometry">
            <mxPoint x="-965.5517241379309" y="5289.5" as="targetPoint" />
          </mxGeometry>
        </mxCell>
        <mxCell id="3zQvHG_156ugY79DkXVN-12" value="&lt;font style=&quot;font-size: 35px;&quot;&gt;$$\mu_{1},\sigma_1^2$$&lt;/font&gt;" style="rounded=0;whiteSpace=wrap;html=1;fillColor=#fad9d5;strokeColor=#ae4132;" vertex="1" parent="1">
          <mxGeometry x="-1185" y="5260" width="134" height="59" as="geometry" />
        </mxCell>
        <mxCell id="3zQvHG_156ugY79DkXVN-13" style="edgeStyle=orthogonalEdgeStyle;rounded=0;orthogonalLoop=1;jettySize=auto;html=1;" edge="1" parent="1" source="3zQvHG_156ugY79DkXVN-14">
          <mxGeometry relative="1" as="geometry">
            <mxPoint x="-965.5517241379309" y="5389.5" as="targetPoint" />
          </mxGeometry>
        </mxCell>
        <mxCell id="3zQvHG_156ugY79DkXVN-14" value="&lt;font style=&quot;font-size: 35px;&quot;&gt;$$\mu_{2},\sigma_2^2$$&lt;/font&gt;" style="rounded=0;whiteSpace=wrap;html=1;fillColor=#fad9d5;strokeColor=#ae4132;" vertex="1" parent="1">
          <mxGeometry x="-1185" y="5360" width="134" height="59" as="geometry" />
        </mxCell>
        <mxCell id="3zQvHG_156ugY79DkXVN-15" style="edgeStyle=orthogonalEdgeStyle;rounded=0;orthogonalLoop=1;jettySize=auto;html=1;" edge="1" parent="1" source="3zQvHG_156ugY79DkXVN-16">
          <mxGeometry relative="1" as="geometry">
            <mxPoint x="-964.1724137931035" y="5493.499999999999" as="targetPoint" />
          </mxGeometry>
        </mxCell>
        <mxCell id="3zQvHG_156ugY79DkXVN-16" value="&lt;font style=&quot;font-size: 35px;&quot;&gt;$$\mu_{3},\sigma_3^2$$&lt;/font&gt;" style="rounded=0;whiteSpace=wrap;html=1;fillColor=#fad9d5;strokeColor=#ae4132;" vertex="1" parent="1">
          <mxGeometry x="-1185" y="5464" width="134" height="59" as="geometry" />
        </mxCell>
        <mxCell id="3zQvHG_156ugY79DkXVN-17" style="edgeStyle=orthogonalEdgeStyle;rounded=0;orthogonalLoop=1;jettySize=auto;html=1;" edge="1" parent="1" source="3zQvHG_156ugY79DkXVN-18">
          <mxGeometry relative="1" as="geometry">
            <mxPoint x="-766.9310344827586" y="5289.5" as="targetPoint" />
          </mxGeometry>
        </mxCell>
        <mxCell id="3zQvHG_156ugY79DkXVN-18" value="&lt;font style=&quot;font-size: 25px;&quot;&gt;正态分布&lt;/font&gt;" style="rounded=0;whiteSpace=wrap;html=1;fillColor=#d5e8d4;strokeColor=#82b366;" vertex="1" parent="1">
          <mxGeometry x="-964" y="5260" width="134" height="59" as="geometry" />
        </mxCell>
        <mxCell id="3zQvHG_156ugY79DkXVN-19" style="edgeStyle=orthogonalEdgeStyle;rounded=0;orthogonalLoop=1;jettySize=auto;html=1;" edge="1" parent="1" source="3zQvHG_156ugY79DkXVN-20">
          <mxGeometry relative="1" as="geometry">
            <mxPoint x="-766.9310344827586" y="5389.5" as="targetPoint" />
          </mxGeometry>
        </mxCell>
        <mxCell id="3zQvHG_156ugY79DkXVN-20" value="&lt;font style=&quot;font-size: 25px;&quot;&gt;正态分布&lt;/font&gt;" style="rounded=0;whiteSpace=wrap;html=1;fillColor=#d5e8d4;strokeColor=#82b366;" vertex="1" parent="1">
          <mxGeometry x="-964" y="5360" width="134" height="59" as="geometry" />
        </mxCell>
        <mxCell id="3zQvHG_156ugY79DkXVN-21" style="edgeStyle=orthogonalEdgeStyle;rounded=0;orthogonalLoop=1;jettySize=auto;html=1;entryX=0;entryY=0.5;entryDx=0;entryDy=0;" edge="1" parent="1" source="3zQvHG_156ugY79DkXVN-22" target="3zQvHG_156ugY79DkXVN-28">
          <mxGeometry relative="1" as="geometry" />
        </mxCell>
        <mxCell id="3zQvHG_156ugY79DkXVN-22" value="&lt;font style=&quot;font-size: 25px;&quot;&gt;正态分布&lt;/font&gt;" style="rounded=0;whiteSpace=wrap;html=1;fillColor=#d5e8d4;strokeColor=#82b366;" vertex="1" parent="1">
          <mxGeometry x="-964" y="5464" width="134" height="59" as="geometry" />
        </mxCell>
        <mxCell id="3zQvHG_156ugY79DkXVN-23" style="edgeStyle=orthogonalEdgeStyle;rounded=0;orthogonalLoop=1;jettySize=auto;html=1;" edge="1" parent="1" source="3zQvHG_156ugY79DkXVN-24">
          <mxGeometry relative="1" as="geometry">
            <mxPoint x="-608.310344827586" y="5289.5" as="targetPoint" />
          </mxGeometry>
        </mxCell>
        <mxCell id="3zQvHG_156ugY79DkXVN-24" value="&lt;font style=&quot;font-size: 39px;&quot;&gt;$$z_{1}$$&lt;/font&gt;" style="rounded=0;whiteSpace=wrap;html=1;fillColor=#e1d5e7;strokeColor=#9673a6;" vertex="1" parent="1">
          <mxGeometry x="-766" y="5260" width="73" height="59" as="geometry" />
        </mxCell>
        <mxCell id="3zQvHG_156ugY79DkXVN-25" style="edgeStyle=orthogonalEdgeStyle;rounded=0;orthogonalLoop=1;jettySize=auto;html=1;" edge="1" parent="1" source="3zQvHG_156ugY79DkXVN-26">
          <mxGeometry relative="1" as="geometry">
            <mxPoint x="-606.9310344827586" y="5389.5" as="targetPoint" />
          </mxGeometry>
        </mxCell>
        <mxCell id="3zQvHG_156ugY79DkXVN-26" value="&lt;font style=&quot;font-size: 39px;&quot;&gt;$$z_{2}$$&lt;/font&gt;" style="rounded=0;whiteSpace=wrap;html=1;fillColor=#e1d5e7;strokeColor=#9673a6;" vertex="1" parent="1">
          <mxGeometry x="-766" y="5360" width="73" height="59" as="geometry" />
        </mxCell>
        <mxCell id="3zQvHG_156ugY79DkXVN-27" style="edgeStyle=orthogonalEdgeStyle;rounded=0;orthogonalLoop=1;jettySize=auto;html=1;" edge="1" parent="1" source="3zQvHG_156ugY79DkXVN-28">
          <mxGeometry relative="1" as="geometry">
            <mxPoint x="-606.9310344827586" y="5493.499999999999" as="targetPoint" />
          </mxGeometry>
        </mxCell>
        <mxCell id="3zQvHG_156ugY79DkXVN-28" value="&lt;font style=&quot;font-size: 39px;&quot;&gt;$$z_{3}$$&lt;/font&gt;" style="rounded=0;whiteSpace=wrap;html=1;fillColor=#e1d5e7;strokeColor=#9673a6;" vertex="1" parent="1">
          <mxGeometry x="-766" y="5464" width="73" height="59" as="geometry" />
        </mxCell>
        <mxCell id="3zQvHG_156ugY79DkXVN-29" value="&lt;font style=&quot;font-size: 25px;&quot;&gt;编&lt;br&gt;码&lt;br&gt;器&lt;/font&gt;" style="rounded=0;whiteSpace=wrap;html=1;fillColor=#dae8fc;strokeColor=#6c8ebf;" vertex="1" parent="1">
          <mxGeometry x="-606" y="5260" width="63" height="259" as="geometry" />
        </mxCell>
        <mxCell id="3zQvHG_156ugY79DkXVN-30" value="&lt;font style=&quot;font-size: 39px;&quot;&gt;$$\hat{x}_{1}$$&lt;/font&gt;" style="rounded=0;whiteSpace=wrap;html=1;fillColor=#fad9d5;strokeColor=#ae4132;" vertex="1" parent="1">
          <mxGeometry x="-457" y="5260" width="73" height="59" as="geometry" />
        </mxCell>
        <mxCell id="3zQvHG_156ugY79DkXVN-31" value="&lt;font style=&quot;font-size: 39px;&quot;&gt;$$\hat{x}_{2}$$&lt;/font&gt;" style="rounded=0;whiteSpace=wrap;html=1;fillColor=#fad9d5;strokeColor=#ae4132;" vertex="1" parent="1">
          <mxGeometry x="-457" y="5360" width="73" height="59" as="geometry" />
        </mxCell>
        <mxCell id="3zQvHG_156ugY79DkXVN-32" value="&lt;font style=&quot;font-size: 39px;&quot;&gt;$$\hat{x}_{3}$$&lt;/font&gt;" style="rounded=0;whiteSpace=wrap;html=1;fillColor=#fad9d5;strokeColor=#ae4132;" vertex="1" parent="1">
          <mxGeometry x="-457" y="5460" width="73" height="59" as="geometry" />
        </mxCell>
        <mxCell id="3zQvHG_156ugY79DkXVN-33" style="edgeStyle=orthogonalEdgeStyle;rounded=0;orthogonalLoop=1;jettySize=auto;html=1;" edge="1" parent="1">
          <mxGeometry relative="1" as="geometry">
            <mxPoint x="-1187" y="5289" as="targetPoint" />
            <mxPoint x="-1243" y="5289.51" as="sourcePoint" />
          </mxGeometry>
        </mxCell>
        <mxCell id="3zQvHG_156ugY79DkXVN-34" style="edgeStyle=orthogonalEdgeStyle;rounded=0;orthogonalLoop=1;jettySize=auto;html=1;entryX=-0.019;entryY=0.495;entryDx=0;entryDy=0;entryPerimeter=0;" edge="1" parent="1" target="3zQvHG_156ugY79DkXVN-14">
          <mxGeometry relative="1" as="geometry">
            <mxPoint x="-1188" y="5389" as="targetPoint" />
            <mxPoint x="-1243" y="5389.51" as="sourcePoint" />
          </mxGeometry>
        </mxCell>
        <mxCell id="3zQvHG_156ugY79DkXVN-35" style="edgeStyle=orthogonalEdgeStyle;rounded=0;orthogonalLoop=1;jettySize=auto;html=1;entryX=0.002;entryY=0.438;entryDx=0;entryDy=0;entryPerimeter=0;" edge="1" parent="1" target="3zQvHG_156ugY79DkXVN-16">
          <mxGeometry relative="1" as="geometry">
            <mxPoint x="-1190" y="5489" as="targetPoint" />
            <mxPoint x="-1243" y="5489.51" as="sourcePoint" />
          </mxGeometry>
        </mxCell>
        <mxCell id="3zQvHG_156ugY79DkXVN-36" style="edgeStyle=orthogonalEdgeStyle;rounded=0;orthogonalLoop=1;jettySize=auto;html=1;" edge="1" parent="1">
          <mxGeometry relative="1" as="geometry">
            <mxPoint x="-457.00034482758605" y="5289.01" as="targetPoint" />
            <mxPoint x="-541.69" y="5289.51" as="sourcePoint" />
          </mxGeometry>
        </mxCell>
        <mxCell id="3zQvHG_156ugY79DkXVN-37" style="edgeStyle=orthogonalEdgeStyle;rounded=0;orthogonalLoop=1;jettySize=auto;html=1;" edge="1" parent="1">
          <mxGeometry relative="1" as="geometry">
            <mxPoint x="-457.0010344827586" y="5389.01" as="targetPoint" />
            <mxPoint x="-543.0699999999999" y="5389.51" as="sourcePoint" />
          </mxGeometry>
        </mxCell>
        <mxCell id="3zQvHG_156ugY79DkXVN-38" style="edgeStyle=orthogonalEdgeStyle;rounded=0;orthogonalLoop=1;jettySize=auto;html=1;" edge="1" parent="1">
          <mxGeometry relative="1" as="geometry">
            <mxPoint x="-456.9310344827586" y="5493.009999999999" as="targetPoint" />
            <mxPoint x="-543" y="5493.51" as="sourcePoint" />
          </mxGeometry>
        </mxCell>
        <mxCell id="3zQvHG_156ugY79DkXVN-39" value="&lt;span style=&quot;font-size: 25px;&quot;&gt;$$N(0,1)$$&lt;/span&gt;" style="rounded=0;whiteSpace=wrap;html=1;fillColor=#d5e8d4;strokeColor=#82b366;" vertex="1" parent="1">
          <mxGeometry x="-964" y="5140" width="134" height="59" as="geometry" />
        </mxCell>
        <mxCell id="3zQvHG_156ugY79DkXVN-40" style="edgeStyle=orthogonalEdgeStyle;rounded=0;orthogonalLoop=1;jettySize=auto;html=1;entryX=0.491;entryY=1.095;entryDx=0;entryDy=0;entryPerimeter=0;" edge="1" parent="1" source="3zQvHG_156ugY79DkXVN-2" target="3zQvHG_156ugY79DkXVN-39">
          <mxGeometry relative="1" as="geometry" />
        </mxCell>
        <mxCell id="3zQvHG_156ugY79DkXVN-41" value="&lt;font style=&quot;font-size: 20px;&quot;&gt;采样潜在特征&lt;/font&gt;" style="text;html=1;strokeColor=none;fillColor=none;align=center;verticalAlign=middle;whiteSpace=wrap;rounded=0;" vertex="1" parent="1">
          <mxGeometry x="-795" y="5217" width="138" height="30" as="geometry" />
        </mxCell>
        <mxCell id="3zQvHG_156ugY79DkXVN-42" value="&lt;font style=&quot;font-size: 20px;&quot;&gt;生成样本&lt;/font&gt;" style="text;html=1;strokeColor=none;fillColor=none;align=center;verticalAlign=middle;whiteSpace=wrap;rounded=0;" vertex="1" parent="1">
          <mxGeometry x="-489.5" y="5217" width="138" height="30" as="geometry" />
        </mxCell>
        <mxCell id="3zQvHG_156ugY79DkXVN-43" value="&lt;font style=&quot;font-size: 20px;&quot;&gt;输入样本&lt;/font&gt;" style="text;html=1;strokeColor=none;fillColor=none;align=center;verticalAlign=middle;whiteSpace=wrap;rounded=0;" vertex="1" parent="1">
          <mxGeometry x="-1486" y="5217" width="138" height="30" as="geometry" />
        </mxCell>
        <mxCell id="3zQvHG_156ugY79DkXVN-44" value="&lt;font style=&quot;font-size: 20px;&quot;&gt;对比&lt;/font&gt;" style="text;html=1;strokeColor=none;fillColor=none;align=center;verticalAlign=middle;whiteSpace=wrap;rounded=0;" vertex="1" parent="1">
          <mxGeometry x="-968" y="5579" width="138" height="30" as="geometry" />
        </mxCell>
        <mxCell id="3zQvHG_156ugY79DkXVN-45" value="&lt;font style=&quot;font-size: 40px;&quot;&gt;Encoder&lt;/font&gt;" style="text;html=1;strokeColor=none;fillColor=none;align=center;verticalAlign=middle;whiteSpace=wrap;rounded=0;" vertex="1" parent="1">
          <mxGeometry x="-384" y="4422" width="168" height="61" as="geometry" />
        </mxCell>
        <mxCell id="3zQvHG_156ugY79DkXVN-46" value="&lt;font style=&quot;font-size: 40px;&quot;&gt;Decoder&lt;/font&gt;" style="text;html=1;strokeColor=none;fillColor=none;align=center;verticalAlign=middle;whiteSpace=wrap;rounded=0;" vertex="1" parent="1">
          <mxGeometry x="88" y="4422" width="213" height="68.5" as="geometry" />
        </mxCell>
        <mxCell id="3zQvHG_156ugY79DkXVN-47" value="" style="shape=image;verticalLabelPosition=bottom;labelBackgroundColor=default;verticalAlign=top;aspect=fixed;imageAspect=0;image=data:image/png,iVBORw0KGgoAAAANSUhEUgAAApMAAAJFCAYAAACBcXzPAAAgAElEQVR4AexdB5gURdpGAdOd6Tz1fvWMp2RQyTkpKkFAQEUkikgQQZScEUGQDIqgSBRRiaJIDpLzIiAbYAMbYGFZdmHzhO9/3lp6mJ2cu7rnq+eBmZ3urq56q7rq7S8WIy6MACPACDACjAAjwAgwAoyAjwgU8/E6vowRYAQYAUaAEWAEGAFGgBEgJpM8CRgBRoARYAQYAUaAEWAEfEaAyaTP0PGFjAAjwAgwAowAI8AIMAJMJnkOMAKMACPACDACjAAjwAj4jACTSZ+h4wsZAUaAEWAEGAFGgBFgBJhM8hxgBBgBRoARYAQYAUaAEfAZASaTPkPHFzICjAAjwAgwAowAI8AIMJnkOcAIMAKMACPACDACjAAj4DMCTCZ9ho4vZAQYAUaAEWAEGAFGgBFgMslzgBFgBBgBRoARYAQYAUbAZwSYTPoMHV/ICDACjAAjwAgwAowAI8BkkucAI8AIMAKMACPACDACjIDPCDCZ9Bk6vpARYAQYAUaAEWAEGAFGgMkkzwFGgBFgBBgBRoARYAQYAZ8RYDLpM3R8ISPACDACjAAjwAgwAowAk0meA4wAI8AIMAKMACPACDACPiPAZNJn6PhCRoARYAQYAUaAEWAEGAEmkzwHGAFGgBFgBBgBRoARYAR8RoDJpM/Q8YWMACPACDACjAAjwAgwAkwmeQ4wAowAI8AIMAKMACPACPiMAJNJn6HjCxkBRoARYAQYAUaAEWAEmEzyHGAEGAFGgBFgBBgBRoAR8BkBJpM+QGc2msicl0+mrBwyZVwnU9pVMl5MI+OFy4X/Ui7d/J56hUxXMsiUmUXm7Fwy5xeQ2WT24a58CSPACDACjAAjwAgwAvIhwGTSzZiYDQYyXc8m0+V0MiZeIEN0AhnOxPr/71wiGZMvCaIpSKbJ5KYlfJgRYAQYAUaAEWAEvEXAbGYBjreYeXs+k0kbxDDpzNk5ZExNI8PZ8/6TRm+IZ3xKIbnML7BpFf/JCDACjAAjwAgwAtYImE0mofEzpWeSMfUKGaEVTLhAhthEMkTFkyHSgeAnKq5wb49PIWNSqtAqmtIyhNDIbDBaV8/fvUCAySQRgUBC+ghJoZiA3hDAYJ0LyWXqFaFO92I8+VRGgBFgBBgBRkCXCAjzMhBH7NXnEoMj7IlJIGPiRaGNhGCJpZqeTaWwJpN4C4G9Y8glkF4SUGNCSqHNJYvqPZvVfBYjwAgwAoyA5hEo1BTmCsGKavt0VHyhSRr8HoxsjuZsUoUlmcTbjXiz8ZLUBcRW0p97xiQUvi3xhHY2n/l3RoARYAQYAY0jAEdVOLUaouODI330Yx8WUssslljaTrGwIpNigkI87sdEkuLaqHghUYW9CBdGgBFgBBgBRkDrCAhzs2tZhTaPWtijzyUW+jgY2c4Scy8syCTU2eItRwsT1Js2QlJ59RrbdGh9FeX2MwKMACMQpggIEnn1GhliQuzw6s1e6+rcyLhC/4YwJ5W6JpOWSQrvLVeTQevHYpPInJsXpksRd5sRYAQYAUZAawgoksigOdKEel+PigtrjaFuyaS5wEDG8xf0TSJtHhbjpXSWUmptReX2MgKMACMQZgiYc3LJEJesz/05GhrDzLDbi3VHJgulkZlk0Ls00oZIWiSvsYkspQyzhZm7ywgwAoyAFhCAnb8uTc4c7cfxKSLjnRbGJRBt1BWZFBM1OVWfbzuOJquz3yJjyZRxLRDzg+tgBBgBRoARYAT8RgCZ3lQL7+Nsrwz275FxhU46YRDWTzdkEmptQ2wSE0mrhwNvgJDUcmEEGAFGgBFgBNRAAHtQ2EgjrfZfi7YQv0FKWWBQA/6Q3VMXZFK88UgYj6rIZHI2yYL8OwKem8PcyyxkTxPfiBFgBBgBRsCCgIikkpDCQh7s89EJBFtRvRbNk0nTtSyeqO4I6dnzun8r0usDyv1iBBgBRkCLCCDCiGbD/bjbU/04jnB+eiyaJpOmTCaSHks/mVDq8fnlPjECjAAjIB0CYm+O1HlIPj8IpR5N0DRLJk2Z11ki6e1kBqHML5Bu4eEGMQKMACPACOgDATh/eizk8HYP09H5xuRUXfk0aJJMmjKYSPr8sMYkMKHUx5rNvWAEGAFGQCoEoML1eW/SEVH0FANjkn4IpebIpDk7hyervw/duUQyGzmvt1SrMDeGEWAEGAENI4BA3Z6SKD4v1oKVMemiLiSUmiKTUNEaouItg8AT8uaE9BYLZAfisEEaXrm56YwAI8AISIKAnlXbpzZspXH9P6FB7/ekrYuXB4V/6EFCqRkyifA2usnh6a9kMUDXwwiYCyPACDACjAAj4CsCIjRfgPYkb4UiwTy/4O9zNKxnHypWrFiRf/PHfxEcQnkp3dchkOI6TZBJEfQ0IbzybAfzIbGuG6oJLowAI8AIMAKMgLcI6FlbuGLGnCIkUiGVVcpXDAqZxL4MfxCtFk2QSdOVjKANnjWxCsvvkXFkzsvX6vzldjMCjAAjwAiogADs7vWqLcw/fZaefPQxh2TyhbLlgsdHImM1G9hcejIJomOI9N02MCwJorcqh7gktp9UYTHmWzICjAAjoEUEhLYw8WLwSJW3e1iAz/9z+UqHRBLSyb4duwS339HxhMxBWitSk0lMWM63HRoibbqsbXsNrT143F5GgBFgBLSKgN5DAH0+YJBTMnlg5brgkskzsWRM1J6Ht9Rk0ngpPeiDxpLLm2QV6a+4MAKMACPACDACzhAwFyCqir6z27R6+RWHZLJiqdIEx5xQ8Aat2U9KSyaFYW+ARdehmACavkd8Mqu7na2g/DsjwAgwAmGOQKEzbEpIyJSae2ml0mUcksnvJ04JXd+j4shcYNDMjJOWTCLukpqTKVzvjZyqXBgBRoARYAQYAVsETOnhEZj8gfvutyOTjzz0MGWfiAwpL9FSPGgpyaQ5JzekAxauxNFhv5G/22y2XUP4b0aAEWAEGIEwRkDEeg6DpCHXI87YEUk43kz8dIgqvMR0PVsTs046MimcbuKTVRk0h+QqDFXtCMXEhRFgBBgBRoARUBAwpl4Ji305ctMOOzL5z7v+QWmHItTpP9Ifa0DAIx2ZBAtnUnfTKUYVLKLiyWzi3N3KIsqfjAAjwAiEMwLChyFMQvRtX7rCjkx+3KW7qrwE3vOyF+nIpDFB/8a9qhBELyWsWpi8sj9c3D5GgBFgBPSAgDE5fHwYlk2ZWYRMFi9enGK371GVTBqiE6QX8EhFJkWAci9JjxaImSbbqBHRuh4Wau4DI8AIMAKyIhBukVUmDxpWhEy+06KVukTyBieS3fxMKjJpvHBZikHTJPkLAgk3ZeXIur5xuxgBRoARYARCgIDxYlpY7ctQaSt5uPF5ePVvcvRfcudYacik8BSL1HcgVK2RVETh58IIMAKMACMQngjAdl7vAcpt9+W3mrWwkMlGNWvLQSQV6aTEnt3SkMlwiV9lO3Fl/1uLOULDc9nnXjMCjAAjEFgEwnFfrle1moVMbvh2sVRkEnEnZS3SkEmAJDuxCsf2sSOOrI8ut4sRYAQYgeAhIML0nUsMu335f088KchkhedClzrRG24BG1YZixRk0mw0hd2E9WbyqHmuzG9CMj5Q3CZGgBFgBPSAgDk3L+z2ZeTdvuvOOwWZXPjFVCn7b7qcLuX0koJMIqG5moSJ7+0irmVkLIHsc2EEGAFGgBEIHwSMl9LDbl++cviEIJJqpE70mIfEJkk5CaUgk8aki5qYtMl7DvkUbwpvO3/9tpl2LPuJzu86oIm+Wk9sztct5bPLjWIEGAFGIGgIGGLDT8Uds/VPKvPM/2j2qHFS79PmAvlU3aqTSWGXIVm+z6wTZ0Q4gO8nTiGECWhcqw499MC/xRvLv+//F2HCWZMtV99//WYBVSxVWlyrhBvo2OoNyvkryuM6XNUfimMI2cSFEWAEGAFGIDwQkCm2ZN6pGDq9YSutmDGHhvf6kLYu/tGrvRPCnK2Ll1O/zt2oa5s3aeaIMeqlRgxQCD8ZY06qTybzC7yaGMEkT3PHTqCy/3uWbr311iLkTyGByifOAeF01RY8AAO7f+C0nu8mTHZ5vau6Q35MUrF6eCzr3EtGgBFgBEKLAMhKyPeZM7F06cBx2rZkBc0YPpq6tX2LqlaoRHfecUeRffS+e+6hv//Y5lH7kLmmQfWaRa7HPl7qqafp6pGTHtWhBg7u7olMgbIV1cmkKVMee8nl02YLSSSkkZ1ataGn//u43SRUCOWUISOcTsTsE5HU5pWmTq9FHb3e6ej0encTSY3jnKtbtkeX28MIMAKMQHAQQIxhNfYZEEVlj3X1Wal0Gco/fdZlG/esWG3RKDqqa95nE11er0b/Pb5nZBxBqytTUZ1Myh5dH0nf/+/Bh+wm+L/uu4+uR9hLJ0EkX63XwO5828k8tt8ATU1kc06uTPOW28IIMAKMACMQJAQMMQmq7E87f/iZ9v60mnYt/4XgTd25dVu6/bbbHO6nrrytNy5YYifRtN2DJ3wyWJU+ekwY3ajE4W0vU1GdTBrik6Uf0P2/rKVbbrnFbkIjIbztxOjbsYs4747bbydM1nVzv6MRvfsKo15MZtTT7rVmlH7kL7trbeuS6W8ZbTRkepC4LYwAI8AI6AEBs8Eg1d4E51VHAh04ysAe0nafhADotpI3CaijvRt78ZZFP9hda1uXzH/LFgNafTIZpY0Uir07dLIjk80aNC4yGVd/NV+cAyedQ6vWFzmGSXlh3xHNGv4aU9gJRw8bBfeBEWAEGAFXCJiuZdntXWqTqjVfF+6tttJFSDGt25a0+yD958EHxT78Wv2GlPjnQeHsCgecnu3fpRfKlqOXatehtV9/W+Q66zq08l22PVlVMinyfroR5coysCfWb7Ijk/+46y6CWhttvHwwQkxiiOSPrPld8xPVFncOXu5q+eVjjAAjwAjoAwFZ40siT7YtmRz0fk/LXgspZdMGjcQ58NqGE6ztPqarvyVzjFWXTErkye1ukmGiPvnoY3aTGZ5nuLbLG+3EsVkjx+pzAks2cfWxbHMvGAFGgBGQCwFjUqqUexhC9dmSSUgalb0bZmc4Xr9aDbfOOco1mv6MipNq4qhKJk1ZOZaJoIVBff/N9naTeegHfeiP7xaL35s3bOzQhkMLfXPbxuh4qSYuN4YRYAQYAUYg8AgY4lOk3JehwrYlk/g7Ze9hYUL2wH33E7zB43bslbL9bvdYH7S0MmWnU5dMaiyNovLmYz2hyz9bip545FERggA2kcGYMLLUKVsogsAvo1wjI8AIMALhjYDh7Hlp9zHst9b7L75jX27fvKX4/eeZX0vb9mDs4+a8fGkmq7pkUqXAqL4OKlIh2k5k5W9XYQp8vZ9s15kLDNJMXG4II8AIMAKMQGAREBnpIuV1iu3jwBG29NPPiH0ZsaFl2zOD3R5od2Up6pLJtKuaG/znnnzKjlDWeP6FsLDRQIotLowAI8AIMAL6RABq02ATIH/q/2nmV3b7LwQ6d//jn5S855DUbfen386uNWVcl2YiqksmL6drbvAd2U0iX6izwdbT7zKJ1KV5grghjAAjwAjoBAGZcnI72jthH6loA60/Jw8aFhZ7sC0mMsV/ZjLppdGrI7vJhjVqhcVEZjKpkx2Du8EIMAKMgAMEsMbbEhbZ/i737HN2hPKXWXOlb3cwcDSlZTgYRXV+UplMak/N7chu8q4776Tck9G6n8y5165T7969KTU1VZ3ZyndlBBgBRoARCBoCIJMZR0/RtYi/pd3Per3T0Y5Mftylu7TtDQaJVOo0pV0N2lzwtmJ1yaQGbSZz/ooS9hnWInZ8P7Byne4n8+CBA+m5556jF154gbZt2+btXOPzGQFGgBFgBEKIQF5eHqWkpNDp06dpz549tH79elqyZAnNnDmTxowZQ/369aNOnTpRixYtxNqO9R3/zm3fI+1+tmLGHDsyWa1iJWnbqxC/YHwymbzxMJmuZmpuAnz7+SS7iQwyOXXoSM31xdvJnZ6WRpUrV6bSpUuLBQeLUW5ubgiXRr4VI8AIMALhiUBBQYHQCkVGRtL+/ftpw4YN9MMPP9CcOXPos88+owEDBlDXrl2pVatWVL9+fapYsWIRgqgQRevPsmXLUq1atYqcV6Z0aan3MqRGtBXmlChRgq4dl1ea6u1e6+n5bDN5Yy0wXc+WetLaDiikkk//93G7iYyJ/UaT1zTVF9u+uf07Mo4QNmL16tVi4WnSpIn4fO211+jMmTPhubpzrxkBRoARCAIC58+fp549e1KbNm2oUaNGQhtkTQKdfa9atSphbX7rrbfE9cOGDaMvv/ySvvvuO1q1ahVt376dIiIiKCEhga5du0YZGRnUv3//ImQyYv0mqfeyV+s1cLgHK9no3O5lXvpJyFyfKT0zCLPPtypVVXObc/OknrS2k2jip0PEJO7tINYVkssj5aLtNbr5++x5McNAKDt06EBlypSh2bNni7ffcuXK0cKFC8lkMvk2C/kqRoARYAQYAQsCR44coSpVqlCDBg3ojTfeoPfee48+/fRT+vzzz+nrr7+mFStW0KZNm+jQoUMUExNDaWlpZDQaLdd78gXSzXr16gki2b17d/HZsWNHqfewvT+tdkgkIdAZ1/8TqdseDC5gyszyZKhDco66ZNJg1Mzgx27fQ3fecQdVKV+Rsk9Eiu+2ovaozTs10x+vJ3Z8imVCYvECmWzfvj2dPXuWWrduLRYiLHiXL1+2nMdfGAFGgBFgBORCID8/nyZOnCjWbEgyN27cSNOmTRN/7969mwxR8VLuY/mnzxJsI7EPw+HGdv+FxNLrfU3jUkpztjxmZuqSSbNZM4Pf8qUmYvL+uXylaHO9qtXtJjMS0et1MhuTinpwT5kyRSw+K1euJCxOkydPFn9Xr16dduzYIdfqya1hBBgBRoARoKioKIuzDewrL168SNnZ2UIK+vrrrwuEDOcSpdzH5o6dIPbcMR8NoN0/rrLbf++9++6wSB5izTFkSiSiKpnEzJU5D6gyaOvmficm7jstWlkessE9etlN5vfavWU5rlzr+Wc0Jf34BX1c7yn6d+1xlHg61o+6An+tMfVKkaU4JyeHGjZsSNWqVaP09HRxbN++fVSnTh1BKseOHcvOOUUQ4z8YAUaAEVAHAZgnLViwgGCSVL58eVq8eLGwgUdrYKIEG0x4eqMYE1Kk2nuwhyJY+X333EOPP/KIcLTJOnGGbit5m90eHPHrRr/bfn3rj7T4y58pSbI92BGXMJvM6kwoB3dVnUxC4uUIJFl+Sz/yFz32n/8jvPUk7Npvaevar7+1m8hlnvmf5bht+6Eaxz/b3w1nYij55yn0aYOn6J5bi4k6S9YYQ+clm8ima/a2GTDmxiI0fPhwy9QCsUQsSvzerFkz8SZsOchfGAFGgBFgBEKKwIULF6hz585iTYb0EWZKSjEYDMLzG4IBxebSmHLJwT4VeAGF/V7o/B5d3mgn9sbl02Zb2lbz+Rft9uCvxoy3HPemfpybvXMFze5Qi564oxiVeLYX7TvpvD3e1h2U86PilWGU4lN1MgnX9qAAHSBbCCVA6g9TZxVp54V9R+wmMmw4Lu47WuQ8pW9fDBxKZf/3rFVw8xi6uGoaDXnpf3TvDRKp2IDISCbNBQaHE1YhjjAYVwregmEgXqFCBfEmjLhm+I0LI8AIMAKMQOgQ+O2334QKu1SpUsIUCSZJ1mXt2rWCZGKNVgpiFyr7lgyfWxb9IPbaRjVrF3FydWQ32eH1m9pD27YjGHveqRi7vuXu+oW+6VSXnr7rFsuergkyGZ+sDJkUn6qTSRiQ2g66LH+vnP2NmFztm7d02MbnnnzKMvkUIohrbNt/asNW+sddd9GI3n0tx3LXjqJOTd+jSRNm0cL+r9AzJQulkqhHOjIZneCUDCIgbqVKlah58+aEOGjWBc45LVu2FIsVvAXhcciFEWAEGAFGILgIIOzPJ598ItZeeITD69tRQbBy2LnDbEkppqwcyz5lu5eF+u/MY6fpmcefEJrBuB17i7Tr55lf2+2/Tz76WJFzrNvb/c23qUmdepbj+fvX0YJujaj0A/fQvbffWqQuLZBJ40W59lP1yaTJZBlc64FX+3vkph10zz/vFiruywcjHLaxU6s2RSYgiOCH73Yuci7ehiCRRHzKq0dOFjlm6ePpAzSr1k37D9nIpDHxorLOOPxEDDOotWGTY1usPQdr1KhBu3btsj2F/2YEGAFGgBEIEAIHDx4UqmusyQgnBGLpqGAtxjmzZs0qcthslGdP7ty6rdhjl02Zabd3OkptjD3YlnRin4V085ZbbqHvJky21JO/ewUtm76Gzp+Ipbw/51PXx4tb9nMtkElT5vUi46b2H6qTSQBgiE2yDLCFYAVITe2svsQ/D9IrdesTIufXeP4F2rHsJ0sb0g5FUKXSZcTEQrR9Z3V8M67Qu0yRSuLziUcetdhGgki+XLsuIXf38XV/OK3HcOYM/fHmf+jWYnLaTLpL2QSJJCSTkFBCUumoIJVX7dq1xeI1fvx4QpovLowAI8AIMAKBQUCJqgGVNmJUQsXtqiCmJLLkXLlS1LkS18jg0a1km3urWQuneycccqz3X3xf+MXUIueDdD70wL/FPu9IzV24v5+hjW89YtmDtUAmZfLkxpyRgkwaL6UXGXxn5C2QvyuhfpSJCFI5ffhokWO7YqnSYoIO6Oo6eXzS7oPibUepQ/mEOH3plzMIDjn4DblEXbc9kv7s+hQVl5RMmvOK2tk4WqBgM4m3XNhQOitYtD744ANxHtQr0dHRzk7l3xkBRoARYAQ8RABONXCuwRoMZxs43bgqf/31lzgXUTccFWNy8J1wECUFe+T9995LfTt2ITi7KvvkgZXr6PbbbqNHHnqYLh04bvldOa58vt3sdTsyib1dOQ4v8BfKlhNk0tqBVjl+8zOajvUpTyVu7MHSk8moeKemZ47GMxS/SUEm1ciEA+9shfw5+kQcSYQfuDnZHHt2Nahe02U9CCHkrg7DmWja3+M5y0SWSs199rzHkxapu7CYwcvbWYEjDvLJIjwF/i1btszj+p3Vyb8zAowAIxCOCGA9RZgfrKUI+wNTI0+cHT/66CMqXbo0JSYmOoTNdPWaB/uW4z3R/X4XS9AMlixZssjeWe7Z5+jYug0EkgkTM+zLGxcscdkOOMY62r9njxpHUI3/9/8eoeLFi9P2pStc1oOoKpGfVrbswbKTSWOSa9Mzh4Ma5B/lIJMIXn72vJvB9n3iOprcFZ4rlD46mohQTXuaNB6Byh3Vgd8QXNWzFIvRdKhnactElolM2saXdDUfERYIcScRZsLaoNvRNXiThnQS5BPSSkeqFkfX8W+MACPACDACJAKOI/A41lCspZGRkR7BgrzcIJIff/yx0/PNxuBmp3NGAq330uG9PnTLCWBKdsfttzvdg1HfjOGj3dZjOHOWYgZXpZIakUyaMuSyl8REkoJMoiHwTHJE+oL12+qv5gt7SevJC1U3wg3k/BXlcVtgg2GbeP6fd/2DbEMJue6HvGTSnONduiZkxMHihgw57grsJpFrFufXqlWLkMqLCyPACDACjIBrBJACEakQsXYiNaJtyB9XV48ePVpc9/fff7s6LajBy+GLYL332n5H5BPPBDGxhGgrttcrf88cMcbDvfwsnRtSTTNkEmRftiINmQRpcU24AiuZxL1OrN9EH3XqSm1fbUoj+/QjGOr60gbkDMWkbfdaMxr1YX9K3X/My3okJZMxzkMCOZvIJpNJ5OwuW7ZskeC4zs7H7/AqrFmzpk8Lo6t6+RgjwAgwAnpC4Pr16zRo0CCxVtatW5eQdcybAg0Q4v926dLF7WXBjAGNPbP2i1XsSCDybiNtojf7cPSWXfTgvx4oUhfU5Gu+nu9FPdohk8hQJGORh0xC1R0Xeq9ubyZt8M6Vk0y68+J2NqGR/7VMmTLUoUMHj+x3UA9iUCIWJd60YUiOGJVcGAFGgBFgBAoROHz4MDVq1EiskVBRZ2Zmeg3NjBkzxPV79+51ey0SVQRvz4sVpmSTBg0VpLJulao04ZPBPghiCoVMcIZFumNEZhnSozchqYh3bdcOmTSlez/ubgc7ACdIQybRF1NGcI1+vZtcgZeEOr+/hGQyMo78EaVPnjxZLFpr1qzxeJrCcHzp0qXCkBxvz8uXL/eYjHp8Ez6REWAEGAENIYDQazAbQsifypUr06+//upT67Ozs4VqvHXr1h5fL2Oebuf7qD97tkbIZGQsmQ3yqbgxoaQik0haboiO9/KNwp8JJMu18pFJY8pljxccRydi4apfv77IrnD16lVHpzj9DZJN5PWGlLJXr17snOMUKT7ACDACekYAGppWrVqJtfDdd991GsfXEwzg9Y011V38Seu6TNeywmQ/1gaZRN50WYtUZBIgqRFzMjhvOt4QVfnIpCexJd1N6q1bt4rFa8SIEe5OtTuem5tL48aNE9cj2Lknahm7SvgHRoARYAQ0igC0NNDQIOQPsozBHt3XYjAYCGkVoSY3euG8AW2RISa0kVbU2Y+1QSYRRlHWIh2ZhAjXEBkXJm9DCuGUi0waz7sOeOvNZO7Zs6cghMeOHfPmMsu5O3fuFNJNvFFPmjTJK69FSyX8hRFgBBgBjSBw6dIli/04NDRnzpzxu+VQjWMNRVxfbwts59UheMr+GIpPDZDJeDkdb5T5JB2ZRMNMl0OfEUfdh0UuMhkIqaQywZKSkkTKLsRBw9uxLwWL63vvvScWQ6h8zp0750s1fA0jwAgwAlIjsHnzZsvLM8KmBSrtLJwaq1evTtD4eFtEzEndC3jkJ5MwOZC5SEkmzSYTGWISwuBtSHnjkodMGi/4ZyvpaLLPnz9fEMHvv//e0WGPfoOKZ9GiRULlg3yyP/30EzvneIQcn8QIMAKyI5CVlUVDhw4V62SdOnUCataD+L2QSs6ZM8dnGPRvfiY5mYxNkn6/k5JMYsYHO52TuklsbqAAACAASURBVJJIhUQqn5KQSXhw+yg9dLVKwRuxadOm9Pzzz7vNGeuqHhyDyue1114TiyPygCPrDhdGgBFgBLSKAEyAlJA/SHOYkZER0K4gV3elSpXIW0dI60aYjSadO8fKTSZNWTnWwyHld2nJpDD8jQ2XuJNykEnTZe+8rr2Z0YiRhrfjDz/80JvLHJ4LVc2YMWMsb/H79+93eB7/yAgwAoyArAjA7Gf69OkiteELL7xA3oRR87RPp06dEuvk+PHjPb3E6Xmmq5k61hbKSyYD6cPgdHADcEBaMom+wXNJLgmiIkkM9KcEZDIEYvQhQ4aIhQ1ONYEo27Zts9gXffnll+ycEwhQuQ5GgBEIOgKxsbHUpk0bsR62b9+eYFsejNK/f3+RQCI5Odnv6oWA51yiTvdkeclkIH0Y/J4ELiqQmkyi3eHhSaYymUQg1Lx8F9MkMIeQygv5ZKHS8cUQ3FErUlNTRWowSD0RjBeLNBdGgBFgBGRFAMkYYPeNlLPffPONXyF/XPUxMTFRSD0//fRTV6d5dQzqVn0KeOQkk8aLaV6Nj5onS08mxdtQfLJOJ7Ai4VSXTCIHa6jKzz//LN7Gp02bFrBbwjlnwYIFYnGGbdAvv/wivbFywDrPFTECjIAmEEDK2B49eoj179VXX6XTp08Htd2IevHKK69QdHR0QO8DJ039EUoJyeS5RIIzslaK9GQSQJrzC3QeezKaDnxQikoUKyaS1ZesPprOn1aIZpA/41NCSrxA/N566y1B/AKdfxuLMxZpSCn79u0bcEN2rTzU3E5GgBGQCwGY5NSoUUOsTWPHjg2YZkaNXopoK2f1FshcPjJpzpE3QLmjeacJMomG6zutUyT92e1pKq6QySrDKSYUZDImISje244mmvVv8MguXbo0dezYMeBENicnh0aOHCkW7bp169LBgwetb83fGQFGgBEIGQJIKzt8+HCxHiGT159//hmyewfzRuacXJ1JJ89SzOCqVPLGHlz8fz1p78kgC3LOOK8foZi0VjRDJgEsvI31J17HhDpD69o8SLfcmMglnu1DB4I9kREGSMXUTF988YVYYNeuXRuUZwbBf2GfCSnl1KlTCeGJuDACjAAjECoEIiIi6OWXXxZrUJ8+fXQXxkxfsSdj6PSAFyzaweJPvkc7Tzgne0HlIXHyx5R09AxpikzCftKYfElnhPIspa0dR68/dKtQcRcDoSzxNHWduYuuu3hz8Xcyqx1NH0F669WrJ1Q/gY6rpkz0ixcvUqdOncRiDs/J+Ph45RB/MgKMACMQFASQ+3rWrFnCixohf1auXBmU+6hdqdiPEy/qZD+OpF1dn7JoB2+5/w1aHaECmVRJWxiIuaQpMokOm01mMujBIefkWhpf51l65qF76PZbCm0lBZG8IZ0sVqw43Xn/I/Rs6bdo+f7ATmp4yMtQID2E5HDUqFFBaw5sNL/99ltho4mg6atXrw64aj1ojeeKGQFGQFMI4IW1Xbt2Yl17++236fz585pqv7eNFfaTmo8HfZbS102kto8UvynQufXf9Mqg1XTxVGD3XpdCIJW1hd6Ove35miOT6ICIxh+ndw/v4Exi5D3HG6UMBe1QvBtPnDgR1CadPHmSmjRpIhZ5xF7LzMwM6v24ckaAEQgvBJDiFdEkEPLn66+/Jkgow6GYCwxkiNZg+uOTG2lKw2foyQfvppIOBTrFqMRd/6bHn6xHE1ZHB10Cq7a20N+5qkkyiU4LQqkHCWUQVdm2b0HBzHDj60RELLQKFSpQy5YtCRkhglmsjeHr169PyMrDhRFgBBgBfxBA/NxevXqJF1WE4vnrr7/8qU6T18Lz2BAVF3TCZbun6eXvUIbnC9YE0yyZBCBCxB6fwhPYA0Iqi2rb0URG4F6ouxctWuTocMB/27hxI1WpUoVKlSol0pmxc07AIeYKGYGwQADZvGrWrCnWL6R4RTSJcC2FhDKe92MP9mNrEqwHIok5r2kyiQ6AUCJ3pfXg8PeiKnJTutwq3fz8fHrttdcIxupwmglFuXDhAr377rtiE4CNk95tm0KBKd+DEQgXBEAaYeuNl2CQyUCliNU6fkmxcTRr7Hi6evQk78kekErZ92Zv5qPmySQ6K7zKLl3hyWs7eaPiCemvtFAQDxILc79+/ULWXNg0QSpapkwZQWTXrFkjjT1pyEDgGzECjIBXCECNrdhf9+7dm6DmDueC1LgI8abkGsc6bohiCaU7oZaeiCTmvy7IpPIgmzKzdJ4pp6jE0eVkjU0UmYMUbLTwOWjQIEEoQx3YF84/L730krj3xx9/TNeuXdMCXNxGRoARCCECePn86quvxMsnIkPA4Sacy5EjR2jYsGHiRRwE0vqfyFp3LpEFPLYCHvwdGUfgKnoruiKTGBwE4jboLtWTFyTyTCwZk1I1ldNTeajwhg9bxsaNG4c83RjiXg4ZMkQsiA0bNiQslFwYAUaAEQACMINBGlgQJpjFJCQkhCUwKSkpwlNdCcau4FG9enULmYRQAAVOssZENkErIvQ5e57Mufm6nDu6I5NiEsOO8mJa+L0VRcdr/o1nxYoVYlGaOXOmKg/chg0bqHLlysI5B4GHg+1hrkon+aaMACPgMQK//PKLkL7BHGb27NlhE/JHAQhq7F9//ZW6dOki1kUQyDp16tCUKVPo3Llz9Mcff4g1G7/hGEyHlFJogpYefnuxA4mkMSGFzAb9hovSJZm0TOTs3LCRUgpppA4mKoKM482/XLlyFBsbqwxlSD+Tk5PpnXfeEQsjpBHsnBNS+PlmjIAUCKSnpxNsIkGQIIkLdixcKTpt1YijR4+KvOIvvviiwAAh3GAGtHv3bsI6jXLmzBkRWxPanJ9//lmct2XLFqtaCr8ihqIhOnztKI2XrujeHl/XZBLTWHh7p17Rry3l2fOk9WCntisPFqjSpUtT586dVXsAYR+FwMNoB7zM8WbOhRFgBMIDgV27dlHt2rUFORoxYgQhRm04FETTgGQR8TJBovHvzTffJGiMbG3JQbZBIhGoHWu2EuIN0kpHxWw0kjE5NbyklPBdyM1zBIfuftM9mVRGDFH6jRcu62ciQ6Wdnqka2VJwDdbnhAkTxEK2fv36YN3Co3ojIiKoUaNGoi2ffvopXb9+3aPr+CRGgBHQHgJQ6Y4dO1Y87zVq1KBt27ZprxNetjgvL49+++036tatm0WNXbduXaHGdqYdgvlPx44dBU5Qc6MMHDhQZP9xZxpUKKXUYMYcB6rrIvaQNseNl+TJNufllPDp9LAhkwo68DKDStjVJJD6WFQcIZMNJK56LiBtsMFBDDe1Ux+iLVgo8ZYOYnns2DE9Q899YwTCEoHTp0/Tq6++Kp5zpHlNS0vTNQ54UR45cqSwEcfa5kiN7QwAhXBPmzbNcgpCAwE/T4qQUupUY2hMvEjmPH062bga27AjkwoYglSmpmknHta5xEJJpFHfJFIZH3wiUw0WOSxcMhS8vUPlDdX3nDlzws4QX4Yx4DYwAoFGAPZ/UNEip3bFihXpxx9/DPQtpKkvNTWV5s2bZyHNWF9hF44wR55qXeCQhOt69uxZRDOGtbFPnz5e9VVoDFN0ojGMTyZzdq5X/dfTyWFLJpVBhITPdPUaGeKSpJRWCsea7NwiD63Sdr1/whOwe/fuYuGSJd8tcom//fbbok3t27enpKQkvQ8D948R0C0CeJ7xHIMcQbLmTK2rZQCQYez3338XaylehNHXevXq0dSpU73uL7QycI5ExjJr8glbS9SLOn0pkORp1p4yPplM17PDco+2HuuwJ5PWYEBaiTyZcOFXTdUdFS8eKlPmdRGny7p94fgdntTly5en1q1bSyMJhE0QQoRgYYanIySWXBgBRkBbCCDjlaJpmDFjhi7DgG3evFnE7gXRgxp7wIABtGfPHos3tjcjBsJYq1YtoRaPi4srcunevXsFmUQmHH8KQufAjMsQI7lNZWSc8MEIF+caT8aUyaQTlGDTYcq4Xui0E0ypJchjQgoZU6+I1IeQxnEpigC8qrEYLl26tOgBlf9C6Ax4M6JtCNRr/aauctP49owAI+AEgatXr9JHH30knlskSNCzDfSmTZuoU6dOXqmxHcEGJx1IbvEC7ShDGdZmrIOB0iBhH4SjDuwPkTFGNeGOjVONAVLIKxks6HEwSZhMOgDF0U+Y3HgLMV3NFAHRhRNPfHJhHEt3kx15Ss8lFpLG5EuEmFNIpwRJKJNHR2gX/Q1qGhh2Q4oAmx+ZCsJlfPLJJ5aNKdxi0ck0FtwWRsAdApDKKcG1kQoQma+4uEdAcUD89ttvHZ6sOOQEA09hinY9u1CwEx1iiSUkkIkXhSmcngOOOxxUL39kMuklYI5OF0TTaBLR7c0GA8GoGBMP0k2ziSWNjjDz9rf9+/cLwta/f39vLw3J+evWrbOozCBJRZxKLowAIyAHApCsjR8/XqwhSP0H9S8XzxBYsGCBwA0vzc4KYgIjnFCwS6FQJ1+QOxHqLy45sJJLCH2SUwulj/BV0HnUlECOF5PJQKLJdQUVAcR5hCoF0gUZC+w7EeAXbUQGHeSx5cIIMALqIoCA2k2bNhXPJRz6Ll26pG6DNHR3rLVQbcNmHYTcWYG0F+kW1SiCYOblCycYONOa0q4KKaYx6SIZz18o9IGITynUDMKkLPECGVOgIUwXEVKgTjfn5LHq2s/BYzLpJ4B8eegQuHz5sjD+fumll1wubKFrkf2d4JyDvOKlSpUSbUWuby6MACMQegQQ8gdqWXgfw/lENpvr0CPi3R0TEhKoatWqItbvhQsXnF4MW3G8QI8bN87pOXxA/wgwmdT/GOuqh8uXLxcL16xZs6Tu1+HDh6l+/fqirUOGDGHbLKlHixunNwSSk5Pp3XffFc8fpGpnz57VWxeD2h/YPkKaCyJ+5MgRl/eCnTjI5A8//ODyPD6obwSYTOp7fHXXO0gb4FWIRc42PIVsnUXmHth4YqGFNJWdc2QbIW6PHhGA/TJCdkE7gLiHBQUFeuxm0PoEtXHv3r3FuoVg5u4KQixhjYNdO5fwRYDJZPiOvWZ7jrRn2Chgo4OFT+aC9mGxff7556lMmTIi0wY758g8Ytw2rSJg/fKGtKfuJGpa7Wew2w0zHZDD0aNHe3SrKVOmiPPZFtUjuHR7EpNJ3Q6tvjumeGZqJWA47I/atm0rFl2o31zZIOl75Lh3jEDgEdi3b5/wJgYJGjx4MMd89RFixKUEhh06dPBYogspZuXKlX28I1+mFwSYTOplJMOsHzD6hgdh7dq1CbEetVCgbps2bZpYrKtUqSJyj2uh3dxGRkBWBBCDduLEieKZqlatGj9TfgxUVFSU0KA0aNCArly54nFNr7zyCrVr187j8/lEfSLAZFKf4xoWvYKnNN6iteZFeOjQIZEbF20fPnw4ZWdnh8V4cScZgUAiEBkZSc2bNxdrQNeuXaVLaBDIvga7LmQFgmlAxYoV6e+///b4dnhBhvkOnAy5hDcCTCbDe/w13XvYI3br1k3YT546dUpTfcnIyLCkdGvSpAmdPHlSU+3nxjICaiGA5x6BtOGEV758eVqyZIn0ttNqYeXJfWHDjaDjeLn9/fffPbnEcg685HHd/PnzLb/xl/BEgMlkeI67bnoNW0RsKvDw1ppjCzbFlStXUqVKlahs2bJiQYa3OhdGgBFwjABsjZFrGgSmZcuWFBMT4/hE/tVjBBT7czjSeFuQSQhjsW3bNm8v5fN1hgCTSZ0NaDh2Z86cOWJBW7ZsmSa7jxBHb7zxhugDJAQXL17UZD+40YxAMBGAsx1sjRHJ4csvvyTYS3LxD4FVq1aJdef9998nX15k586dK66XPUybfyjx1Z4gwGTSE5T4HKkRwKYCVTFiy2k1PAX6oITYQNYJzh0s9ZTjxoUQATjYIS80JGBwDoHNMRf/EYiIiBBanVdffdVn73ekuIVmSGtaIf/R4xpsEWAyaYsI/61JBPbu3Ss2mwEDBmiy/UqjEfgXXurYOEeMGMHOOQow/BmWCBw8eNCSSQrEBVEcuPiPQGpqqoiEgRfw2NhYnyuERgWZcrgwAkwmeQ7oBgEQSZAwEEstl/T0dOrTp4/oC6QGCNLOhREIJwQgqZ80aZJQaUO17a1jSDhh5W1fgS1C+cBcYOfOnd5eXuR8JGPo27dvkd/4j/BEgMlkeI67LnsNFTfetKHyxoKp5QLnHKQyQ6gOOOfAe9UXmyYtY8BtD08EoqOj6fXXXxcvU2xDHPg5gKDueOmeN2+eX5XDGQr1TJ8+3a96+GJ9IMBkUh/jyL24gQCccLDAwSlHD+XcuXPUqlUr0Sekj4R6igsjoEcE8AK1aNEiEe4Hdnjff/89h/wJ8EADX6yP/fv397vmPXv2iLp+/fVXv+viCrSPAJNJ7Y8h98AKARiCw44HmxHCBumhKCo/bALVq1fnMBx6GFTuQxEEEMEAL0uY4y1atCBkY+ESWARg/oMA43g5zc3N9btyqMixzuKFlwsjwGSS54DuEEAAcNgDvffee7qSbGAzQPpIbLijR4+mnJwc3Y0ddyj8EPjjjz8IEQwwr5EaUesmKjKO4Pnz5wXGNWrUoJSUlIA1MSsrK2B1cUXaRoDJpLbHj1vvBAGkWMTmhJSLeirImdurVy/RNzjnnDlzRk/d476EEQLwzB44cKCYy/Xq1SNEMuASeARA+Jo1ayZsrw8fPhz4G3CNjAARMZnkaaBLBBCbrlatWiLMjt7CicC27Mcff6QKFSoINdPChQvZOUeXs1i/nQKpadiwoSCSH3/8MWVmZuq3syr2DGuFEhli+fLlKraEb613BJhM6n2Ew7h/yJgB6eTnn3+uSxSQFxf2ZegjcpRrNWC7LgeHO+UQgYKCAhGcH2YolStXJnbecAhTwH6cPXu2WB9GjhwZsDq5IkbAEQJMJh2hwr/pAgG8lcOoHxuXXmM1wr4MdmYglHDO2bFjhy7GjjuhPwTw8qNEJnj33XcDarunP7T879GWLVvEutC+fXsCiefCCAQTASaTwUSX61YdAeSMhcdh27Ztda0K3r17t1Drg1SOHTs2IN6aqg8eN0A3CCxdutRilvHdd9/p+lmUYdAQq/OFF14g2KKmpaXJ0CRug84RYDKp8wHm7hHNmjVLvKHDzlDPBc45PXr0EH2FwX1kZKSeu8t90wACiIuKqAp4ycGcZIex4A9aRkYGNW7cWJD3U6dOBf+GfAdGgB1weA6EAwJ5eXn00ksvCRuty5cv67rLUO0jcHv58uWFRHbJkiW6Co+k68HTWec2b95M1apVE0RywoQJHPInBOOLOLtKvM7169eH4I58C0agEAGWTPJMCAsElGwNCEUSDgVqrubNm4uNvHv37qzqCodBl6SPiJ4wZMgQMffq1KlDiI/KJTQIKPbTkydPDs0N+S6MwA0EmEzyVAgbBJBCDOq2cIlnB4ns+PHjRZ8RrBgZK4JdcI+IiIhg34brlxSBo0ePUqNGjcSc69evH0HlyiU0CKxZs0bgjpdHk8kUmpvyXRiBGwgwmeSpEDYIwH4LRukI9h1OWTZA8EAmQaRBLkEyg1XgrVu/fn32Hg0WwJLWazAYaPr06VS6dGnxjIHYcAkdAidOnBCmLU2aNCHE2OXCCIQaASaToUac76cqArAhBKmaO3euqu0I9c1hKwqJBfqO2JRQgwejKPiyvVYw0JWzztjYWGrTpo2YW++88w4lJSXJ2VCdtgrxZWFOgBdlhF/iwgiogQCTSTVQ53uqhgAM1Fu3bi3e4pGvNpwKnHNA9hAqCQ46CNeC3wJZkLoNwaiBcaDrDmQ7ua7AIPDDDz9QxYoVxZyaN28eq1cDA6vHtUDD8uabb4pYutu3b/f4Oj6REQg0AkwmA40o1yc9An/99ZeQokBSF46EByGDmjZtKjBAKCGEFApkmTJliqj74MGDgayW65IIAUi633//fTHOr732mm6TAkgEucOmDB06VIxBuGlaHILBP6qKAJNJVeHnm6uFwJgxY8QivGnTJrWaoOp9c3NzRXBzqL2RwxxBzwNVLl68SGXLlqUPPvggUFVyPRIhsHXrVpFtCXNn3LhxQbXBlajb0jUFmgWMARyduDACaiPAZFLtEeD7q4JAZmYm1axZU9gaIZRJuBakX0QaRmxKgYwFOGjQIFHnuXPnwhVa3fU7Ozubhg8fLsa1du3aAX0B0R1YQe7QgQMHqEyZMvT6669TTk5OkO/G1TMC7hFgMukeIz5Dpwj8+uuvYmNEbLZwLjDg79atm8ACzjmBMOJHphMQ1JEjR4YztLrpO8I9IfA/xvTDDz+k9PR03fRNax1JTEwUL4B4CWRnJ62Nnn7by2RSv2PLPXODAOwlO3fuLMKZhHuaN8SlW7hwoXCkqFChAi1fvtxve1Jk4oCjT6BtMt0MKx8OIAII+YN0pJCCwVt41apVAaydq/IWAUiH8cKH8WCbZNfoYX03G01kNhrJbLjxD985Bqdr4Hw8ymTSR+D4Mn0gADUsvJvhEcmBfknkTkYcTkigevXq5RcR/PPPP0U9s2fP1sdkCbNexMfHU9u2bcUYvv322xRu0Q9kHO6+ffuK8YC9ZLgXQRYLDGS6lkXGS+lkTLlExvMXyBCbRIboeDKciXX+LyqODOcSyZiQQsbkVDKmXiHT1Wtkzs33+yU6XMeFyWS4jjz324LAjBkzxAL9008/WX4L5y+wwRo9erTABLZxvqbDw2LfrFkzETA9mIHSw3msgtV3PAuVKlUSjlRff/01IaQWF3UR+Oqrr8QzCbvVcCyCPGbnFBJHkEZ3hNEVmXR1LDKODHHJZLxwmUyZWUK6GY54e9tnJpPeIsbn6w4BeDY3btyYqlSp4pckTm/AwGu3WrVqYgP74osvfMoatHLlSibqGpoYMEno2bOnGLNXXnmFTp48qaHW67ep27ZtE2MCCXE4Ze+CmhqEzph8iQxRbqSNrgiin8eMCRfIlJ5J5gKDfieZnz1jMukngHy5PhBQVLLwQuZyEwGE+YFdKdTeLVu29No5BxsfQg9BdS6DGYGQbuRlkzHjAhkvxZEh+QwVxB+jgph9lP/3Dso/tZXyT26m/JObKP/klsK/z+ykgrMHyJAQQYaUKDKmJZAp8xKZDfk3gdLBN3j2I8IBxhqhs9hLWI5BhUMc7FXr1q1LiO+p91IogcwV6mdDpAtVtZ8E0aUa3FXd8clkyrhOZlNgEz5ofVyZTGp9BLn9AUPgo48+EhspG7YXhRQkcMGCBULlCeccqECx4HtaoCYFQQFZCXUxF+SRMT2JDEmnKD9qN+UdX095h1cF7t+JPwqJZkokmTJTyWzUnuQCpHHUqFFijEAmkcudixwIIITZyy+/LBzZ9C4lhmOM6Wpmoc2jKzIny7HoeDJeusLSyhuPCpNJOdYMboUECEAKBwkApGjhpEryFPrTp08TVJ8ghr179/Y4PAzCyCDlXseOHT29lV/nmXKvkeFCFOWf2RE40ugpAT2yhgqi9wmpp7kg169+hOJiZINq0qSJZUzZ8z4UqHt2D9ipKiG71q5d69lFGjxLkMi0q6qqsX2WUt4gtlDDm/MLNIh+4JrMZDJwWHJNOkBg0aJFYmP95ptvdNCbwHcBoUlGjBghMKpTpw7t27fPo5uMHTtWXANCGoxizs8hQ9Jpyv9rU+gJpAuiCdW5MfWcdBJLEJU5c+aIEDPPP/+8kDYHY1y4Tt8RgJ0yXtz0GgcX2g3YIRqiE5x7XcsihfSwHcaLaSIMke+jrt0rmUxqd+y45UFAAHH1kFUC6lwEB+biGIHNmzdT1apVxWb35ZdfupXkIswMNsZPPvnEcYU+/Co2o8xLVBCzXyoC6VCNfnQdFSREkCnnmg89DewlCPGDUFgYj3bt2lFCQkJgb8C1+Y3AunXrxPhAMqlHT3qE8zGcPa8bEllEshkZR6bL6V6ZAvk9YSSogMmkF4OA4KemrBzxNgVbiaJxrRIKxfSIX4XQAviE91lMQmGYgcSLhaEGLqffiGeVF3aTzQuoVT0V2T6w0fbo0YPHyMVIwCygU6dOAqvWrVtTbGysi7NJqMYRbPnChQsuz3N3ECQSTjBwlHFI3FxICmU4Pz/yTzJdU8eR4pdffiFIIjEOiP+pR6Libv7Ifhy2kQj2D1tJ2EzqqWAPRVzHIuTLQ6mf5q6JTSRzbp6ehs9lX5hMOoEHG5Y5O5dMaVfJmJQavLeouKRCknk1M+xtLpwMhSo/Kw4JkMBxcY4AnHPmz58vyAnsIkFW8Ow4KkeOHBHEc9KkSY4Ou/1NkMirKZR/aosmSaQtkS2I3kum7Ay3/Q7ECbCFhJ0rXpJAUk6cOBGIarmOACMAb+169eoJ2+1ApDUNcPP8qk5II4MVG1JiQiqcdMLA85vJpNXjUSSmlVqTHlH5U68IIutsU7ZqMn8NEgIZGRki2DYW9qysrCDdRT/VwpEDJAVkBVk6gJ9twXxGRpUXX3yRrl+/bnvY5d+m62mUf2anLkikHak8d4jMedku++/PwV27donwTBgb5EqH3SsX+RCA0x/iSGKcEFdSLwUONmEjjXRGas8lkjlPX6HEbOdn2JNJbHCm69lkTLwon+gdoQdg0KvzSWg7KWX5Gx6UWNhhCB8uxZ9YkCDdw4YNE5ghJp6jEEsbNmwQx5EH3JOCUDuwNbQlYLr7++jaQkcdJ1JdT7CyPQfB+BXHpxo1atD27dttT+G/JUIAmW2w3iDTjV4KPJwNsYny7a3OSF8wf4+KE1xDL2Nr24+wJZNI/A4VtlaMgJFDVKR2CuBmYzsZ+O+iCOBFA+FsSpcuTZGRkUUP6vAveI0iNBIyoCD3b1xcnE+93Lhxo8gmhI1x6tSpVFBwM2QGHJwaNmxIDRo0IHx3VRAYPO/EH/onklY2nvmRu8ic578k/NSpUyLEFcbggw8+oLS0NFdQ8zGVEVi2bJkgkpDq60UjBf8CNbPWyGpjabp8VTdjbP3YhB2ZCCIOSQAAIABJREFURDok5NyUdaK5bVd0QmFaJyaV1vM4aN9ht1S2bFmhfvJHahe0Bgaw4gMHDoi4dvBkBwnBv0aNGgnV6KZNm+jaNc89kVNSUqhDhw6ijjZt2hC8uZWihF/67bfflJ+KfJpNRiqIPx5WJLKIpFVIKc/6tOFgjs6dO1fMWeTWXrFiRRFs+Q/5EIAEH2tMixYtdGOCIEL+BFPKp/G64YcB9b+eStiQSeFFlnql0NNa4xNREM6z58mUcc2nDUdPEzgUfZk2bZogRT///HMobqf6PfLy8mjPnj1CvY8NTiGW8AB+6623aNasWXT8+HG3nsDwFEa8TlwHD+JVq1aJ+Qp7ycqVKxNIpq0UxpyfTfmnt4UvkbSSUhbEHiYQa08LQlm1b9/eQuB9lSx7ej8+z38EkpOTqXr16lStWjXdhCITGj897LFB7oPx/AVdEUrdk0lhE3kZ0fXjtCuNdDWpzyXq2g7D/+Xa/xpgewYJHeIqhmOGkEuXLtGaNWtEjEjY3inkskqVKvThhx8K6VdSUpJToOE53LhxY3Fdv379RLgTxKZEPYcPH7ZcByebvOO/MZG0IpT5f28nBGR3V1avXi1MFGCSMXPmTLcmBO7q4+PBRwBpLJHvHi9b+/fvD/4NQ3AHJpLe5RKH+ZpeJJS6JpPmnDwynAsP41+RzsnouRQjBOuKrm6BfMUgP0OHDtVVv5TOwHlm8ODB4t/kyZNFLm4ETt67dy+dOXOGELIEkka8nCGLzbx580SMyXLlylnIJdLyweEDjh62HsOQRqJ+YFi/fn2CihubaK9evUQTjJdiKe/IaiaSVkTSovo+/huBaDsqV69eFd7zwBWEHRJjLtpAoH///uJ5WLJkiTYa7KaVCNTt1kzLlWAkTI/phVDqkkyKUARQaYfb5IyOF046bp55PuwjApDC2UrTfKxKusvgoIEwSOifs3+lSpUS4ZKaN29OnTt3pgEDBtC4ceMESezSpUuR62EDBptJqLkRhFlRZ4NEIjQQ6lLuc/bQdiaRjkik9W9H1pApM7XIvIEpAlJaAkd40XMIqyLwSP0HnguMm15eTk1XMsJvvw0gvxCEUuN+ELojk4g4rxUP7WCRXWHca9SXca8MOwMyt8D2r1mzZkU8lGVoW6DagFh3yGwDb2BIY6E+RVByeHojFSJII+woa9asWYQQKsTQ2SckmIhDicDZIKDW53Vo9SqTSWvi6Ow7CGXGRTHU06dPFxjC3m7Lli2BGn6uJwQI7NixQzw7SGmJ503rRQQjDyCxCta+6E+9+afPUu7J6KASZjgGKy/dWpwTuiKTpozr+nGw8ffhRJDU/JshWbQ4OWVs8/fffy828W+//VbG5oW0TVB7w4Y0KipKqMPXr19PiB85ZcoUGjJkCHXv3l2Ep7GVRFoTSeX7xe1LmFA6I5HWvx9ZTcarFwTJB76wZ+WiHQQQHQLhtyBR1sPYCeEN0gf7u19Jen3cjr3U4fVWdOcdd1CxYsWoYY1alLBrf9D6CwmvVosuyCTYPIJ763VC+9wvnQdJVeOhQ2xESOaQOtCV04kabZP5nnhGIdkF2URAc4VE4rNC+bK0ZuZIJpPWpNHV9yOryZThX35zmeeKXtuG0FqwK0bebT2kszQbDGSISdDtvpu0+yA98tDDgkSCSCr/3m72elD7jCQqWiyaJ5NIgQh7A58Jl6RvRIHsDzzstCw+l+3BOnbsmCBDivOIbO2TrT1w4Pnuu++Eitw6hqVCKA8un85E0hV5dHTs6Doy5WhXiiHbHA12exD/E5JkzHlERtB6EQIcne+73dq+ZSGQCpHEZ7lnnwsu34iKI8TD1lrRNJlE7EhDXFJwB1YnZFPk+9a4ga9MD9eIESPExrB161aZmiVFW+D5jVSUAwcOpNq1a1ukkCK7zvvv0ag+ncVvlSqUp/3LpjKRdEQWPfntxB9kLsiTYsy5Ea4RUEJhTZgwwfWJGjmqd4eblL2H6ZZbbnFIJl+uXTfonEOLDjmaJZNIh8g5P72MaYU830woA7JcIyQLnB8Q5sY2DE5AbqChSpwFOUfMw3bt2om4h0eOHKGCrEyK/P17qln1RapYvhztWfIlE0lPSKOLc/LP7PAqsLmGppVumooIBpBIwnkNdsZaL+a8fDJEerf3BFLTFoq6ln45wyGRhGRy7tgJQSeT6KPW7Cc1SSaFrUaYxI8M9IOjdY8xmRZieDpjk4DUIdyKorru2rUrWauuEdwdUlvk587MzLTAgkwuZ7cupzrVq1D5cmVp58JJTCRdkERLjEkPzimIO2rBmb/IhQCiIuD5QAxQvIBqvUAYYYjVvzawd4dODsnkHbffTlcOnwgJmTRExhGIu1aK5sgkbCTDJRB5oImkUh+clbj4jwAWVsRSRPBteDTrubhSXcN2dNmyZUXyb9tiEX9oK9WrWZXKlS1D2xZMZCLpAUn0hlAarybbQs5/q4yAErsV4cSio6NVbk1gbm9CNjmdmH656ke9qtUckknYUbq6LuDH4pI1o03UFJkMB6PfgE9GJw++Kf2m1Cgwy0x41hITEyPIJHIi68mEwBPVNVIhwrvdXUmKPkUNa1ensmVK06Z545lIBphICtJ5/De2n3Q3EUN4vKCgwJInffPmzSG8c/BuJUzLdBwGyHrvffq/jzskkyd/3xJaMgl1d+b14A1qAGvWDJkURPLC5ZAPpPUE09t3rYYgCOD8D0hViKsIdfeqVasCUp9alThTXTds2NCh6tqTdl5ISaLG9WpRmdKl6fevxzGRDAaRvFFnQcx+Xb3QeDK/ZD1n1KhRYk2YNWuWrE30ul0wkdLbHuioPwV/n6PbSt5mRyabN2ysTv/Pniezyez1eIX6As2QSb17jzma1EH/DSEINGSTEeqHw9P75eTkEAhXtWrVKD093dPLVD/PX9W1uw6g/iaN6lPpUqVo7axRTCSDSCQVlbgxLcHdsPDxICPw448/CiLZp08f3ZB74XTjRMsV9H0qxPeFJ7d1KCDl+/alK9QhkxpxxtEEmTRn56o2iHp7UOz6g0w5Jk696O/+sn37drGBDB8+3N+qgnZ9IFXX7hqJzDhNX31FpI1bOX0EE8kQEElBKCN+J7PRvemBu/Hj474hANMP5KVHylU95Uo3Jl4Imz348Orf7Mhk1QqVCBJLu/0zVEQ3Kp4QClHmIj2ZFA43Z8+rN4ihmiwq3gfqCy7+I4C801B3Hz0qj3ctVNcLFiwgW69rf1TX7pCC1yqyBAGLFVOGMpEMFZG8cR9D8hl3Q8THg4BASkoK1ahRg6pWrUrnz58Pwh3UqTKcpJIgi79+s8COTK6YMUd1DoLkIzIX6cmkMeWS6oOo2ttICAkm20/6/5hiM6lUqRI1b96cYICvRgm26tpdnxAOqFWrVoJILps0mIlkiImkkE4eXUvmglx3Q8XHA4hAbm6umPeIrbp3794A1qx+VeFiK6ns89+Mm1CETD712H8p71SM+jwkJkFqswmpyaTpWpb6AxhCQqdMZlU+oxMI3npc/EMAaQMhkYM0MBTFnep6xowZ5KnXtb/tvX79OrVp00b0f+Gk4Uwk1SCSN+5ZEH/M3+Hk671A4OOPPy6c9wsXenGV/KeKLHNh4sGt7LujPuxfhEzOHDFGGh5iysySdtJISyaFejs6XppBVCaanj8hBebiHwKQSEIyCQklJJXBKJGRkSFXXbvrB+zD3n777UIiPYdzbSsOMWp+mvOy3Q0bHw8AAvPnzxfzfvDgwQGoTa4qoFrV857nqG/vv9neQibvv/deyjh6Sh4M4uWNJystmTReuiLPAIaLdPJMLJlzOdevv8s5UgdCOgkbykAUT1TXcXFxgbiVT3XAmx3B29HnefPmUf7fO1gqqaJUUiGwhsSTPo0nX+Q5Ajt37hROZm3btqX8fO1kK/GkhwjHZ4gJP3+FZg0aW8jk8F4fSsdDZN2jpSST5gIDIZWQo7cG/i24OVG1mGDek4Ux1OcMGzZMkCt4eXtbXKmusWmFUnXtru1oa+fOnUVfZ8+eTaasdGmI5NoZw6hmxdIB//d533el6aNCHB1+HvuV83a7m8B+HI+NjaXKlStT7dq16eLFi37UJOel5pzwjKLyYrnygkwi1mTS7oPS8RAI2mQsUpJJY3KqdAMYTiQWtqpc/EMA8SYRdxJe05DcuSsyqq7dtRmSmG7dugkiOX36dHF6QexhaYhWy4bVLRIGJVacv5933H4bbZmnneDrxkvqSazdzR8tH4d98KuvvkrlypWjiIgILXfFaduNqeGpHfzPgw+KdaP7m2/LyUPOJTodMzUPSEcmIcINJ+ImZV8Rcd8sf8R9NR8cT+69cuVKQbSQIce2uFNdL126lNRUXdu21/Zv2Ib26NFD9G/y5MniMDyI846sloJMXt65jG6/rWRAyWTJEiVo/eyRUvTPoSTSgWo9/9QWfpZtJ6+ff5tMJsvc13rWK2dQCBV3GIbkyz0ZTbfccotYN05t2CotFzHnqxMtxNl8we/SkUmWSgZXje0peWXppKvHxrNj2HSQsxtBjE+fPk179uyhSZMmWWIwwsYQoURkU1276x3ycSsxNT///HPL6cbUs9IQrcXji3pk+iuRLF78Vlo1dYg0/fOUTOI8U3aGZYz4i/8IKOlTP/vsM/8rk7SGcIstqeyLCbv2CyLZotFL0hJJtFXGmJNSkUlhKxlGzi7KBJbxE7aTXPxDAKrrL774QkjvSpUqJT5BIK0DhmdkaGujNxqN1K9fP9GXMWPGFAEoP/JPachWi/rVikgln/i/B+nFMs9Q1XLPUvUKz1GNiqXc/sM1IKGQVCybMECavnlDJHGuIfnvIuPEf/iOwO+//y7mPuyE8VIV7IKkA8ims2TJkpDcT+mPrF7cOX9FEf75smdePXKSEv88SPmnzzq9/vLBCFr65QyK3LTD6Tm+3Dvg18TJ59UtFZlkD245pJLKxJfVa0xZ8GT7dKa6hl0VSOSnn34qteraHZ6QtH7yySeiL0gbaW0KYTbkS0O2Lu1YSreVLCGIYPN6VSlm/Tyv23Z6zVf0f/++X9Tx3Zi+Xl/vLeEL5vn5p7a6G1o+7gECIHYVK1akRo0aEbI8haIkJibSyy+/LJ65Jk2a0JYtW0JxWzKeVz99Ipxf/vhuMU0aNJQ6vN6KKpYqTSVKlKD2zVt6ldpw1/JfqGGNWpaXy/978CGa99lEucmiB0I16/U3JJPCzU2kIZPID22I4riSCpGT4ZPjTrp+euDJjGwX7lTXyApTv359ql69esg2Idct9+0oJJEgxYinZ7uQGS/HS0O4Fo7rJzaOdk1qU87BX7xuV/T6b+jx/xRKJecM/cDr64NJDH2t25zHTnW+zfrCq5BrvkGDBvT8889TVFSUP1V5fS3skxcvXiwc+vD8IQzXyZPBC/sk7CVVivE89IM+1LhWHXrogX9byJ8jE5XPBwxySwYhgRzRu6/Teg6u/NVtHTLsw87aYM6RK4yfNGTSlHFd0wPrbMA1/XtkLCF4PJebCHjide1Idb1161ZBxEaMGHGzMo19g2QVIY8gobQtBTH7pCFdzepVof8+/G+6unu5122K++M7euax/4gN6MuPu3p9va9kL9jXGS5E2w4Z/+0hAlBnK3FUN23a5OFVgT8NL6Uwm1E0HdASJCcHXt2pprnZK3XrCzJZv1oNeuw//+eUCCJsz7ltu51yBqjC32rWwun1IKjjPx7o9Hot7Num9MzATzI/apSGTBoTL2p6YLUw+Xxpoynzuh/TS/uXpqWl0dq1a2ngwIEinhwkA/j3wgsvUM+ePckbr2ucj2uPHz+ufWCsegBJRt6xX6UgXmm7ltHDD9xHC3xQTSdu/p5KP/WY2IDG9X5Hiv4EimSC7HPxDQFFIo/4rjKU8+fPU//+/cVaUr58eYJDEEIVBaogZZ8ve0Wgryn4+5ywXYRa25F0sssb7Ry2M+vEGbIOPO7oWvw2Y/hoh9cHuh/Bqk82zaEUZFKouDlIuZQT25iUGqg1ShP1IHaiJ6prX4zvk5KShM1VixYtQmpMH2zgzbnXNU+8LmxbTBWfe1JsWkPfa6v5/tiR0Ijfgz0NdFn/Tz/9JEhbr1697Ew71O4w4lsqKUxr1KhBP/zwQ0DWFdniS4JUwmbSlhTecfvtlHYowm7fVNIh3nrrrdS1zZs0pEdvqvn8i0Wuf75MWbp04LjdtcEifkGpV7J4k1KQSYShCQrYHhix8n3dOP1ExhHIvp6Lr6prXzBR8vh+//33vlwu5TXGK+c1Tb7gsFOl7P/EZtOvw+uUe2ilpvtjRyRvxJ8057sPni/lBFOpUUePHhUq5aZNmwZU8hfo7mzcuJEaN24sSC8CqW/bts2vW0CAINu+eHHfUfrXffcVIYQgl99+PqlIW5dNmSnOueefd9PWxT8WORa/cx/9MmsubV+6wqVHt2x9d9oe7M0SxYOWgkzKFFsy+0QkHV37Oy2aNFW80Xj79oLrl3w5nT58tzP17diF1s/73ivPM6cTR0VirLeYk4FUXXu7asOYHpsTDPkvXLjg7eVSnm84f0Kz5OvKnz9Q7efLiA2oR5tXdEskQTCN6YG3r5NyQgagUXg2a9WqRVWqVKGEhIQA1BjcKqBRWbhwIVWtWlWQyk6dOonYtr7c1RCfXISEybInfdLtfTsy2fbVppa2Ju85RPffey9BYnlg5TrL77K0PxjtkMmnQXUyqabnGGJObfh2MU38dAi906IVVXiuMPSAtTi9Uc3aHse12rhgCT312H/tJvxHnbpqemIbL1z2ZU2S5ppgqq596eThw4fFgt+3b19fLpfumvwzOzVJJjP2/EiNqlUUz2unFg198vx2JgWU8XdD4inp5o6MDUKUhjfeeEMkFECiAS0VOP9NnDhRSFQR2xa23t6+tBokzXyDED/WezO+gzzmnYoR+2u715qJ41+NGa/p/dYb0ong8rIU9clkfoEqA7/zh5/tJqbtRFX+Htmnn9s2zhwxhmCjoVxj/YmgxzImjPd40sYlyTJfPW6HO9X1H3/8QY68rj2+gZ8nDhkyRBDKnTt3+lmT+pfnHV+vOTJ5bd8KerV2oR0VQghlH/hZc33wlrAWxOxXf7JooAWIWgBHuQULFmigtY6bCGkqXlbRjwoVKtC0adMoK8t9eCgh3Il0Y/qkkpYMqQ6hvrbeW/F9/y9radWceeJ3ZK6BjaXHe5tKfQlU+0xZ8piuqE4m4S0cKGC9qSd1/zHavHAZ7Vj2kwiMirhV9aoWzZqhTNq77rxTRM53VD8mrqtYVkodf/22WZV+OmqzL7/JbjcJ1fW6desC4nXteHkO7K+IWweVFAIg5+bmBrbyENaGeeEtqVH7/Kz9P1OrRjUKN5/61ej6/p801wdfMMz/e0cIZ4Y2b/Xdd98JAgaJnh4K7D7btWsn+lSzZk1asWIFIYuVs2I2GqXep5o2aGRHJj99rwchEPl/HnyQLuw7InX7fdl7XV1jyrjmbChD/rvqZNJ4MU2awQcx/GbcBLvJCkKIYKqOBnXUh+5zAD/4rwcIqZwcXa+V38w5chEe2VTXvjy5P//8s1jkITXQajHnZWuKiEEC+fardcUz3qTm85S5d4Wm2u8LibRcc2KDVqdZSNr9559/CtV2mzZtCKpuPRWkgcSLKySVsNl2phExq6Qp9HQfRDYcRUBj+/nTzK80vcd6ioH1eaYr8qTjVZ1Mymjs26lVG7sJ++jD/7HYZiiD+es3CyznDe/1IaUf+YtS9h6m7yZMFnGuyjzzPxE49cT6TZqf5DJMWkV13a1bN6G6wcKIf0qua7VV195uPgj+/dZbb1HZsmXp7Nmz3l4uxfmm62maIWPw0u7asrF4ZutXLu9TUHMLMbvhIa2pv4+slsr7U4oJfKMR8fHxVLlyZeF0c/HiRZmaFrC24AUcqnv0E+tmly5dCCkirQts8JT9TcZPqLRtSST+RpDzcFJvK2NjSmMyaZm/hqg46SYvROUlS5a0m7S7f1xlaSvO+ff9/xJ2kvDeVgZXr59qBEjVmuraMqm9+ILFvHTp0tSxY0dNbvTG9CRNkEkQyd5vviae6RoVSxGCm2uKCAaIvJoL9CVx8+JRc3oqAn6/9tprwmnl2LFjTs/TywHkFR8/frx4iYWTztChQyk1tTCesOxkEnaTd//jn3Z782/zF+p+D3bELUxpockR78ncV1UyKYKVS2oA2/KlJnYTdnTfjy0TFt7feCOa8Mlgy2+OBlsvvxnPBz+MjR5U1548dLbnIEUaJAXItKO1Ykw9Jz0pA5Ec0LHweX2h9NOUumOJ9G0OFtE15ciVgk3t+Q6HEyUz1S+//KJ2cwJyf4Qfy87OJpDGS5cuEZIlxMXFUXR0NJ06dUpk4Dp48CAtW7bMkpoR60/37t0pK/2q9PvZq/Ua2O3N04aNkr7dweACTCZvPDIyvwV9PfZzuwlb+8UqYsIq6u0G1WvqI/ipJ4Q+NjEgC51tJa5U18OHDyetqa5t++fJ3/CyrFevHiGLhZoe5p601fYcw8UY6YnZyB5viWe53DOPU/KWRdK3N1hEEvWasuWRZNjOJTX+nj59uniRGzt2rMe3BwGFTeW1a9cIjnRQiyPFIUxVoGk4ceIEIfzXvn37hG3ili1bCDaLeFmEnTQy1SAmJBIYzJkzh9CGSZMmCWnhqFGjhKQQHuUfffQRIfPOe++9R4gbiWw3sOdEBi0EJ4cNZJ06dah69eoivStydkPSCGLo6z+sQxMGDaXoLbukJWcI5Wer6raONxkM0iZrnTKYnykPjqqSSbi1yzpIUZt32k3Y4sWLE6LoIwE94lvhu6ztD3i7ouKVOePXp7XqGguhsuj5kuvar4ZIdvHmzZsFFqNHj5asZa6bY7gQLTU5m9C3o3iOn3viUUrYuEDqtgaTRCp1m7LSXQ+oJEedSdeioqKEdA3qaEjXdu/eTdu3bydkgVm/fj2tWrVKeCwvWbJE2AfOnTuXZs2aJfJXI/4iSCNeUgcNGiTslbH+VKtWjTp37kzvvPOO8Hxu2bKlcFJ56aWXqH79+gQvaAQvr1ixIpUpU8ayZilrV7A+QQ6xLoIsYq0EeQSJBJls1aqViIUJcqn8Q2xM/I72N2vWjF555RWRGUd5UUVdsM/2pL25N2I3Bnwf8URw4eYcmJvZkkl4c4elzWS6PJoGdclkhjphgTx5QDAx4XRjO2nLP1tK/LZixpzwIZI3Hm6zyez1VhOuqmtvgYK0o0ePHmKhh2RDK0VmMjlt4HviWX3q0Yfp3O/zvSaSR3+cTqWefJTO/ubZtelrR9GU1uXo8Xur0fe7V3l9P4XwBfPTlHVF2ObaStcQ2NqRdA156uH5i5cdSNfWrFkjpGtQkUK6Nm/ePKfStU8++URI16BGhnQNdsGQroH0gBCB7DiSrnlCdgJ1DiR5iuNNgwYN6OWXXxZEEqQMIXU6dOggHFXwbPbp04c+/vhjQURHjBghiCkI6pQpUwRh/eabbwSBXbp0qSC0q1evFgR306ZNgvAiADoI8PHjxwUhhtoZ6ufk5GShjoZaGuppEOmUlBSClBLSSRBdYIaUiQgnBhtrT/qPvoEEA2P0B9LNDz/8kIYNGyZU2iDHqEdJxajUOW3EGKn3Nmce3TFb/5S63Z7wDm/PkSk7nbpkMi1D6sFX7CJtCSWy4oTjW5C5wOARx2HVtUcw2Z2UmJgovNQhWTAYPMParpIQ/wA1d9KWRRS57hupyNPcEb0EkXzs4Qcoct1cn9rWoWl9QSbdkbv0NSNocquy9NjtxQpfPktWpQWSksmstAt+q0IV0uHuE2SmfPny9OKLLwrpWt26dYtI1yBRa9++vSBLsNfr3bs39evXj6DiBeGBlP7zzz+nyZMn04wZM+irr76ib7/9lhYtWkTLly8n2DgituyGDRto69attGvXLqFaPnLkiFA1Q+UM1TNIMlTRUEnD2QbOJogAUalSJTtv5hA/Pk5vt2PHDkH0gB/SOkIi+eabbwoSOGDAAEFkoR6HdzZwAGHdv3+/SKGIdSQzM9OhQx/IK8gpxg5SV2COcUJ6V/xWu3Ztyj4VLe2+nHnsNCHUnu2ejL8XT54mbbu9JYmeni9TyD51yeRluY1953020W7SIstNxK8bw27SYnIjBpmjwqprR6j49hukG1jUFy9e7FsFIboKkhNIphRC0aHlqz4RNndEzZfjiz7rJ57bhx+4j06tmu1Tuw4um0LFi99Kg7u2cXr9ldXDaOLrpemR226QyGLyk8kzJ45YwmpBMggJGxzApk6dSrNnzyZr6dpPP/0kJJG//fabkEyC4EBSeejQIYqIiBDEJSYmhhBWB/Ph8uXLgsTk5ORI+zKElzRI6DBvYY8tc4GEMlAFGiKML1TnkGxCagyCChxALkHS8R3k1BCbKO3+Nq7/J+LZfubxJ+z25g/e7iBtuz0lh96e56mAJ1DzyFU9KpPJdKkH/8zG7XYTFiGDrkeckbrd3k5IT89X8oBaq65ff/11C6HAItW2bVshRYABulaka64ekFAfA7YIUwL7Jtni3UHCA6cBSJQUEmn96QvxC/Q1KyYNFOG6Hrj3bjr+0wynRNDVfWM3fEvPPFZo4rJ/6ZcO68j542Pq3eAlGjm0Py0d0oxq3XvLzbVCYsmkuSCX0tPThfoUYwfV7oEDB0I9zVW737hx48Tc1XKiAG/BA/lXiCPU5XiBgO0nJLMwV0C82+bNmwvbUajZEbnD0z0hlOdBjX3H7bdT9UrP0w9TZ9183m68xMEELZTtkeFeMFeRpTCZdGHsC1X2Iw89bDdpkYJRhokU6jakJiWTo4Dh4eJ1HaqHFnZV2Oih8lO7QE0I9aL1SwO8zhW1mExkcu2MYVSieHEhUVw8vj9F/DzT5T+QTdhFHvphKu1bMplw/Yj336RHHvyXeOYf/8+DhLBCrohn4bEVtPPdR6m49JLJm0HLsQnBYUUJYD1hwgRNp/UJg5RrAAAgAElEQVT05DmBOhjzFTacMm3CnrTdl3Ngg4kYkugzXk4hfYbtJP6G7SokyigwEcBvkFyiIKZwqPcWT+7XvGFhwoG9P62muB177fZlqLovH4yQsu2e9M/rc6ID4xQrBj0A/6lMJuVWc2Nw3272ut2kRR5vrwfeBWnVSl0F2TnCqxCLMYzMYX/DJTgIwNsUCzxSvIW6wNZs5syZQkKKNuAfvEnhCbtt2zbh9ar8bv15ff/PHhCv4DimbPhqNN1WsoTds+rItsrT3/q2b+5xf1KGPU+3yU4mI+zTKUL6jRdEjCOkV3/99Veop1tI7gfvb6h40UfYTeq9wFEKXuAYVzgOgUii//gHlTakkUqBNglkUwlLhnAzsu1Ja76eL57tDq+3srTNkYNsYIKXx1Da5l9o7ZTJ9PXIz2j+l3Np87qDlCXZHm5MSFGGUIpPdclkmvxksn+XQo9Q6w0IyeZle9hC0R7YTIbDG70MTyacBeCJCU/L3Nzg50UHiYBXKrxZFYIIFSi8VbERY9wRNw9hUnAcjgGKIX+dGlXEb/Eqhd7Z9u14uvP22wJKJPG8o173UslCcpw+vgb9Q3Iymf/3dodTG2MLhxZ498JUBaF0Ammv5/CmIfwRhBlOLJDC6v0F2NbBZsWKFZYQSK1btybYuFoX2MDieYaTk1LM2blS7W9Xj5ykxx95hO66884i4fgQW9J6X8b3oR/08aPtMZSweDh1ef5hul15li2fJejeJxvQgC/W06XTsX7cI3DXGlOvKEMmxae6ZPLqNSkGxRkRg8jcUeomxJjMP31W6rY765M/vyNjEZfQIYCNAAs9pISBLiAQR48eFWQRnq0KgQSZBKm0llCBWGCzgdcn/iFWHa6Fly6umz2qn/g8vMI3G0VPCZuj83Yv+oL+edcddpuK7Sbj7d8P/eteyj7guaQ144s6dK+y8UhqM1kQs9/lNILaE7niMaawrdNqvnjrTsIGGTa+IMlqSPmt2xLM77YONjBbgDONEhsTLwiObNjhjIQXQzhPKUW2zHQfdeoqnm8kErHev6YMGWH33NerWr3IOdbnb1ywhFbO/sbJ8VN0aPhL9HhJG2c65Zm2fN5FZVtPpVMnAkcKrdvozXeZwgJh7qhLJq9nOxlY9QcKgzqyz0d2k1XZlE6s3yR1272ZlB6dG8UqbWWxDdUnVFGIdQfVVGxsrN+3RX1wtoC62jpgPBx+QFih3rYt586ds9hZwU4SZBIZPRCOBaQDhHLjohni+4a54zyW5Dkiht7+lrJ1Ed37z7ucPqPKs+rLZ/fWL3vVl4zJden+W+T25jYknrQdXru/jUajiB2JFwaQDHjsW6tE7S6Q/IeBAweKuQnVrl6LtYMNiDNCJClag6ZNm4qYlo76jniXeIYdZf+RxaN725IV4vl+rX5Du3B8e1astnv24aCTfSLSbm++dvxvevbJp6jNK03tjhnOnKXEmW/QEyUKn99bbvsXPVexJr1Svx7VL/co3VPclmDeRs+2m09JKksoZfLkxvxSlUzKnE7x7NbdwnOs1guVqU7lqnaTdu7YCQ4mpRwk2CNy6K39x7ngpFN0tMjxbzcRAMGDVAWbgy8mBpBGIEsIPDjhOIPNA//gUAPHGlfSJ4SGgWQDxEJRfyMVHIri0f3+++/T8c2rRJ2LJw70ioB5Sx5tz7+wbTEN6dY2KP8OL5/qVV+0QCaN6Uk3J5abb5h3CCyOufLuu++K/M5uLpHu8Pfffy/ajzA4eiy2DjbI+oN0jbB/xEsfUjRCYumsfPDBB+LZRtB02yKDE07S7oP0nwcfpAfuu58S/zxot9+CNN5W0t68xZGDbNc2b1KJEiUIme3s9scjS6jnf4tTsRIPUb0uU2j/nqJxNjM2zKWhNR6mEhbpZDEqVvwR6jpXRWef6Hif9gPbcQ7k3+qSSaPRfmC9JTlBOr9Fo5cEgTywch0N7P6BHZns2OoNadtu97AEACPZjH0D+RDIXhdUVtjU4X3rScEGgpiAgwcPFhkzFAIJAojQPgkJCS6rwSaFYMa4Dg4LIIz4DvU3CsI+KXWCkCafOVp4fFBPrwiYLTnU8t9aIJPm/GyX4257EPMIYw5iAoKycuVK6TYw2zYrf8MWEC9hsBNEHm29FVsHm9OnTxPIIZ5LpIFE4HZXBS8LOBdrhKNiygx+drqcv6Lol1lzafaocZS851CR/TTvVAw1qF5T7Ls4x9meBmGPreZh1If9i5z/zbgJ4pyZDjP7nKWkCS/RvSX/S29N2kHZzvbKiE30VcMH6VYrQvmP2uMoViXppDE51dGwqfqbumTSbCZDZFyRgXc2aUL5u+I51uWNdqJtq+bMs5uwT//38cC0+1QERS3/lpZN+Jxmjf6ClsxaRsd2yxfH0ph8SdWJGs43h/cp1NJwfkFmC1cFmz82fmwUIAHIMAJVpSPpg6N6sAkrKvCRI0eKgNaoC+pCpfTq1Uts1PgdKrX86+niXkN6vMNkEpuNjDaTx3/zmQjCPlZJuYdIDtb2dcqckOkTL0tIO4jnBWki9VRsHWwQXQFpLpFfHM8jVNYIGu+u9O/fXzyzzsxnzEZTYPY3J+QMPgeNa9Wx7KtQTy+aNFXcE0QSkkSQxM6t27psx7CefSx1KKQSXt5w2kFov8mDhonjEP44zlp3jL5vfC+VevcHSnPSVoV75O+aQi3vt4on+49XackRdbSRpswsd0Mc8uOqkkn01hCb5HKyKAMZqk+ka3rikUfpn3f9wyJax1uTMlGtPx2J3j1u56n9tHVwO6r5kL2YvliJu+m5et1p4arjlO9mgnt8Pz/rMaVdDfnk5BveRGDjxo2WzeLmr/bfkHsXRvUIRoy0cZ4WSKGQCQUbEjYm2EXCwxd/d+nSxeLdi80HJFUJggyvc6jfa1R5gbq1a8FkUlIyWRC919Op4PA8BLMeM2aMmA8IOYP0fTKWrKwskVsbdsbupHMytt9Zm/B8WmewQZQFvCAiFi2e0Xr16onsRM6ut/4dhBTPsLs4tsEMXq7YQlrvp/gOD21F2oh9+MrhEy75wbF1GxzuzbCPLPfsc+LYC2XLEWwmHe6VJxZTj/81pm92eeJQe5p+f/ORm9LJEpXosw0xjuv1c7912FalzshYktEZVnUyabxwOfSDoQyKg89Pur0vJuCXg4cXaRckkbYT/6eZXxU5x3oCZBw95fSY4eh6mt7okZtx6axE50Xucdez1HnSViniW5my3L/tWi9Y/D2wCICwIX8xNg5rT+tA3MXayQa2mSChCGQMNSFsK63j8o0aNUq0Ab8jdJBSWrzSmF5/uT6TSUnJpOFClDJUfn3CI1qRXENa7U5S7tfNvLwYz4hingF7X72Uv//+2/LyBlMVqLS3b98uwh1hPYCq+tq1ax53Vwlk7sjhzroS09VM53uYg73Tev9z991RBhvrvQ/JQk5v2Or2/pA2ln76Gbu9WakLaRfPbdvtvJ6T22nL/D/oqof9uTzx5ZshwEq8SBM2hp5MGhPllLarTiZNEoUHgn3kLbfcQvWr1bAL/fNOi1Z2E7Zf524OJ2nWiTME8jln9Gf2x08fpJ9bPXrDmPcWuv3+p6ha9fr0Wp0a9OIjd9/MoqEQzJJP0XtfHVRdQgm1Bxd1EUA6Q3jYwg4MXreBKAg/BCcbSHIQSgQbMrw8K1SoIMiitXQTUkj8DsKJa/r27Wtpwnud3qGaVV9kMikpmTTlBi5QN4JbDxgwQLxU1K1b12OJmGWyBOkLwt+AXI0ePTpId1Cn2jlz5gjTlcWLFwvyPmTIENFPqPHx0udNQQ51ONTBDtpdMRuC59NwftcBKl68uN2eChL4vyeedOwo44TwIWSQQh6tP6tVrEQpew/b78FO6nFHgHE8a/5b9MitN7y7VVJzgzPJWFQnk7J4dEOcjrcYxJV09CYDI2HriYrvL5Yr73CiDnq/J91+220O67m64F16ungxKvFgdeo/cS0ln7S2uThFp2b1oYYPFc3kUfyRN2ndQevzQvz9XCLBKQOqFi7qIvD111+LjQQZiPwpyM+sSHGgsob0AwUqMKgxETDd1tMbajZs1j/++KP4nDdvnqUJQwcPEqqz7IO/hCWhlNkBJ//kZss4BfILwkPBNhFzwlNbvUDe37quzZs3i3Z06NDBYpJhfVzr37H2ImlA/fr1RT8/+ugjkWPd234pucmRiMCTEkxV94oZc+i+e+6x7Kv3/PNuGtC1O6Ud8s5LGjaW1raTd95xh3CahVDHE4LozTnXZ7eiB26EACv5/GA6fSrEe3FkHMkq2FGfTErghANROeJPgSAqRsC2E+zw6t8sk14hlZBi2uYCXfv1t+K80X0/tp/Ipw/Sd43uppKPtaBFm+xjYSn3vL5+PDV/8Far+91FL43ao5p0Mic+ScQ7RIgQmdRaniyGejsHmwrIH5xsrKWG3vTT2skGamslww4cKxo1aiSkn/DYti7wiEVooebNm5OS4xj1KGXatGlik0vcvJDJpGQOOIakU8owBfwTc1Dx9m/SpAlFREQE/B7uKoyKihK54mF28f/snQeUFMXWx8mY0zM9w1Pf98yCiIABEREVEcWIqJhQUVERJRhBQRBFRRQBEVBBUZEcBETJOWeEJe2Sc067OzN7v/Mr6GV2dkLPTMeZrnPmTOqurrpV3fWvG/4X7XmqFQJqAOuAdsD7H3/8kVAXd+zYoSwLPMf1FtybtHXJjHd8GUf06CWjevZWQTPJXAPu52HdvjdcG3msTatk5VsVpaSyGpaSSm/8JdlJaDmP1asfkPq37NA7dJYfZzuYpMdm7n4YMMBi68ZNhCivK//vf/LDJ18UiOzSIr4AlOEjvtbI4cUr5MQTChMk//jpkQg0rjPhl37C7qpGlarCbqnQZJn+hdQ+9b/yWq9YO69VsvaTu+RMjQS5SBE5+c6Ossviiau13797r3z11RFiasAE6cm8Yp8Epk+frhYWIjLjKQBRLcgG7WOwiYwAC7Ke4JhPsE9o0bLxDBo0SJkRWdiCNxZoSvltXr9OHph0GJgMHNgVOpyGfsc1Ah9FjdS+Y8eOllkxsJiwAcLtQtOuG9o5mytDg6hxvALaE91A0g2YHrhHp0yZortXjK1v9frCa5lNa5G2JtnzPl9+uvNkKVqkiBQ9uZp8O05P0I5+oKinT6Q0dmpxBJg022+y92dfBmn5jvg7NHj0cdk8bY6gQUTTCDnqlmlzo940dWrWKlTPBef+W0b/8LN80uwdRaCKr+S2GfPD1nOg5xNy1W3tZK0ebqp5vaTBv49pJ0uUbSZLrFapH31g5B31z8O8CdggcnDFihVOndNp0a5mzZrFtTBgsr7//vvVOURnBy9KEJtrwT34ZYUWFpQaNWqowAsAKUEAcNkFF6J7WahGf6c/n7WbeSVD2+5UM3fOotEJUwIFj6+ez/j0QkXFPGCuoTE0s+A3rGV6SVRbZ2b7kqmb+0xLYYoVAjLyZAobP+rh3o23BHaZF4ijB0A55phpHeWhU6EGKiGXP9NX9loMqFG6Obk4Akya6ejLRHysVu1CIFAzVfMOi/7fvX4JCwCDJzLkqcHnhX7GV2PukBER6zn85y/yx9DFEf8PvpZv2QL5ofoxTWiJcm/LMhvAZChZOZQxBIFcf/31irzayZM7lduGSZoxQGsRi5Q5XJBNsGy06E60luEKXHYAhG7duil/NIJ13nzzzQKHaqnZfv3mE08z6SDNpH/rqgLjZPYXAB6BXMwRXj179jQsWCy07W3btlXzUiPTD/3frd+J1q5Vq5bq21NPPWVI9iGSC3AP41sab1G5ujOydK5bxmriCq6Jdta9Upa/e6OK5C52dm35bbL1WsnAgfiSDsQ7zske7wgwSScALWZNnEZPPRsRBEKWSgJ4Pdfev2BZAYfhYDBJyqepvw/SVY+ea/mWLZM/6pyTz2lll5mbXWlowfSC7w6LRTiTaOjx3ndzJKDxQBLFGqngJ8Uigp9lOCoQLQIWcIgGMlwhqAETJtqNJUuWqPoADMFlw4YN6vdOHT7zwKRTwOTcoZLn9wUPk2WfsVxomnC0lWgtjSwDBx5J4Ynp1825w4NlgoWAIDeirTHbkx4x0j0ZfF6sz7iwwB0LQE20PniG9a1bdgI+E689p7e8eEFxKVLsTHngUxviF7I2JTx2seaHUf87BkyaqUpfMnKM8mUMBn98hhR1Wr/Bcd0kPdt9VgiYXnPp5bLsz3Fx1RP7xlwmA2qfrvwzihQpKTc1HWO5sy9tzPOFX4zgJsThHaCSbGSxUZM53ephEcVsBajPysqK2H2CIrQgm+CD8HNj/NB+YFYLV+C05Jg2bdqovzXfyVmzZhU4nPM5joCenKVj0w5QOtHM7Vu3sMAYWf2FOYGvNXyl1157rfKrTBTMBLd94cKFas6zQQrmQA0+xm2fcUPBZ5l76NFHH1WsCkb1QctRPmzYsISrVNrJVesMXuNMBH+GmqCXyfRXy8hxRYrL+bW+liw9bmqGXn+N5B1yfkpQx4BJZeo2MbXiP6PGCn6S5a68SqVx+unzjkKi+NigrvCExyRepUJFualceSHvZ6L1RL320knyWYWSR4BryWulzR9hAnoMnrCh7Ynlo4HfHeTVPAAxNRmxUCT8tEvTEzGJ4cdav379uOQ/YcIEufLKK1V0djTCY4J8AAPr169XEn7//ffV9cg0ElrQVpNuz789ywOTkwfaLoM8A7klQ8c6nu+APyK9eU7gmxvsrxtPPRzLuZCmly9fXiKlAoy3TjuPZ0OIKwCuQ2wKcSUxikOWfgHokRfpMJOt14p83aFrkBO+HxjURG48oaiU/t8zMmq69eZtJ+bhDnfPOAZM0jj/Jmdlw7F1Is/oKA+ejLNvUTm1ajtbEsrryXqDZkBzgicjRiQNV7jJ5/1mjAQ03zG9QQhoG9EUQTgdLXcxpmsAJ5x2WmHzgEYoXMGMhqYULUbOoj9tB1OhQTJmft/TvoqcprEvlKwgPSfZCyZz1xSkdgo3Xlb+Br0N2m0AJZsO8knHW3i21KlTR21m2Ay5vZBDXAtY4r5avny54V3SLAlGZARCWeDLdFb6Y9PX6Dn95Z2rj5Nip98iHYYaz1upp/1OjuAOnrCOApNOITDXM8BmH7Pl85pyOotTif9K45+XJqRBTaqNq9fr1nTxkG/atKlaKNCQpYrpKfhGcfJn5I32oXLlyjHTqrGAwReJZidWtO3HH3+sxhTNEoVAH/y52DSEK0SJA1Ap/l0b0gpM7mp7o5yUn7XqOuk61kYwOWew5OU401kfblLYIACV+OlC7aO3kDaQ84LJ8vWe67TjfvnlF7WhY7MGlVJurvGUL2gioU3i2WDUJh9za1LrisnWNEPbtnSmDHj4Iil5/BXyeo/ZtvA8+7eZS+tl5H3hKDBJx8wMxDF0opl5UywZLx0qEcldTM6r1Vk22OCjQV7WeArmGqgseNg/8MADsm3btnhO945NUgJkI0H2ZLiIVCB0Jvobc9qMGTMiHaZ+x/QNlQiaE63ge8k1CAwIVwCZgE00GLxylk1IE0DZXzKblzlKZlxEihS/VNoM6Gdb333rzSMpDzfu8f7G3GKuMJcAOuT7jlV69eqljo+XWzVWvVb/jyWADTd9R8OvbdTMaMfQoUPVdX788UdDqwfguGYtTXidXiZz37pZzijxb3mw3Tg5nHA9hd3kdMsuc4NuhY6hA5xgZY4Dk4H9B9NgokafYLt6PiGXFC8ixc6sIT/aQIzqW5GlTJWJzCl4CnlQsiNOBZ+mRGRgxzmAt+eee06ZAIm4Di2YGR955BE1NnrM4d27d1fHQgWllXxi8gip2D7//HN1DhHklMD+nbYBKjNN2qF17xvxgTS56rigwLxSUrbuu7Jiqg3ayfnDJc9vvJZLmwNGvkNTA3k+zwsCt8L54XI90giiwWOTGi6QzMg2mVnX4MGDlUUAH+dPPvkkJqVXsm156623lHy5940syty9JpXN3ask6+s6cmmpU+SW1wfJbjuA5PI1gqXWTcVxYFJN1CzzaIJ07wrsmEBcc+EQaXl1aSlS/Fyp+8U0W1Tr4eiA4pnUaMnQfrFQ2JFeLZ62ptKxmLCRO36Lwc72fH7ppZfUoh1K6ROu/5jc0BgRNMH9qBXMjCzqkRZ0TXsUTEGUu3pWagLKmT2kZ62L5H/nniInFD+SCCGULaL4cafIf/5zsTzb9gc5NNsaYOnftkYbLle8w5fasGFDNTcJEpkzZ06BdkMpBK0NrhmbNm0q8J9bvrC5euWVV1Qf2WSHMiGY1Q+ovMySmXJJWx5dKeL4tTbsGr9KtvZ+RSqedJxc+Vh3WW+DVRC5BXbuMWtamFav48AkPc07nEZ+GQUm9DKZ3fg6OaloKbnqyd6y1Y6JHIevZLRZOXPmTLULL1OmjIwbNy7aod5/Bkqgc+fOatHq06dPfq0tW7ZUvxGoo6egQUFbBI9lcCHA5r777gv+qcBnzdQ+ceLE/N/zfDmSvWBEagJKiwBiqCY00vecjMkFwH/+IDj8AxsWeCNxq0Brh4YbHz/4EUnfiutEaK54h3cpv3nw8GraV+7DSNrX/BNc9AHA407AGBkE7+7/rlQ7vYRccOensnRh5OPy+71kriwfPdtQMzgsKsGbeLdMCUeCSYTn37gt5SZq/gQsACCPTdjdv74i5Y8rJmfe3FLm6ZnIEeqJdZ1o/+NmYFQhwIOADBYII6IJjWpXKtfDIoxGkQAb/Fa7du2qgGGjRo10kzsDGFkAgzWQmMqgCCJbTqTCgg8IHTBgQIFDAnu2eGDSbOA5b5jk5RhrziwwiBZ8gT0AzlPmEBuXp59+OuymxoKmJH2JPXv2qAAj+qLXLzTpi1pcAYAnlRhY9g5tJfecXUL+VeltmT7n2Loccb1cOl/GvVRern9ugBw0ai1GmXM0fbHFw5n05RwLJvNyfeIzkXcy4gQxalLEWU/OpG5S/z8l5YTL6suIqdZzWSEPgp+M3hFhZrnnnnvUokC2FaPrT/oOSMEKiJhlEYP8mHeCaPRGc2rnfv311wUkowFFolAjFczsXO/bb78tdEhu1jwPUJoIKP07jc0wU2gALfqBQD7cJXCnYC7h50tmGDcVaIsAkLSfQCPMzalaFKA0MXudVev0/mFt5f5zS8iJVzwtA/6cJZumzg772jhpmqwc+YeM7dRamla7RE4qcbm8O2CFMYqvjCxxCw1QuPnsWDBJYwM7Uk+NHvbmWDBCPrvxNClx7t3S80+DJmacYBbgbpbDL7v0J554Qj1cIb122+IQ7sZx+m+ahocsRchfbyGIBwJlIr+DCxGhLI5wVEYqaC85pnXr1oUOIa1fzqLRHqA0AVDmrppZSN5u/oGgL+YRKTx5NzojjFmygaKL5xttxsczkTzYZrXNzHrRpPlcnB1n79AjQDLU51nP9xJXvyHzFuvQYupYj/MOutuy4GgwmSq7nrAAUptcS6fJ7w9dIqVPqSit+i42Zoej1R3He7JBN7EeVnAUYmrlQfviiy8qf6hY53j/JyYBsuJASo57AQ7/erWSuCUwPi1atCh04S+//FL5tMWqC7+3V199tdD5/BA4tE+y5w3zAKWBgDJnyRjb8m+HHeQkf1y5cqWaZ3BRQqNDrmq0lOSqxg/YqZYNqLaqVaum7h/mf+hmLEmxOP50NGq+FWttW7+irrFR1sE9gz5Upm09wLHwMaXkxjf/NiTNcWDPfsePcawGOhpM0nhl7s7IdN0k1TW5l86TMS9eK6cc9z95qetMWyK3aadVDr9EFcODCGDBfJVuD9xYN6MR/5P28Oabb1YLMikukXWXLl10Va2RQpN3PbQAIom8jVXgAeS6kUpg71YPTBoFJheMcL2fZPA8QYN+xx13CEF7wfRWixcvVpyMzGU4GqNlbQquz4rP+BVrmX2uv/56gdsxXYsClCtdBCiX/CUflTmaslhLOBDPe+lK8vlfyac5Jk1lKhTHg0mEDGrXBc6i7ECcd/5imd78ZjmzxL/lgbZjdDnwZk8bL8unGmwGx0/DQp8kNAs9evRQIAcCbag/vGKMBMgmAhEy0a/4PgLeH3roIUUXhD9jtELOY2iFoBAyu/i3rvYAZbKAcs5gCRxwT3aMWHOKuaqReQ8fPrzQ4YA2uBkBlBpos1tLCe1ZjRo1VJuef/552bJlS6F2p9sPrgOUNmOGwN4DKTNFXAEmlbl7UypFdy+VeS1ul/NKnC5Vmw7RRYqaM6OvvFuujDT9dbmhwNrI6O147oohQ4Yo89VNN91UQAsRTx3escckgBtB3bp11cKGbLWCVgdzN4tdtMVX02JC6WRF8a1b6AHKJAAl6SpTqWhAkSxa0QrmZPyAAZW4zdhh3UBLz/0CuwF+nR5TRcERU4DSxT6UVimeAvtSB0gyA1wBJmmoApQpEDXmW7ZMFrS6Sy4ocYJcW6+bLJsSPmps09RZsn7CJFkyqK/0b9lA7r34RClx6asywyBnX24Yu4lRp0yZoh7GPJAnT55c8InkfdMtASJgNVLkbt26FTpPcy0YNWpUof/4AT6/ChUqKLLzsAeY8CP3s2/tAg9QJgAo/TvXmzAi9lWp8Zq+8MILuuirCHSBogpAyWbUSh5bCPmhzuLa9erV8ywrEaYN1i5f1kZDFR9WgTzTr0OGOZcH24QbdteASRqvosZWr3fxBF0q8xWQDJ8xo7CDb/BxJaT8ayMNI0f1b47t/xZuwhj9G8Ei+PjhZM+i4pX4JUD0NItbq1atwp5MLmRkDF0JC3FoIdc25+tJsxh6bjLfFaD0NJRxAOpBkmoaSXJTwx4AN2q8FDpjx45VUdPMXaKow83tZOZn8LmY4fE9xoWE9sJuEE3TH3xuun5WCqDN2128XhsTpV0AnK7ZoOJAUnFOuApMMgBKhZ6R5cIJukRmv49pOxggxvG55HXSdkTyzr5MbKsCbvTeMPhNspiwKKBZ8x7SeiUnouXQRjOJhjJSATWYNAMAACAASURBVCgi348//rjAISySRHxjOuSz1UUByvWL4wBU1qQljJRlxrbf5wAkN+YPD8ApKysr/7sbP0CqzwYHBoBVq1Yl1AXM3ERPM7eJpjYjVSEBaaQo5Rq8J9rWhDqYAifBFFIAUNnsp2hXW/wbtkpelGe024fadWASgecdyhafywBl9h9NpWLJOMBjSFTZcRXfl4wlBuyUsjZJnj8y6LBrQrMo1KlTRz2w0bTZAWzs6nui1x02bJiSFzx8wdlqwtUHaHv22WeV/yTaYK1g+maRRNNiV1GAcvMKD1BGMnnPGyZkEdIKmwYCq9gExMMhqp3vhHf8DvHxxZ83WTM18wc/YbI+MZfxv8SHONlCvT/88IOKLic4jWxS3nMpManmHTosPldbFZNYe5dnCoCa+ZTKxZVgkgFR+btXuFFDmcSkTHJHpzLcOHhnBOn1yy+/rBYEtA2xAFIq35ix+jZt2jQVfY1Gd9cufVG9mZmZ6hxomTQtJp+JjnVCzmCVdtHjoSwAqnMW/yV5hwu7JmgbCfwM3QhwNHLvcNmSYs39SP+TbeuZZ55Rz4+aNWsmFdiHtQSfSMApPpL4SnolOQmglfNv3ZlWWkq15ubkJic4l5ztWjCJfMnY4kaiVDvU7Mq07WAgqd0vZMeBNJuHOGkAobvxSkEJsLBhGiT4IF5qJVJaItvffvtN5syZoz7HiqAteHVzvwGcAFC2mZMjaQdt+D135TTJ80deiNq1a6fGD0J5N5Wff/5Ztbtx48aGN5tNEvXDVYkfdufOnePOuNW3b18VGEi0docOHXST/hvemRStMC20lBmZEtid+trI4CnqajBJR47wWq1Lq91OvGBU+Wq4SMWOOYBFANADb+LGjcd8xYInbzp+RvuCnxkR8MHEznplgfkPYmi0kdAFEVDgNH48AFTu6lnpCyjnDBLfpuUxzWJsvJ588kl1n7gldR/UPoC82rVrC5YIs8qaNWvy3WbwcwxHxB96be4D7gmeO/BHwiPpFXMkwDMeNhFfCloXCW61krvZnBGKv1bXg0m6nOfzC+rkeEFWOhwf2L475qIU/7Sx5oz+/fsrLjfA0/Lly625qIOvQrQr5jsW44kTJybcUiiZWDB5NW/ePOF6zD6RgJPs+X+kFajMWTpWAof051LfsWOHkHqQzYXTA0PIznTDDTeo14YN5vNkArYxo2sR2L1798537widu/hcQo/FPdG2bVvPxSZUQCZ9x38/sH2X+Ja7P8udUtqkiUk73HRICTBJx9jp+Lfu8ACl5leJmn3/wXBj7qrfJkyYoPLyYtZFq5GuhYCFJ554Qi12AwcOTFoMaCdZOJ1OuJzny0kPLWW+NjL+4LhFixYpX1i0adBAObGghcT3kI2QVcT4mhz++ecfqVWrlprvTz/9dAFLB4F/r732mvqPaPB0fsZo8rLjXSmE8Kd0WWAtCikFIg8nH/Blh9yNvGbKgElNKOS5TIVdTlJa09Xrlflfk4nb3+GiQ6NBRKXVXIhOkB0bJfzLAH+Y/5MtLKBw5eEThhsBQNXpJbBns+Qs+TsltZS5K6ZK4NDepIaADQbzgwA2LbgqqQoNPvn1119X7cOf0Y7CHMc3GBmxMR00aJCMHj3aMp5KO/rsxmsSpBPYs098mQ4nPF+5VmlU83J9bhSzKW1OOTCJlPCjTFezt3/bzpTksoJTDyoUFgM7aWxMuQtjVKoFWhCYZETR/FE//PBDJU8jI2qNaF+kOpT1YcdayV44KiVAZc6yCRLYtyNSd+P+XSOvN2LDEffFo5wApQ73LRHcdpfZs2fnp2OkTZD5Y/3wivMkAGML/oe+lWudYXHMyFRaSPJp8yzySkEJpCSYpIsMdmD3PvFluN8XQ5eWEmb9FFe1b9++XR588EG1MMEl50QNTMHbK/lv8Nyx6L344ouGUMCgobnxxhvl3nvvVfUhT7SU8UaFJ9+zxGtQFCNbVkn2ghGuBJX4Rfp3bzJ8QWJsH3vsMTVfkuVuTHx0Cp5JlhrmL+1yggZ80qRJUrlyZdUm2lWxYkVxS/BSQcmmzzfWctY25VuZucFaYLlyrQK0gQMHJS/gAchosy5lwaTWadTQ/vVbrJ2Amt+iFe8Qoro4yEYbJ73v8CE+99xzajF48803HbFA6W17vMeNGDFC9ZNoVKMiX/GRZBHV/C7xt+M7fIVu223n5QVUesGc5ZOcDyrnDFK+n4H9O0yVs5ZVBgJveEXtLAQEYVKuUqWKsBG0s/DcaNmypZrruMxA1o9GUgOWb731lmP9Te2UmxOvTVrlwIFDEtixW/wbtohvlUFsLhlZyqIJF6bSPubkmnqvOlG2ybQp5cGkJhy4rVLN9O3fskNFsmt9TJf33Nxc4eEPCMKh3qlBB8mMB0EK+IgSKIOPoxEFsIiPJAtosJaInN7IEh8yt5bAoX3iW7vAcdHfOYtHH6H5ybXOQX/evHkqgpnIfzPzVUebKzAP3HnnnUrrvXjx4miHmv4fKRY1F5mGDRsKEfBagfD/jTfeUPOfqHiSAXjFfRIAYMI7rUDmnn1HgOaWHeLftE38G3ltPfLO983blZYTHkiCVNF6QuXjts2000YpbcCkJngmm89qVbnBGkpukHR3/OXGh1AYEESUqNO4ErX5lsj7ihUrFA8kGhQj8y9j+kRe5D8PLiz8EKCjQbILfAS3J5nPzIvA/p3iW79EchbbE7CTs2yi+DavkECYzDXJ9C2ecyHeZqwbNWpk+SJJRh7NegDljl0FTlX8jUnZiKZ28ODBEZtCYJ9GDdSmTRvDLAERL+j94UkgxSSQdmCS8VMLzoFDyplWlz+iwWAwoWuuyFKpqAgu8soxCfTp00ctmlWrVnU8z96xVkf+BChGQ1K2bFkhit3IAsH1tddeGzafs5aeD1/UVCp52QfEvz1LctfOl5x/xkv2nMHGmsTnDZOcjMniW79Y/DvXS57POg1krHHSUhZ+9913sQ419P/27dure9LOucS9gxYeQE1O+s2bN8fsYyhpudH3X8wGeAd4EnCxBNISTAaPF+ptfA4dEzEWClyzNgl0R54KPnjUCn7GgZ4gEjQLpAh0a0EriJYVyp7x48cb2g1MjSysH330Udh6mV/kNebaqZyHGD/LwME94t+5TmkPfesWSe7qmZKzfKJgklaR4gtGHgnu4X3hKEVJBGDMXTNbaTz9W1YJhOoAVSffl7gykHsdzdzkyZPDjrvRP2qbEjSTduQMxwWmY8eOis+SjdMvv/wSVxcZT1KNci73wldffSXU6RVPAp4Eoksg7cGkJh4eIsqvEuLU1ettDdjxr90sgV17U4orUpOzWe+ASMAkoNKN0Zks/Ph/AvjMIBInWInFMVrUNino8NN89NFH0yJS3qy56KR60cgRvc+9EW3sjWgzGxZyYuMrieuE1YUsWaRp5B56/PHHZe3atQk3gXO1yPgHHnhAcD3xiicBTwKRJeCByQiywZxM7lDY7Q2LFgvVOmrfMzcccQqGv8offwaMCF1Iu5+JHsXcjSYmXo2EncJiI9OkSRO1CKIJMbqQ25zMI/jPxSpc3yxAG+va3v/mSIAAFMYfrbdRrAChLSVaG/cMoretTuuIBhQ/YDZCbCZ79uxpyGaIert3767qpe7vv//eFm1rqKy9754EnCgBD0zqHJUCdAREhK3bLL41G/Qnql+5TrH6Q1Okosl27zsSReaRn+ocAX2H4ffEogkgIkDHyWZIrUdaZo533nlH+8nQd430XI8P2OHDh6V69epKk2VUFLmhnfEqS0gCZJ7hnmDTYvQ9gVZd0+KNGTMmofYlehLa9Dp16qi+PfTQQ7Jy5cpEq4p4HhpP7ZlCSlOzNbwRG+L94UnAwRLwwKQBg6NM5FALwEvFKzvnyHuuTxRlgQcYDZCy/iqgCnrqqafUAgOFkJN9nrRF/vnnnxefz/jUXMgCbRFmP70FYmeAB7LzSmpIgGdU8+bN1bhChG9k0QJ9rMy8Q3969+6tAtWuuuoq+eabb0y5fzQ5AZjZnGL1KFeunPTr189wUK5dy3v3JOBGCXhg0o2j5rU5pgR4+OMnCCgiGADSYqcVeB1ZnMhCY1b7evTooWQQrx+plksZE6lXUkMCaJ3x/8N3dvr06YZ0CncS7jErKYg2bNiQv1msVauWLFmyxJC+6KkEDk+4X+kzWakgifeKJwFPAiIemPRmQcpKgHSL0JPw4Aew2Z2FI1jQBAzh3wWZslntQiMLdyQBEfGmnsRdAI0mxNcAc6+khgQAYvCX8sKXNpnCRgOtICbggwcPJlOV7nMJTmNesgnDPcSOuUlfNaL/SpUqqWw6ujvgHehJIEUl4IHJFB1Yr1vHJKDltwa42Z1ijlYRoEBOYBYifL7MKhBGA6QTDUbq1auXOj+U5Nys9nr1WiMBsrxoGnG0lYkUgCiAlDm8fv36RKqI65ytW7dKgwYN1HxkczR37ty4zjfjYOiWbrnlFtWmpk2bhuVvNeO6Xp2eBJwoAQ9MOnFUvDYZLgEyXBCRyQKoJxDF8AYcrRCzWLVq1RSFCiYzMws0KfQ3UcCADyd1QPdiBWAwUxZe3QUlQGQyG4233347bt8/IsLvv/9+FSFulLm8YOsKfhs+fLjafNHe1q1bmxaRXvCq+r7t2bNHAJK0DWBpFZ+nvtZ5R3kSsE4CHpi0TtbelWyWAAsfJjKyy0yYMMHy1kBKziKMViheH8Z4Gzt16lS1wH399dfxnlrg+AULFqh68A8zOgq4wIW8L5ZKgLHUclKTRSqeop33008/xXNa3MfCJqD57kL5xZx2ahk1apTS0gIqMYFbZfZ3qjy8dqWfBDwwmX5jntY9huYDDQJBCP3797dMFvgv1q9fXwGzeBfvRBpJdDg+mTt27Ejk9ALnfPDBB6rdZgPgAhf1vpguAQAP/o5wUM6ePVvX9XB5ADC9++67uo5P9CAohsgXz7WgzHJDznisDmy6aDNBOmZbHhKVrXeeJwEzJOCBSTOk6tXpaAng70VgCQ996Eys0LhBs8P1vvjiC9NlQ7YOrgVlixEFUx5ZVCClNivq3Ih2enXELwEyvZAdB+BG0FW0gjYfrToZkswKfIHKSrtXbr75Zhk7dmy0JjnuP54lbFKhD0JW3O9mycpxnfcalNYS8MBkWg9/+nZ+9+7dinsR0NWyZUtTOeq+/PJLBe6aNWtmCXBFk0O/jMxEogXztG/fPn0nTYr2fOLEiWq+QP4dCfisXr1aypcvr7T6ZtHhYMZmw8Lcbdy4sezatcu1EofYHIJz+oL2N5Xz3bt2kLyGGyoBD0waKk6vMjdJgMCUV199VT3wX375ZVMc+3/77TdV/zPPPGMJeToLPYFGmNuMLGhcIILHPQBXAa+klgQ083WLFi0KdQxtYY0aNZTbhBnBa6FUOwTLpUKBjotAJ+5HXt99952XjjEVBtbrQ1gJeGAyrFi8H9NFAuTfJUIUDQLmOyO1Ifh9Ab7QTFjl80WWDvoyY8YMw4cQTSe8gqTOi5e30vDGeBUaKgE2C9rGCi5HrTDOL7zwgppTgwcP1n427B2+1VQnASfFI2Tx3JfcO7gWeMWTQKpJwAOTqTaiXn/ilgALqaaZQQNjBA0OUdBEjROFCkeeFQUND/yV5Cg2q2gmeyuDl8zqi1dvQQmw4bn77ruVFo35S/n8888VCCK/u5EFc/qnn36q/AphWBgwYICR1TuuLgLwYFZgc3nttdfKr7/+aonLi+ME4TUoZSXggcmUHVqvY/FKAM0Lka04/i9dujTe0/OPhxgdfkcCG4z0W8y/QIQPWp5vM82EuAZA/g5ohbrFK6klAUj0AXcwHgB40KbhooEG36iyePHi/AA46k42E49R7bKiHtwE2LAiVxgXYgU9WdEm7xqeBIyQgAcmjZCiV0fKSGDSpElKc8CCmgivHVQ8gC18pPTSrRghPMyRXPe2224zNZiIthLVy2JoBD0M3J8Ed3jFORIYN26cGl+ikatXry4EqxlRIMHv1KmT2rChtWfzg1Ug3Qqk723btlUyZsNp5uYv3WTr9dc+CXhg0j7Ze1d2qATQnECFg5Zy6NChuluJmRkTM4swJMZWlj///FMtTqSOtKK89tpr6nrJAmY0uK+88ooVTfauoVMCaJyJ3GbD0KRJE51nRT8MuirNb7Bu3bqSlZUV/YQ0+Je0lqkSvZ4Gw+V1MYYEPDAZQ0De3+kpAag9yAHMgtq9e/eYGhS0LlqgAjmtrS7QugAArAr02bx5s+LSq1WrVlJR6rgUYO7zijMkgG+fRmnDxoj5n0zgDRpz7p/giGYveOvYWIfyatqRmetYa7xPngQSl4AHJhOXnXdmiksADc3DDz+sFtQ2bdpE9Rt777331HGffPKJ5VIhIpZF32oOSLSgXLdHjx4J9xmzPJRDXnGGBLRsR5ijATp33XWXogRCWx9vQfuIFpI5QhrRjIyMeKtIm+PJLoWWHlmRbMCqTWHaCNjrqOkS8MCk6SL2LuBmCWC61lKkNWrUSLKzswt1h4WXRYCcxXb4gGEmhrLHamd+tLHQHuH/tmHDhkJy0fMDwQgADq/YLwGNExWKIG0eQ2tDNhdYCfQGXHEu/pDMC1xFiGJG4+mV6BLA35p7mWcJ/s/JupBEv5r3rycBYyXggUlj5enVloISADShLeAhjwmQ9IJa6devn/r9ySefjJg9RDvWjHe0P/hokl3HjkL+YeTSsGHDhC4PGMWXziv2SgDgwoYEt4XQlJmjR49WY/z000/HDO7atGmTiv5mTpCyNBGNpr2SsPfqAHHcCggARIbQJ4XbwNrbSu/qngQKS8ADk4Vl4v3iSaCQBHjIaxrIe+65R1g08W9C88ICjEnQjtKqVSu16NiZro2sKSx8kLTHW3AjQJ5esU8CzGUCzqB7wlc4XCHHNGMczY1j4MCBym+XzQ3HeSAonCT1/QZdEuAdmXN/JENVpu+K3lGeBJKTgAcmk5Ofd3aaSYDsICyW+DeVKVNGqlSpIgSj2FHI1oMpEa4+OwvUMcgDUyhuAfGUxx9/XGVAiecc71jjJABv6IMPPqjItKNRYcEz+dxzzylwE0pls337diEdKcAHKiHPPGvM+BCo9NNPPymfVTatXbt2jakZNubKku/mYFR9Xj2pLwEPTKb+GHs9NFgCAEoWTl52Zu7o0qWLasPEiRMN7mH81Q0aNEi1hYwp8RSAMPQoXrFHAlD/MI9//PHHmA1g04AvH5soTRM+cuRIqVSpkqqD4J14NxMxL+odoBIfaIGAjzzyiEAsb2ZhDGFZQNPsFU8CeiXggUm9kvKO8yQgooIQoAzCvwy/JihPrOaUZCBIR3fTTTc5xkSMG0C9evWU2R9OQb2lQYMGSqup93jvOOMkAGUPQPLtt9/WXSkgEm04UfhasAja+cmTJ+uuwzswfgngt925c2d1fwHmCXAyi2IJLTTPuGrVqlmmCY1fIt4ZTpOAByadNiJeexwrAUyC8DmyAGPqQ0OApobvmKOsLJp21E7NaGh/ifzFHIfpGnCppxA5DCj3irUSwN8Xdw00XWxM4imfffaZmvPMewK/7PIXjqfNqXJsaCpK/F3NKNrzZciQIWZU79WZghLwwGQKDqrXJeMlwG5d8wvr2bNn/gW2bduWn9mDRdYsbUH+BeWIP9Pdd98tlStXjhsIBNdjxmctUEOviezNN99U2l0z2uLVGV4CbIKuv/56NX/ioZOC+5AUmoBItJO8d+jQIfxFvF9NkwCBTQQ4IX8SFRD9rXfzprdRbDDIz07wjxXPNL3t8o5zrgQ8MOncsfFa5iAJaGTOkJeHFhbZZ599Vj3cmzZtajrAGz9+vLrWt99+G9oU27+TdxjzGAE5BAjFKu+8847qi9GLYazrpuv/zFU2IrhnzJ8/X7cYSP2HaRsAQypNNlFatDGpPL1ivQRmzpyp7jXGBA2/Xh5QvS39/vvv1XgnwtKg9xrecakjAQ9Mps5Yej0xSQKANm0RjbRLZyePyY/jCCoxM4MFGWOuvfbaAnyXJnU9oWrHjRun5AA3Z6yigfR4Ta2x6vX+LywB5q5GwK9Xc8zmoHXr1mo8K1SoIMOGDcuvGPBCBD+k5rg4eMV6CfCc0ThwoXcyEvjBNwpdFK4Q3mbP+rF12xU9MOm2EfPaa6kEMCEBEPEDjMWbxwNXM/PWrl1btm7danhblyxZotrDAu/kogVnzJ07N2oz27Ztq/pjJviO2oA0+hOTNHM5nHY9nBggpNfy05N3PpxJnPl4zTXXqOM838lwUrTmNzZwBOQxvmj7jbqfNG7d6dOnW9MR7yqulYAHJl07dF7DzZbAlClTVNQ2ZsHgrDexrkukJQ91zL2rV6+OdXhc/+NjeMUVV0Qkl46rMhMPJjAA7em9994bNZUeVELIymgTnYldc2XVI0aMUHJGa05kcLSClphxYZ4RHEUwRrSibbjQekbS3Ec73/vPGAlwD5HylfsJl4QZM2YkXTGuKtzHuPF4xZNANAl4YDKadLz/0lYCZJxgISXIJZG80/iR4ZeGmQgNjxEFgEa0NAuG2QUT119//RVTGxutHQQqsbDhexWpkLeZY6wmfs8LBCQv56AE9u8U/66N4t+6Wnwblopv/SLxrVsovrULjryvXyy+jcvEvy1T/Hs2S+DgbsnLPewqs59G5wPzAFyR0Qrzng0AY0KK0PXr10c7PP+/jz76SJ2DJssr9kkA6wiuCARYMYYff/yxwEKRTNGCfbzUmMlIMfXP9cBk6o+x18M4JQB4BEQCJjVy5jirUIeTCYSHOmZAI3yZtIf6ggULEmlOXOfAncliBKE4/nVEs8dbcnNzFTBBsxGJwkTzR127dm281es+Ps/vk8C+7eLbvEJyV8+SnEWjJXv2wORecwZJztKxkps1T/zb1hwBmYGA7jZZdSDaKrRUjMHy5csjXhZt5TfffKM08fAY9urVKy7AzFjjCsKcGTt2bMTreH9YIwE2Z1pQIJaVRYsWJXxh3Bvg1SXwyiueBCJJwAOTkSTj/Z6WEkBzw8OXh2e09HJ6hQOBN6TOcPr99ttvek8rdBw+UIDbxx57rNB/ZvwAeOzbt68C1QAEKEIAxPE64s+ZM0cBDHwowxUtYtTIAA7aiAbRt/EfBfiSBo56geecwZKTMVn8W1cprWe4/lr5GwARInnGb/To0REvvWrVKgnOsJKoawZpFaGTYZ6anaUlYme8P/IlwH3wyy+/KBonXBbQGgP6EylakA9zxSueBMJJwAOT4aTi/ZaWEiDABrDG4osfmFEFLUGtWrVUvV999VXcgIx2aCZjTM9WFqJ5u3XrpvjskEvdunXjzr383nvvqb5DaRRaNP9SAjmSKQpA7t8huWvnS/bCkclpHfWCxxjH5SwZo0zneYf3J9O1hM/VorCZc+EK/o2AeTTnuGSgJU5EAx1cN1pz6mJDZlQQSHD93uf4JZCZmZmfbIE87IkAQupgQxxPtqT4W2rMGUdcWHIl7+BhCRzAleWgBPYdOPLO5wOHJC87R/L8gYSexca0MvVq8cBk6o2p16MEJMDCClcbgAnwZHTZu3ev8kGjfoif49EQoGHC3ExkrV0BDmhs27dvr4ACfSDYIprZNFh+OPGTv5mAJMBpcNEybSTqV4oJGzMzwM0yDWQMEBmuHbkZU8S/e5Nli5cm14YNG4a95rp16/LN0vfdd19S7hzB48ln7drcT/FqskPr8r4bIwGeITzXsLgA9n/44Ye4nyWNGzdWPtsbN240plFJ1MK8ysvJlcDeA+LfulP8azeLb/V68WVkiW/ZGv2v5ZniW7VOfFkbxb95uwR275W8w9nevE1gbDwwmYDQvFNSTwJaAMGHH35oWueIkuWBDBiDauXgwYO6rjV06FB1DiYruwtaVjSNaCnoR/PmzXUFaZD2keOhTgouWiRwvJGnedkHVZBM9tyhjgaRhYDlwlHi25Qhef7EzI3Bsov0GTomAAOuCeG0g8wjfCgxfX755ZdxbWwiXTP095YtW6rxNmNjFnot77t+Cfzzzz/5VpJ4Aqy4AsFZ3MN6qaX0t0rfkWgTAzt2i3/tpvhBYzwAUzs2c4P4t+6QvIOHPHCpY4g8MKlDSN4hqS2BHj16qIckWhyzNX/UT4QlD2X81Hbs2BFTuPfff7/KKJNsVGbMC8VxAKYyjUsS4AJfZDR6H/pNgAaakWAzm0ZZM2nSJF1Xz8vNVlHW2XMGuQtEhmoz5w8X/5aVgknOyALYv/nmmwWC8dCgJv6rX7++mns1atSQhQsXGnnpAnWxcdLy2E+cOLHAf94XeyWgUT/xDMK/lY2eXg3y888/LwRoRbvXjeqd0j4ePKw0j0p7qIE8O94zssS/cZvShBp9zxolL7vr8cCk3SPgXd9WCQwfPlwtro8++mjSFBrxdEQLPLnjjjsKLfrB9ZDGjod+JL+34GPt+ExKPi3Ig4WJiGBohcKVjIwMZSbjeG3xIqiH/sWKdsecTUCN6zSRoSAy9PvCUeLfsTZfHuHkpvc3fH4feughpXGEIzW4oAE2ki4muO5In4kC1oAtZnWvOEsCsE1AF8X999JLLwkBVLHKrFmz1PEdO3aMdWjC/+f5/RLYseeI+dkO4BjrmhmZ4t+yQ/ldJtzJFDzRA5MpOKhel/RJAKCGVu2uu+7SlUdaX636jwLIoqkjj3Uk6g7M4bRRjwZT/5WNPRJgOGHCBMH3joWJtG4E1qABCS2fffaZOkYLcEIjyTloKCMVfA2zF4xwtyYyFESGfM9ZOk4Ch/ZGEoGu37V0nsG8nswbTYMMcCCfs5UFwAI3KnNDr1uHle1L92ux8dNSmvIcipVnnXudIMXy5cuHdaFIRp74Kvo3bRMffoyxAJ1D/sfkjt+mtjlOpv9uP9cDk24fQa/9CUmA4BEeiKQgs1NrAqBFo4cPG4AsuECXA9DSk+M6+Dy7PmPKhjBZ03bwzvdg1wEABfmcWbgI6sFXkj5q4DK47Xm+nX1vGQAAIABJREFUHMULWcjvMASIpcz/cwaJb9NyycuL3/StabrxYdUKwAA5I98WLVpE1Bhrx5v13qdPH9WGN954w1t0zRJykvXy7IFbl7nCpoSAwUgFVgaO6969e6RD4vodX0j/+i2uAZBhge7q9SpiPJ1BpQcm45r23sGpIAEItOHDK1eunDghqwPE6DzICYiAIFwrRH3z0A72MdT+c/I7Gkk0k2goaT95yvGb0x60mmmbIA3M5BwTmrLPv3ujZM//I6W1kZFAMGTogUN7dA/x5MmT1dzBBxdTN6k/mzRpouTKPLfbZ5Fxh1KGcQ7WmuruoHegJRJgc0e6VsYJbtxIPLuMJ5pmXBiYb4mWvNxc5YcYFpw5RPMYd9syNyrqoURl4ubzPDBp0Ohxg+HrAV2B4rCCx0p78ZvHaWWQpJOrhh03Ua6Y3uxeZIN7QtYduPl4kMP3t3XrVmXebtCgQfBhrvpMJDE+lIB2+kX0qJa95+WXX1a/EVnMf4BPClo50hlGAlpp8/ucweLfEdvPMCsrSwXbsLDjo4iGCQCJTJs2bRpXTnkzJ5fmzwkLANp4rzhXAn/88YdKA8scgqs0lM6Llmu+5r/++mvcHSGABTqfuIGaiwCmf91mycv1xS0bN5/ggck4Rk8BRsVttf8It9WGrYqfSkWa6fHzyOe02iT+DVvFv23nEdV4ri9faxNHc7xD45QAGjMtWIQIRqcVNAOQgvMQh1yY93gpc5zWJ9pD5CfR3viH0if4B9GmlS1bVgFmfkNjhVmbDDJpAxh1mOt96xZFfDYA1mvWrKlkCEDTspTo8X2zY57AT0jbeCWS796ONqfrNdmY4K/NvYlPubYJ1OQBbyVuLLz4rLfkHTp8hA/SRcAwYdCbkXmEtzIvT694XH2cByajDJ8Cj0epCY5wW5noGLwiS9jNBLbv8khTo4xJon8xlvhs8XBEW+bUAv0PkZW0k+hbJ9EBJSuz9evXK15K+oZJn3ft1bVTR8le9KcHJMMAzJyMKQpoB8uf+axpdwlq0vxUCbZxcrDW9OnT1dg/8MADKTW3g8cmVT4zx3A/wZ8bjTKcpMFBdaSH5f7FLzpWSQdtZCTQCXbApJ/qxQOTISPMpCf1kooqWxEnm76Ru62Va48w8u8/KHmB9NjZhAyFoV8/+eQT9eBzQzDLTz/9lA+y0FSisUylgo8o5nsNSPLevMETHpAMAyQ1LW3O4tGSl3MsexDULMhNi6Bn4xEuiMmJ84bsK2rMmzePqHV1YrvTtU3B2ZLwf4bii4LrAu4VpIoNDrILlROuXyo7jZHro9vqWp6por5DZZNK3z0weXQ0HU1LAGEqvFY5qb+7MePm+vHHH9XiBYBJNvewGe0LrpOHcvXq1VXEc+fOnVW78aVMRbMgtDEaoHyrweMemIwCJgGVOYv+lLycgwqAPfvss8pNAPk999xzyl8yeB45+TMaLy1ASPOVdXJ7vbaJem6S3AGaMl585lmqJXwYO3ZsWDGRFzvuFIduA4pxtNe/bVfKbqDSGkwqLeSe/eLL3OgaZ2DFa7XP47UK++QK8+PIkSMVYCHS1Q08d6NHj1bt1aJeie7GJEy0Nxq9VCqBvVvl8OxBMqpbG/n507c8MBkDTCot5cJRQipJNOyYHxMJgHDCHCKoA60qgXBsKrziDglAqYZ2kk0MGa14JqEVJ+kDmwSt8JnUh5FMv+n8OzRIBOSmWklLMKkm+q694lux1r2TfdU6CezdX+AGTrXJmWx/yNbALhpNnxXpv5JtL+fzUA4lBCZCF+AAH2WqRMIG9myR7DmDPQCpB0CGHrNwlOzdvsVWflQj5jrm04oVKyoKKVI9esUYCeAbfu+998oTTzyhCOvfeecdwc0HlgjYE4jWJkMSiRIYA6ikopmpQ1uF3yT+k/hR8lzC1A241AjxWV+Vm1gcGru0A5er16dctHdagUkFIvfud26apkRuvjUb0pbXKvQhF/wdwm/yExM5Cn2KG8rcuXPVQ/nTTz8t1FzyKNMXIqKh5XBzCRzcI9lzh3hAMhQkxvE9Z/Ffkud3v9sLoAZQ8sgjjxQI7nDz/La77a1atVJa31tvvTWflktzJ4n2DrBn440VhxzugFLqAjhiKYEB4++//1aaZPwmsaJwDa1ONM0KSMJykshalm7nrFqXUoAybcCkoiTI3JCyk1xFjGUXTl9n94PNjutDa8FDDuoZQJhbCpQ5gMVIWpq1a9eqhz0Pb80M7pa+ae3Myz0s2QtHekAyDuCoBeGEvueumJISlonvvvtOARI3BMdp89hN72gSybtN8gM2rGSwIVird+/e0qlTJ/noo49U1huogLCM1KhRQ2mLcUHQgKLe90XjJqbUGntoUYZ0bf2x3FH5FrmpXHlp+WpjObBwmXF9VIDS/ZtC7oeUB5NpRUmwfI3yU2F3mK4F7j12yPgZjhs3zjViACiioYFoOlqB9uWhhx5SD/l27drFZZ6KVq8V/+UF/JLzz3gPSBoAJDVg6Vvrns1SpDnG86pRo0ZqTvft2zfSYd7vFkuAceF5Cj/oP//8I9A6kaITuiBSKX7++ecqTac2dgDOj5u/YxzQsllTuW/+P1KlQkUpUqRIgVfT5xoY28eV61IiuDalwWRaEaQG33iZG1X2HYufPbZfLjc3V5555hlXLkpkmuBhzEM7Vjlw4EA+oXDjxo1dYR5kYcpdM9sDkgYCSQ1Q+retiTVlHP8/c5rMVGjm582b5/j2eg08JgHubf/GbcYCrOD1zKbPHzZ6swCI1EDl1ZdeZnxf0VD6/ceE6sJPKQkm1eTetsv4AbdpUifkf4KWctfelDCD6bmvGHO0egAyOPjcVOCRxCT/9NNP6242wFnL3U2aQtJEGl3wkerXr58h1ZIaUAM/3vtAY2UxZ7AEDu8zZJzsrCQzM1MFn5EOctu2bXY2xbt2HBJIxajtPXOXyAnHHx8WTN5yfUVzsEXWJlev1ykHJgm596/fbM5guwlMHm0rUXXpQHqOyQUg+fbbb8fxGHTGoV26dFFtJ2o7ngKA/uqrr9S5RG/iK2pkgb+QyPLgrBeJ1A83Yva8YcYCKBM0fG4GuTn/jFN5zRMZHyedgz8f9zG0M8nOOyf1K1XbQoKPhJQdDl9LB3XpHhZIop38pJl5pny1XrvUTS2lwKTHtL8m/I2dtVHy4sif6rYHH8THLECAn3jyxDqhnyyYN910kzLxJdoe0prhb0nQ0YoVKxKtptB5cBgi13hBbnBFAF4v37bBmsgIQNq3MTV4SDWyflw/vOJcCZDow7fcxBTDNgLOZs+/GBZMFitWTNZPmhl+nTWovYEde5w76FFaljJgMnDgkPgyUnNiG7LzW7lW5fyOMhdc+ddff/2lgBS5fvG7clvBjAxg69+/f1JNh7LjmmuuUQTCRpFAEwFK2+CpS7T4t67yNJIRwJ/xmtBBEjiwK9Ghcsx5cB5qecch7feK8yRAYKtv1TpTQZUh616CAO/2myqHBZMP3VXTkj4T7+G2khJgUqVsWh5BK5fgZLJzIpt27YyslAKU0FwAoKpVq+ZKHyu0djVr1lSkv0aY9AhcgCsOonaiLo0o9erVU3yd+GjGW/JysyV77lAPTFoGJgeqaHnmldvLvn37FEUNcxlyba84SwL+zdstAVWmrYUxcMGlF18SFkxO6zfYmn4TkBNwV5Yc14NJBSRjTAy7JqQjrwugPJTtrCdTAq1ZvXq1Ak6VKlUSPruxYD5G89e1a1fDmo8sbrvtNlWvEXmPNReCyZMnx93G3LXzPSBpIZDUNJ3+nevjHisnngAvIlmfcN9wSwYrJ8rR6Dal+pqb+89qOa506UJgsmqlG60BkkfxDIDdTcXVYDJVnX9NB6EZmeJGNbp2YxHpiTayTJkyioRX+91t70Rvk46MaG4jy9atW/Pz537xxRdJRQgS1APgjZdQmuji7NmDPDBpA5jMJn+3y7QakeY/bizMPxgL3OYPHalPbv4d+hpXpyHWoXjaOn1eISBJ4M0f3X+0FEyCA3Dfc0txLZhUPpI6JobpwMytbQBQujBjDn6R+EcScMJC49aydOlStUiaFWQA2bDGudm8eXNJxEytyfaxxx5TqRzjWcxzV073gKQdQPLoNX1bjAvE0uaBXe9QfQEoyS/tFXsl4N+U2uZt8MLcISMKgclrLr1c0FhajicgNHfJxtCVYFJFbWdkWT+wbgWOkdqNX4bPPUSpgBkitllYjDDh2vlYbtKkiQLE69atM60Z+GFyHeRFrl0AZiLlhx9+UHWQAUNPCezf6QFJG4GkMnfPGyZ5fp+e4XL8MX6/P5+kf9iwYY5vb6o2EOWD5WAq0tpl4u/Dv/uhEJjs1b6DbX2Hx9MNxXVgUqnZUziKzPKbFdqggDsc9t966y0FauCUdHPZtGmTkPf2tddeM70bRMa2b99eyQ2NbiJk0KRTA5C2atVKV3tzV8/0wKTdYHL2QPFvdacvcbhJtmfPHpWXHtcWPVmiwtXh/ZacBPzr0oO/+bs2nxQAkxf++zwhR7fla7MGmLEiuiA7jqvAJFGK/rWb7BtUbXBT7J1UWE6PANVMXc2aNXN8W2M9sjHXAc7mz58f61DD/u/Vq5e65u233y5r1sSffu/hhx9WUedoiaKVvJxDnq+kA4Ak2smcxX+5/l4JnmsZGRkqUxRzeNcu91MgBffN6Z/Tya0sNI1ih3db2o45/Ft2OH2KiKvApH/rTtsH1bbdickAltSLTi19+/ZVQAgfwGR8/5zQP0zNRKjWrVvX8uaMGDFC0QbdcMMNsmDBgriu36NHDzUGsTgsfRuWeFpJh4BJAGVgj7FZkeKaNCYczBzW3DZibWxMuHxaVomiwbdmQ9qsvQ0efTxfM3naKafI7jmLHdF33PucXFwDJvMOHnbEgKYqmCSTgRMn69ixY+WKK66Q++67L2GfPyfdgN9//71aDEePHm1Ls2bOnKlSJGIuHDdunO424NvJIt6mTZuI5+QF/JI9f7gHJh0EJnNXTI04Xm79Q3PbgKnAK+ZLIJ20kqzvtW6rng8m33v5VcfgDqdrJ10BJlOdbd8xADVzo6PMYmjPypYtK1WrVjU877T5j+DCVyCACM68O+64Q/BltKtgLrzllltUANDvv/+uuxn4XHJepLbDb6hxHXrv1qRQ1CNnXA9SqXAfaUwFo0aNSqWuObIv/vVbHAOorFgrr7vqagUmS5cqJRunzHJO35XvpH3rRqzJ6Qowmeps+1bcIHqv4ZTIsaysLEVHU6FCBVm5cmWseeyK/4lERbvXp08f29tLENA999yj2tOpUyddm4hu3bqp48m0E654gTfOAZDBIDOVAnG0eYfPJOT88LQamY9eq997PyIBxZxisouV3rXJquPOOfNMBSZfeqyec4Dk0TFwsjua48Fk3sFDjhtQqya1Xdex29y9Y8cOFblJKrVZs2alzHMdzR4Zew4dcoamiAjZJ554QgFESMlj8UgSuAMYDsf3h/XAS53oTDCZkxF/9iI33HRwtZJOFU3/3r3O9fl2gywjtRHTql3rkB3XJWobgvKiRYvKsj/HOa/v0Pk5NF2qo8GkcvzNTB/HXztunnDXxKxhVzl48KAQOQxoGTlypF3NMPy6cDTSJ6LSnVSys7OlUaNGqm0vvviiIP9o5d5771UaodAHWmDPZs/E7SBfyWDNZPacQZLnc7bzfrQ5F+2/IUOGqLnboEGDiO4X0c73/ossASjjfGnG55w5fqoCkw/XuMd5QFLTTjo0K46jwWRgz37HDmg4EJZKvxHwZHUhOpNFAdD1448/Wn15U6/3wgsvqEjq7dvNz7cKWXk8Bbl/9NFHSu6PPPJI1DzI33zzjTpu0aJFBS6RmznXA5NOBZNwTu4wjxy/wESw4Uvbtm3VnPz6669tuHrqXtKJObhJdbh33tK4cQHZa1aPnSwLhv0p++b/E/H8XXMWyYgevSRrwrSIx9i9zjs1Z7djwaQKulm51rEDaveEMv36NgTjYGqNZEZ18yN71apVql/vvfee6d04fPiwitYGFJJuMlSDGKkBHKfR/9x5550SKTMP/quMUShxPPmgC2jDbARWm8f2lh8/amz4a1H/To7pY7yyzl0zO9LQu/536MLq1aun5uWYMWNc35/QDrA5jHQ/hh5r5Hc7UyceXLhcpTUk80yz51+Uu265Vc47+xylNaxZtZpkL1mpCxsAIvt3+lbKXHaFOhcT9oknnCBt32xuT3pEI/xPV6zV/Vw3cj7EqsuxYJJAENMBkxEDm8J1BPYmln4v1qQL97+m8XrjjTcceaOEa7Pe3wCRADBApRXlyy+/VFyWXPPuu++WQYMGxfSH1NqF2ZDsPDfddJMsWbJE+7nAO3VWr149f5zycrMdBbK+eqtB/sLB4mHUq/8Xbzuqn/EASgjMU7ngZ12lShU171evTp3MP4xZ79691fODzTZ+zlYU5WK2wvqUxc89UleuvvQyKV68eNT7tkn9F2LiAwAp9UW6/8f93DdmHU7FIHmHrLccxpp3jgSTRyayp5W0fSKv2ZAPGGJNpGT+79+/v3pYol2I10SbzHWtOBezNoFEmLmtLCw6Xbp0URHxgErolViU9AT/TJkyRcqVK6dekycXDt746quv1Hhpae38DvOXrHr9NREXkEgLS6zfWzd8wrVAUgOdef7U9JvU7quFCxeqe43NTqJ56LW6nPTOM6Rhw4bqnmOTB3G7XotDov2wi9f5hUcfk/oPPypPP/Cw3HJ9RSlZsmTYe5kAmYXDR0cEgztnL5RbK94Q9lztXm/zRrOI59u+9sZQUpHAxWnFkWDS85Vc45hJbrbv5IQJE5QmrFatWikZkamlgSQAx44CePzpp59U0Aygkuw3gMxYGg4iZW+++WY1NoMHDy7Q9GXLlqmFDQ0oxbfxH8cArXWjf1CRmNqCYcR7s2cedEz/NGCYyHtg77YC45iKX7SN6SuvvJJyATm4rVSuXFndewTLbdy40bQhdEq2Ofwj32/4WlhQ+OCdd4ddJ7fPXCDXX10m7DnBz4NuH7ULe77TgaRq3+r1po19ohU7Ekz6Mje6d5Bj7ChcMVGD+uDfsDXRuRXzvMWLFyueOIiwN2/eHPN4tx0AkIMKCEoguwu0P4DCmjVrqsWIlI6ffvqpbN0aeXzx07rrrrvU8XBMatoQ3vGr5D8+k2UlEXBjxjmd3nkx5iISvKDE+tywTk05PGuAY/qXjMx8mzLsnoaWXP/DDz9Uc/bbb7+15HpWXmTfvn2i9Q+OzV69eokZaSX9azc5ag1u/sJLhe5rTOEbJs8s0M6cpasEn0ru61NOOlnaNX1bvm/3uTzz4CNy+qmn5tfxyN33yP4Fywqc67a1Oc/vLAJzx4FJfAHcNqip3t68XJ/hz0uACiab8uXLy/Llyw2v3wkVQk6ONhCycisK14OIvFmzZioanjzaBw4cKHBpwN/ff/8tBOjQNkzw+GJBEh+u7Ny5U+rUqaOObd26df7CRSo7ziebTvbCkY4BW7dVOGLiLlmihDR6/F4Z9OW7MrV3e5nx8+cy65cOMvvX6C+Over/LlSLzlP3VpNDM/s7pm/JAEnOzV2dOpyt4eaq9huuMnXr1lXzE8tHKpY5c+Yof2juQajUsBYYVXhG+DIyHbUOE4F90Xnn54NBbRP45XsfFGgn4JH/LrngQlk+enyB/+CQXDzib1k/qSAAdev6TZpLJxXHgUn/xm0FJoBbBzqV2u3ftsvQOQtAQasFkLHL/Gtoh8JURspByJRJnxiLDDzM6Qn99Oeffyowefnll6uFlIWGFz5kTZs2lR9++EGRwGv+ZDNmzJD69eurY8h/3rhxY9H8IIMbgIb15ZdfVse99tprAjclWmXqJntO9uxBjgBcmon7hONKy/ieH8fdpoMz+snDd9ysFqMHb79RDkzvF3cdyQI+M8/PWT4xeFhT+jMad0zC119/vaxduzYl+wpo7ty5s3qOcv/CsACbQ7IlLzvHkWvwR280LQQm7771tvy2LvrjLylVspSc/a8zHU3tYxQ2cEq2Om2+OQpMOnFHFDrwqNFDf9P7/cDCZXJ48YqEz9d7HcOPM9A/g4edpukaPny4Ng9T7h3/JsDW999/b3nfIB6fO3eu8pV86623BH/UUIBZo0YNadKkiWof+bnxMdOOee6552TmzJkF2g0gbtGiherT448/Lrt375Zq1apJrXvucQzg+ubdI6awRKKu0UA+fd8R81iNm8vLvml9HdMvowBmzqLRBcY01b9wD1x11VVq/odq6FOp70Sva5msYFmYOnVqUt0L7NnnyDVq/tBRhcDk8ccdJ6yrUAXdcG059f+onr0d2X6j12UzXdASmUCOApNOIkkFNGb8NUEGdv5OPmz0pjx0V0257OJL5LRTThEmtd6JgV/GF++0kIvPv0BNdHZO+GtsnjZHdx16r2XmcexWky349mhRiXAapnLBzIZfoqYFtLuvaBfJqf3zzz/L22+/LWSyQZuhaS95BxyyGGm/Yz4bO3ZsAV9JNCEci+8lmkw+Lxv6rSOAV7WKZeT2SmXjbgs+ka/UvUfdn7eWv1p2T/417jqMAnym1jN3SP5Y2j0frbr+r7/+quYocxVlRaoWLCFsCtHEck82b948avKBaHJwagpFOCP/fdbZhQDl6B9+ls/ffl/9Dielmeugo+pe5axEBI4CkzC72zlYMwcMkwaPPi43lrtOEZtqfhmh7xf++zzZNHV2zLau+Hui4swKPZ/v991+R8zz7ZRF6LUD23dHe/7o+k9zHCfbSioXQBsP9HA5rJ3UbwDm/PnzFcB855135L777ssHkrRfe+HXihYTjQcBAP369StwXKf3X7UdfAEIf/u0mSwb0jXutrxd/2G1EFW8+lLZPqFP3OebCgANJn9PdXqg0PsLAKnxvPbs2TP075T7vm3bNoGrl3sX5gZ4Y+MF0aTTDX3+O+X74/feXwhMEtV9XOnSKoIbbkmntNWKdsQ7tmZOeMeASYTis4EkNXjA+37VWapUqKj4qcpffY2UKFGi0MTVgOGLdZ+IOmkn/zZQzjjttIjnFytWzF0M/JkbkpqHRAPzgHv11VdTjrIjVDD4FUL8vWnTptC/HP8dN4QFCxYIwTz4WRIkpYFK7R3tJVpX7TvvbgJUwW1t+9qT6h695n8XCZlzgv9Lxc+Bw/scPweNbiA+vmjZceNI1gRsdNvMqm/8+PGKW5Z7E7/oeDLo+DI3RF3bgtdMqz9D56OtwaHvKIOsbo/d18vz+c2aQnHX6xww6cAobjiuAJg49IZOXMDgsj/HhZ28f/f6RU44/vhC5wTXcerJJ4c91+7JGe36eb7EorqhpOGhhq8dD/ZULjy0WbTQ5KVKwT8SLWuFChXUOAKUNf9KDVCuGP6d64BYx+YvqHv0f//5t6z983vXtT8RsBs4mLyFwY3zmo3djTfeqKi61q93HkefGTLFT/Tjjz9W92qZMmVUulQ9wYA+B6cxJkI7eB3VPmNRjLZ2pep/eYeds546BkwGdu5x7GRYOnKMlC5VqtAkhvsqdJJy7EknnKiOJR9oi1cayfN16so5Zx4DpLD6d239caFzQ+ty2vfAvoI0M3oegGRTwQmeiGJASaoX6HMAWJB+p1ohB/LAgQPziZPp5y033ySNnn5Yhndp7Sow1uPDI0TI/zn3LFnpQiCcCJDknMCBXQLZ/HfffacyIvXt21fxj5JVhbzWZDyCUopsMlB2ZWZmKg07DAz4/+oBI06d9wSV4Q98//33GxL17NR+hraLscSFhfu1du3asmjRotBD8r8rC2EQz7DT1iD8Js8/59xCa/GIHr1ct54aIVviTJxSHAMm/Ru3OnoykBhe2wVp7+eedZYER3cTbENeUf6vV/uBAqSoHDf190EypGsP1wXfaJM+3hRO0MxgDoWiY8OG5MzkTrlhorUDsAyR8NNPPx3tMEf+B80IGht8KIlEJ3AB2p+WLVuqoCl4KW+77Ta55ppr1KKkaSTVAnVnVdnloqCVXz9tprLknPOv02TJoM6uAsGJgkjtvFmTxhUav+Cx1PMZQMY8h5CfhAO4PcAY8NBDDynrwzPPPCNkaGnUqJEKBIHHFD/p9u3bC6k4IROHpuqXX36RAQMGCKwOzDk4IaGrYg7y7CCXPXMSP0B8dZmjyfqIaXmu4WJNti5H3sgRGsVGkKBHNJRYFdq1a1eIg5ZTMZtqz3unvrO2amuw9v7Ba284vt1myDOw2zluK44Bk75V6xw9Gcj1iZOvNnm199mD/shv99svNswHksEg04xJZEedZEXQWwCPgEjAZDjuQr31uOm4rl27qoXaKUTJRHiS1xdC40mTJsmgQYOURgrTF076Tz75pNIYaxGgkYAEwAHOTNwUAAialoPjq1WtIrun/OYaQDbkq/ekRPHicsapJ8m8vh1d024NDCb7vmH1cgUA2RQQSAX5NX6E48aNk1GjRqmADaKCifonYIXo/Q4dOig3h1atWsm7776rXDigkiLf/FNPPSWPPvqo0vZhfbj99ttVGk7mVLiNR6Q5Fs/v1Ev9pPvkelwXbSPtoD20C99sXE1oL+3GTYN+0B8yUnE97gECVOg3/UcOyAMO1RUrVih+yi1btiiLCsFqZmSasfr5Bufms88+q/rP5jD0WZWXk5u/ntmxxui5Zve2nxZah2+/qbLj262nb/Eeg0XXKcURYDLP7/zdEINc67bqhSbxx03eUpN4xoChgh/lFf/9P8HXMt5J4YrjM7J07ebJ+8wDHvM2Zu50KGhNWNygzDFb44G5cc2aNYqAHPMkKdXISAPlz/PPP69MWbRFo/gJt1AzNmiVHnzwQWnQoIGKeMX8CYhgccXUSVacYH4+FlM0S9SL/yQk6f6tq1wDyEZ3ay2lS5WUk088Xqb99Jlr2p0sgAw+P3Bwj5o7RPoCyMzOPsW9wL2BZhENI5pGNI5sMNFAookE0KCZREOJphIy0yAEAAAgAElEQVSNJZpLNJjMNzSaaDbRcEJ5w4YGzScaUDY4aETRjKIhZU6jMWUDFOrXG+4+iPc37hs2yMivatWqKvkCmysCfOB6JNgF+jOAKhyvaPbbtm2rCMXR9ONewP3622+/qc3dH3/8ke9eMGvWLOVewOaP+5vc25p7AZpFo54r1AOIpg8aqGbTSXEqYXnw+jil76BC6zAxCq7kcE7SpcBJxOWOAJOkBQqeLE79/HWLVoUm8W033CTQEVxz6eWKfX/O4BGu6EuiMmbnGq0QYMMDnocUgTfpUvr376/6jLYnkcKCy+KBfxO+a/iyffPNNyoPL1ogtC5oYcqWLauuE2kRrFixogK0mNrRzKCRQcPE4oHmhfSHLFDxLkxomh977DF1bRZNLVLdv2OtK0DZpB8/kROPP06OK11KxvZo64o2B4NAoz7nZR/xsUL7Vq5cOWU9iCfSN5G5bec5+Hiy+WLOM2fxAQVAk1IUyisANfcumzKeV9x3mMIBfYA/Nmlo8j/44AO1WQMkAhYh9q9Xr55KSwqYJKMX4JIgH8Am2b0i3aOJ/g445v7nHtfcC0ifyoaQezPYvQAzPuAbH+5PP/00372AJAowNdBn+klbtfbQ18DhbMevX88+VKfQOoylEIVOouuaW8/zwGTI0wW7vxsGk3RNmnlbeyeYpkn9I1GhHd//0BX9SEbW0fKBYlaFFoeHE1qFdCo81KHRARRqBcDGIsbihYaWxQq/JQAeQA/AhwZXi5LWHuqh7ywgAEmI0DHfYbbDXIc5ElJxACgLZfC1tTYY8T5y5Ei16KKRBOAGm/sCe7c6HpiRj/u0k08U8nX/0fkDx7fXKOAYrp68QCB/SkybNk2BHjR6mmYq/880+MDmCoCGVtEMlgmeh5jH8aXGXA5oX7lypSxZsiTfvQAKHzT8Q4cOVW4HmntBly5dVKAUzwoAoeZewP2PGZ9nB88DTPaaewFuRTxL8IsMfYbo/f5qw4Yqm0wya4SZ5xLNjQVQW3+D3zu82zLl199Q2XpgMuRBFdi+yxWTgEiycDRBTGhSOaWin2ShybsnssNvmzZt1EOMXXwqF9IVYgLGFIxJmP7ysObBzoOedzQHUOhEeogDzHj44+vFOZCGoxlAW4CWBJMXpi47M+jQT43wGf8q/MlCS+DQPkeDs0X9O8lZp5+iFqBE0iyGA2Su/W1+4fSlABkAFVG+mKLTrbC54x5lnserrXeyrOiL5l7ARgHLAmkXMaFr7gU//fRTgWcU1o/d2+xNHBK63gR/Z/3F1QwwGY68nCx1wcenw2fPZzLkLrQ78008k65OzVphd0XpomKPtBPClMpD+eWXXy6guQoZasd+xSdp8+bNijYDZ3y0fmgH0AqgbcWMhAYHX6xIAJHfMZuhKSC4BZMYJrLu3bsrrSS0KzzMd+zY4XjidnzayN9Nn15//XXZu3dv2LEjo4pTwVXGsG/l/LPPUPdrrzaNHdtOq+SXs2RM2DFkrjPOmG3N0NCFvahDfgR0aWlB8WNMh4K1BB9UbbOLSVxj28jL9TkWkA34ppu6lxs99ayM6f1boXUYRQ+AM5713O3HBnaFfy7bMY8d4TPpX7fZNROg84dtCk3iCteUdU37k715AP6hBcd5FqM6deo4jr9t165dKjITkxamJHyG8CHiAYqPEeZpHPZpf6QX0aPkraZ/+C+iicSfisXnxx9/VOcRGGCWmTlU3mZ+Z3GlT/h8YV7X4wOaPXeI44Ba5qie8t/zz1H3aud3X3Jc+6wCkMHXyV0RORgOtxTmP/6AbuaSTOTeQANPrnqCa0iFmqoFkzvjrPlJ8vzD5B5cuP+TXSPMOH/3nMWKX/Jfp50u22cuUEGu4czdkRKJmNEmJ9QZ2OfxTAbPX/GtcW76ptAJs3jE34XAJJRBhxZlOPImDG1/st/J2xpcpk+froDHnXfeqfwDg/8z6zMPRfyP5s6dq/yN8DPq2LGjcjgnypPozipVqkR1gse0h48jzvM40xN5+fnnnysgRYQlUaZEncYy/ZFykLqg3HB7QWOKyR1Qgfkds5iekrP4b0eBtQ1//yhX/vdCdZ+2f+OZuNtGNpwOzZ6X3Xq5M6d/L5M+fESeuvn/5P/OPElOKl1aTv3XWXJ1+ZvkldffloUTBsbdhmAQaNTn3Kz5EYcTEIEWnbHHP4/v6VS4f7Eq4HqydevWlOo6Ps5EyeN6w/gCnCdOnBhxjH0r1jpuLXvz2SNxCd+2bpfftuuvLlNoLe7Z7rP8/+Nd63JmjpLf36gr95S9RP59yglSutQJcsa5l8mtNV+Qrj9Pl8NJRl7H2x49x3sZcEJuVadzTAYPKmr04Gw2mgPwlL6DEp7EwfU7/XMw1ySBJUREAsqSjQjlgYeTOjtlqEKINmQXjTkGMysR4gBWbVfNQzHci/+JrCTiGPMVtBzkBSdzCw9QzLdQlAQHkYRMR91fMYtjKsIp3u2FACHohJApoCIeLWvumtmOAEuArq3jf5LrrvivWmRaNHg0oXY1ffoB+b8LzpXDswbEPH/f4GbyylUnSbEiRQotbNqzodTZZeX9Lj3l0Gx7QaV/e2bUaUrACBp75sBnn30W9dhU/JPnDn0nsCWe+e9UWbAh4JkHeKRfgElAZaxnn9Nyc0/rN1glGahU9toCwUGvPflMoXuu/sOPRlyHUfhEMoPv+L2F3H9hYR5p7R4uUvxMufXV32TL0jUR67dj7U40xbEZc9YRZm7fSmcTlodOknB8k+3fetdRkyy0zYZ9zzpCXA6QQvuHD2G09FxwTqLhQ4OJORz+OBYqzMKQ5/Kgg+8M7R4PvHAvTK7QbhB1iU9mixYt5Ouvv1Z8dPDTYZoCzB4+fNiMeyRinZjLaS8aUrcWfEW1fkBrEkpirKdfTuGa3DnpF7n52ivUAtO4Xm1dYDBU67d5bG855cQT5M2n7o8JJA8Of1MeO694oQUtfwEKBpilz5f6n3W3FVAGDsUmOGY+wDvKvCY4Jd2KlngAxgQ3FzblmLEZRzbYbKix6OgpWJ8MWy+S1OZptHvwSIaasH/98ptC996lF18Sse2vP11fwgXpHBz+odx1BhHixeT40y+Ua8peLzdcfr6cWiJkg1j0TKn98STJTrJPRsrWSRYEh4BJ56nVIw34pqmzhYkdumDUrn5nxEkcqS5X/p51hEgX7R8RyZiXIRkG3AHyAHuAPsBfLK41QCRgElAJuIScGJ/GYcOGCbQlgFDAqBMLUdZoZYmAdGuBcw+OOhYcyJbR2CZSAgd2xgReoaDN6O97p/aV6pXKqvvyhQfvTAhIHprZXx64/UZVx4Tv20Xv08xu0u3WU6RokSJy/Hll5KXX35TRv3aVzD97yNKfWkjXZyvJZScWLfCcKHpqeflmcL/o9ZqlvZw7JKJZM3TMAR0aVyyarHQqaGfxi+aewDritkIgjaZdxmqCZYeAm3iKkwJiX6n3tLqHvmvzSaH1NXP81AL3l7Ymr5s4o9Cxk34dIMWLF5dvPvio4H8Lh8oHZY6X0udVk/c7/CFblhzTPB4Y87O0rX6hlA7aFBY75xEZPOvYMbau4Sud5Vrlgck4dxnNnn8x7ATGMTiSCt3WCRdn/2K2NWujMiPzsA33gghZS72HeZqHGeZqHsxovdgxY852u5M/oJf+jx49Op7ntGOOxezPWAH46UsyO9y8gF+y5wyyByTNHij7p/8u91WtpO7Lx+6uIoDCeMHq6hHd5Yl7qqo6yNkdq469Pe6T/xUvIRdXayAzxoc3X+/4+Xm55+xgTrxi8p8HW8hOswBjlHpzlk2Ia+4Rvc9GD4sBBN/pVNgowsjAvQGHqxsKm24249oGnixBbBYTKYHdewsCLqPXEJ319fnia3U/3n/HXRHX1gvO/Xeh9finzzsWaP/GKbPkvLPPkfJXXxOSJWelrGhZRc69/EkZNG5FgXPy18HFY6RTlTPUplGB1aJnSL1vloQ/Vme/8utO8vjQ+IVExtrIc5wBJh2el1sbfAhTS5cqJVUqVFTZbrSdkPa+ZOQYR0wyrb1mvOMzCRciOXAJfIGnDv5BHNiJikyHAhBG8wpVEJoMNxUWyjfffFMBYXxQyYRiRMn5Z3zcAC5ewBfueEAfAFK7B28se7ncct1VUV+Vy10pN5W9Qipdc6mUv/L/8umDtDrQbIa71rHffpM/HjxLTi37hMyYEh5Iasdu7VZLLi9+zFxW7KzqMjTGOdq5Rr771i+Ke5gJRIEsH4Ayc+bMuM938wkEn2EexpWHwDSnFnw72QxqiQ+gMEs2Ip2gDjPWjtA6R/boLddddbUCes1feEn2zD0G0sgkhwXw3LPOks3T5kRsz6P33Jt/72v3b7Ape8u0uVKxzLVy5ulnyOqxkwvWs2SMfF69unw+dFnB30NA3sF+DeXqfJN3Sany1iTJCTkmtG9WfIef20nFGWBy9fqog2nFwMS6BlrHu265VRGmzh86Sm6+7vpCk7jbR8cizWLV59b/oXFK96JRIQGm3VQWLFigwAEaVaLXg/NuJ9sP36ZlMQBYdNCVCHAiQAbgpy0iRr0P69Qiel+mt5fml10kb37/W/Tj0BTO7Cnf3nLCsTaWuEraD41fc5qIfILPCewrTOmlZ8wh5yfADmC1dOlSPaekzDGkNeVegX8TX1InFTaxPIegLKONuB3hP56MhUHrH3X4lmeauiZvmDyzkEKm7OVXyIJhf8rw736QU08+Wd0zAM5oa6WmvQy997u2/ljwqbzovPOVeRteymj1RP1vYS954RzNwnCc1GwzN/G6DAShgf3OUt44Akyi7Yo6mAYOQKLX+a1jZzW58eGgjqbPNTi2QBz1qXjqgYcc349E+6+d59+UmF+d9qBKhXf8DMmPq9eh3e4+s/DgaoAPFaCARcjoEji0NzawimKGDQY+ej4DJAmyCV1Ekv1O8M2+aX2j92VKG/n0mcbyzww9ALm/rGleRkppflfFL5XW/S32m5z/R1IgAwYE5g0BWoDLdCr4ggPWYDhwSoG2DPoz2sWY4LNuNNj1ZW00dS37pUOnmPdui1caxWwD2szjjzsual1fJZvmePFgefvSEkeuUfI6+Xjkypjt0tZLM9/z/H6nTEnVDmeAyY3bHDE4kQZ+5+yFSt1+xmmnydbp81RbB3b+rtAE/u+F/0miH6tk+9Au0qbO7VLp4rPltBNKSekTTpMLLq0kdep/LOMmRvDpsBho+7c5S7Vu9d3Eg5yH+Jdffmn1pRO6Hv6puCTQZkjXk6VwitaInEWjo4MwA8FkyxfrFrr/kgWSnF+3RhXD+7Cn4+1yTtGjpu5S10nXv/WAUOOOyc1Mnm0AMzfmbszeqcbDGG1OsxHTotuHDBkS7VDT/1uxYkV+W0go8NVXX5mWbtW/ZUcSa1nsAJWxP/WNev+2er1JRD/J0HW6Xu0HwtZVtGhR6dKqbfL9WPiDPKd8n4vKmXd0kHVOoAdatc70+RbvBZwBJrfuTH7ATQRVL9Z9Qk3WYMJUnHrDLV7hIslCJ3/h7wtk6jt3yX9LH/OtCq27+L9ukJa959ruq+Gk9E3xTnYjjmdhYVFNNPLZiDborQM/VrL7EEQB+DU76Mm3frHhQCySlhJS8jNOPcnw1++fvWV4HwCT5x4Fk8UveUAmTTMOKEaST/Dv/j3GuKYQiMNcIjDHqSwLeu+NeI4jGImgwjJlythi6mdD+P777yvZI38+85uZBRNq4XUqNkjUe07O0lVS7cabC62hp5x0svRq3yGua+MLef455xaoi4DYET16xVVPpLYfPuozWfS0W6WTQ7SS4TLRmTkf9NTtCDBJsvJIA2n371oO0JpVqxXaKf3ffy4qMIEBgJjDw7UZ7eYN15YTCFgL/r9cFr5/q5xVrIgUKXacnHnB5VLpunJS9ryTpYRmGjv6XvTMO6XHGHtV7IF9B/TMq5Q8BqoiNHxkCHFDQQsJ7RLaVCtK4MAuw4FYMChy6+f175Y7Si9STP7vsY9kr4Ea2pgymTdMiLY3qkAVxD1AoIdb3DyM6DtaQTh18VEkRatVZfbs2SqtKTInuxftsKIov8kMc/0m4ZBEc1ijSlVhfe3UsrWQNrHg+qgPwGIxROlzR+VbpM0bzWTHrAUJ1VPo2ktny++1z5FipS6R5zpNt12Zo7UvcEAfZ6gVc0W7hjPA5L4Dxgy8wdpJosigHiASDIdhbSC1d3wkQzWImk+ldoz2/vLjT8ppp5ySbybXfj8w4A2peHwpuajqa/LLoLlBhKjLZNUPzaX2BaWCrlFMzn+wu+wwuJ9aW/S8Oyl9kzaJrXpHI8BDfeXKlVZd0nXXsSuqOyaoshLAFbjWrzKk9ulHMuSUuETe72Otv2QiUdyxJh1k5twHaOmN9tWLdW07/x81apTqN2TgZmv5tX6SEIJ86SR9sLr4N24ttObpWSNS55hlsrDVnXLe8ZdIvc/GyUEb190CMs3ISsoH2qx55AgwmZeT67hJm71kpdxZ+QjlyJCuPcK2j4ixUDB51f8uLXRs78++VMd93aJVwf+WTJROlc+Sso93lzWLw+/ADo9sLTVOP0Z+XPT0B2TA3PDHFphwJk38PJdR4Rh142zfvl2Zt8ld7ZXIEvDvWOdpJ4PB5OQPpMG5RIIWlbNubyxZM601cedlmxPxSRYrACUE2W6jx4o8e2P/88UXX6h+p0O6ycBeZyp5rFjnyNP987MV5WxovYqdJJfe8rz8MNggbWeSa7N/ozODYJ0BJqEiyMgqCLSSFHisCQdYJAUiFD9P3v+gLB7xd4HrE0kGUHzpsXoFfg+uF4qgUDDJ9xV/T8w/Z0zvX1W0GXxYoaTm2SPfl9q3vS/zFkYDh8tl2ouXHTN5l6won41ZlV9/cHtM/7xmQ+ynbYoegbM7iyeZebwSWQJsNrIXjPAA5VFAufHjynIW/pInXCEf97VWK5m70jxtFmZQ3D24J4h0NoKSJvKscs4/5LUmWxT9HjFihHMaZkJLuJfNpggyfc2KC0cskmW9Okj7Z2vKdacfjd4OdjU77hJ5rO1o2R9XndHW9sT+c6qrmSPAJPeB1fRAbd9sXgAIQi/Q96vOgmPwey+/qv67/JL/yt55SyMCN8Dhf847r0A9gMl7brtdVo2ZLF++94GULFlSrr3iyqj1xLqhDvR4TM7Hp5KJfVw1+W5aYpMw1nVi/Z+utEDk/CaQ5f777zfhkZ16Vfo2Ws856Ugz9/QO8sFVJaVIkdJSocFn1vpKzh4oiXJL6p2RmHq11INQT6VL2b17t4pqx4cyIyMjpbvNMz/WupAy/y8eKd3q3iU1Kl0rV5513LGsN8GAssRFUv+bmfb5Tq5c69iNm3PA5DZrI7oBeOG0ihpn1UknnCizBg6PeSPB3B+uHu036IRWjpkUs55oN6QWTUadpcq9JUuC8odGO8/o/0izlY4FHjc0EUOHDk3H7sfd57zcbMmeOzTNtZP9ZPl75eWMokXllGufkJlTrTVv47tqhbYwOztbkXpzf/Tt2zfuueLWE5YtW6aiu8mClcqR7XmHc5Jau4xegyyrb+kCWf5jO2lS9WI5UaP1Ogoqi1/whIyaY49CJ7B9t2NvGceASVS3lk2UZWukcvkKEUEg7PtTfx+kqz2kfdKAY+g7wTvzho7UVU+0vh/4rq6ch2ay6Bly/6czbNsVpWPwDf5gpB289dZbLXO6d+zTIo6G+TYtT2sweWh4I6n9r2JS7F8VpOsga83baGkD+6xLAbhv3z6pXbu2oq4hvWq6lGHDhqlNJn7Uqew3arXVMNpaaP1/S2TRZ4/K1ccH0fYVPUUeaD876XU97r4sXyN5PuOYGYy+Tx0DJmFzj1u4SfguaBltQgEgpu2Fw0fH1ZZnH6pTCFDeWO46WTtxelz1hO//iqM+k0XlX7e0lqU2aSV9K5wZQWb0DRFaHynK0Lr07Nkz9C/vexQJQEeTvWBkegLK6d/I1zefLMVKXySvde4lh4IDciz4bKavZKQhJ0ANLkY4WNPJr7hdu3bq+YBPdaoWqxU94ddBezSBR9qyQpa+f4uclq+hLCrnPvy95b6TTnczcwyY5EYk77OVE4m8n0RsX3LBhVK10o1Cns9DizLibgN+lh3ebSkA0QrXlJXv232eUD3h+p4ztYvUO7uYlL64rvSfaFPgzbI14t+UWG5ftz9g4dMjldz+/fvd3hXL2+/fsTYNwWQfmfDC/+Sk4mfI/S2+kX0WgMeC/qKDJHDYnrkKr2nlypWlXLlyAqVNOhT8Rp988kkFKNl4pmJRnJOr1sW9LoZbz1z728JB8paWUrFIESl5cxvZaHEmHFwOnFwcBSbJruLayZaEljRinxeMli7Vz5ETLn5Aev+53FbZOC2pvBU31fz589Ui8cknn1hxuZS7BotQztKxaQQo+0lGm1vkouInSuWGn8gOy4HkQPGtXWDrPFq+fLlcf/31csMNN8jq1attbYtVF9+5c6dyg2HTSWKDVCzpTBN0ZH1eKQtfL5PPqlKy0geyxkIw6VQ6oOC57igwmefz2QqYIoI6M4Bi1DrJ0/2VvHH9mVK8SBEpduIlctezX8icmTap+jMyLXHmD56YTvjcqFEjufLKK2XTpk1OaI4r2xA4uEey5wxKA0DZXzZ3e1DKn1harqrznqy1mE9SaScXjpI8v8/2eTJnzhwVnFK1alXZvNmYVI62dypGA9DEYuKvUaNGSloxlHYyc2Nar88Hej4uFxxlVTnpzo6yO+oabuBavTxT8nLtv69j3ALiKDBJY31ZaTxh54yTv9u/K2/edbWcWSLI4fdoFNnxF9eW7sOXWX5D+zdsjTWPUu5/THZXXHGFNGnSJOX6ZnWH0iEYZ1efZ+WOM0rIhdVfkyXTrY3c1szcZlMBxTNvxo8fr+6fmjVrWpp+MJ42Gn3swIEDlSWDjDWpGJCTd/Cw5WuPcxQ8a+TwgFeljFqXS0j5V0fKYYvApH/rTqOnqin1OQ5MBnbvS9sJe3hoO3nxjqpStez/5N/HHct6ExwkVOI/j8qASdb6TjoxD6gpd0NQpR999JFaGJYsWRL0q/cxEQkoc/ey8Smrndzbv6Hcf04JObPi0zJjkh4g+ats/KuPHDTQDO5bvziRoTH1nCFDhqh76JFHHpEDBw6Yei2nVN66dWvV5y5dujilSYa2w79hS9quzwe+f+KIZrLEZfJ2vxXWyIHAV3/A0DE0qzLHgUnFur/C2mw4Ttr9aG3JmTVe/mr9gtS86IQQ8tTicknd3rLLol2Rb/X6tDNxwxsHIfFTTz1l1n2XdvXmHd4v2XOHpByg3DeokTx6fgk59eqH5K8x/XX0r4/MaFRWyj/+kWEk5jlL/hai551YevXqpcAVWWNycpwdQGCE/Ojj448/rvo8YcIEI6p0VB2YW30ZmdYAKavWOF3XOZaJ7uQbP5QMi1hVAnvtCaZLZNI5DkzSCb/FBOYagHPk+9y/pPfDl8kJQSz8RU+pIb2mGuiTEeVmSkeicrJ5QAeEqc4rxknAv2uDDrClR7PnjGP2DXpdHruwpJx0aU0ZMLyv7JsW/rV3ch/ZNOpbmdOtsbS65xI5vcT50uTHvsbIYt4w26K39c6ML7/8Ut1Pb7zxRkqaf0PlsG3bNrnlllukfPnykpWVFfq3678H9qSf9TB7THup/a+iUuSEcvLhAGtczXAvw6rjluJIMKl2P1EAjiNBn5ntXTxGvqp8yjENZdGzpH43CyZ0RpagKU6ngmYBepO7777bVTeyW8YoVVIt7u3/mtJIBrug6P1c4rI6MtMQv8pBEtjrfH9mFsSWLVsqQIkZ2E0LZKL3FUwQV111ldxzzz0pZ+Jn/Pzr3W/uzpnUU5pWvEDOPusiqVD9Bfnu15lh/SBzJvWSpmVOlqIlzpOH240Le4zhmGTFWoF7203FkWASAYLKDR8gMwGfyXUf+P1luTo/KKekVP9wlunycYvjr5E33IABA9Si9/vvvxtZrVfXUQmwEOWunmWMVs5An0MtiEXP+67fXpTa5xYvlKhAH5gsIRUbfm2Iv6R/2xrXzCu/3y+wI6Dx79Spk2vanUxDSS9Jf19//fWUA9BkYiGRhZvX6F2f3CHHB1n8ihQ7WS6/rb506PiLzPhjjCwc0Ef6NHtMqpxdSoqdco289MUYOWDyOq/J041UfI4Fk3k5ua6eqNqkMOx9yWhpdXWJowtYSan63hRz5YNW0mU7o2Qe/Nq5tWrVkptuuikt/Lu0Plv9jn8fuaP1ADfHHTPja/ko/z4szLgQE1CWvkraD04+vaJv7UKrhy3p66H1f+aZZxTA6tOnT9L1uaGC999/X/W3e/fubmhuXG0kMNOw9c0ikBbc3pwpPeXVy06IuiksduKFUvWR9+TPMRZYAo/KwL/FulSocQ14jIMdCyZpN0INHvz0/rxMRj367/9v7zvArCiytoVFzGG/dd1dd9d1d79dco4CBqIIiqCgIgiSBBUDCggfoiigiOguIkFBUVFERYICIkkkCQJKZoYZJgcmMDnfcP7/rbGHOzfnrq4+9Tz3ufd2V1dXvVVd9fapE6iueJO6gvq/cTyi2NhyC3wMHfVO//DDD2LiV9USU6Yes1sqqfLUDmMSSp0kohqxrko8bFhJFyJJ3XvvveI527Bhg0xDMiJ1AYGGNXuDBg1oz549EbmHnoUaPtDI4Z209dUpNHXoAzS0bx8aeGc/GnrfUHr28an03sKvKP5QdD2nIAqgUdVApCaTQpRuSssxd8Y1Z2j/2IbVHvjrNaXp6yPomiA+hew24yj+hmsyhdSkefPmpvGLFy7cgi3Hbqmi0uPbKObrJZSx/SMmln6Q1KqkXwy72GjjBBFj4NwbOoW7d+/WDiv7fe7cObHb0a5dO4L/WtWSNTMnooIN0wiR4DnFIG6A3I1hqckkKmzLzeeBKsTfp2nzA9WSyXr/eoz2HXdHOMNzzEjuCNwN6mCOnT59WkhLZsyYEczlfI0XBPCmjdLJCFkAACAASURBVEgo+/bto5UrV9Krr75KY8aMETHPoVOGT8qW5UwmfZBJhEo0qtTCeXikp6cLi2e8vB05om8ISOe6ReL/wYMHRTStfv36UVlZWSRuoVuZGJPW5Exep0PZqoc/ycoq3fowHDeWnkwKv5NnU3mgHl1Lz4tA81dS12k7qSKUgevlWmtyhjILViAPyMSJE8VWlIquPALBIZS88M8JK9a1a9cS3MHA8ODuu+8WPjs10ujpuzJ2D5NJL2TSknZCuecyLi6OIK3DB79VTytWrBAvTs8995xyfQmJmsXk4RaDlqDCPqG8wvDDX3oyCYQBdNAd5YU4GafMOIqf3ZOur3MRXdliAu0/Gh4JpEv7EYPbADFAw/3UYRsKW26PP/54uItWrrzy8nKCFPfbb78l+OOcPHky3X///dS+fXuxUDqSRcQqRjg94Dp37lz64osvCBKad999V8Qx1vKiLEg3LCnHmFA6E8pDa8l6Xr2tUe3BgFQSAQLglzEtLU07rOQ3xjieF4x7OHNXLQlCaeZwyMFwDUWIJMayIcgkKmrLyVOMUMZT6uIxdOufr6M/3tic+j3yGu3a5U4PMp5Sl46hdlfVoXo39KH3N7vLEx5yCWe0Zkyvv/66mOAPHz5sxua7tNlisVBiYqJw2v7BBx/Qiy++SMOGDaNbbrnFhTDCsKBr166ECCfwIfjxxx/Trl27hG6Yc3xilDtz5kxRBvx4tm3bljp06FDLct6am0IVh9YyqQSpPLKJbCV5Lv2j2gHoTeJlrlevXgR9SpUTXsb69+8v4pbv379fuaaKncSkDMXW6vCsry7CG2xtl6sTFcowZFJILhLTFBqkx+iDbpfWcktQ98p/UJ9h0+mzD9fTsU3f0f7l8+m1+9vRDRfXpWubDKFPNkXOPQGc0AJjsyVYlyJSBaRrZk5VVVU0adIksaBjYdekhtp3x44dRZi4qVOnCsnili1b6MyZM7WIoDf88vLyBCFFeY8++qjYDsfvWbNmuVwGAlVx9FtTE8rKmB/IXlXugo2qB2DZjfEAS288kyonSGDxEoVPRkaGck0FoYS6lAt5CkZyp+o1cEpeoQ6RxCA2DJlEZYXvyVhjO0q98IDFU/riYdTscm++6urSVX/pSCMnf0zxkdraxsMal0ywnDdjguQNi9jmzZvN2PyaNsMoAPqNkJog7N38+fNp/fr1dPToUSoqCk1ijW1xSC+BM3QpIbGcM2eO+I9z7pLdWkWwXNbc4Zjm+/A6sp6LN+WLHXxPYoxACg6XOionGKNBqg/yXFFhfH05576CYIJd+3mQaCamKalOZigyiQFrdEepF8hk9UAr2PIpvT/xCRo/cAA90LsPDeo7gEYMHk0vTJ5Daz7bTfknPQzIcL2xxSQqJWp3ntS8/ce26+23307dunUzRcxgb1hE6tzGjRuFuyXoxUE3Egm4wzE8iKuvZCvMNo2UUkgjK0p8QaL0eUTHAaEcP348IWqOyun9998XbZ0yZYqyLw+2fPPF8XZe4x3/W9OzlQ1RbDgyicnF8I5Sw0UEw1COEcM2hWuB0bbWYGXJKbwIQPo4b948sViCrDtKILdt2yaO+4u73WohS8pRqji0Rk1J5S/fkDXrrLKEIpCRBYkWdG9BKF944QWlMUFbsQuAtn766aeBwGSovPaycrKcSTb9trftfIHS49mQZBJPEovQQ5dYYnCbOQ0YMEC4JSktLTUzDGFvO7bFR48eLRZJOILPz8+vdY/HHnuMmjZtSnAlFEiyV5RQVcJBdQjl4XVkSTtJ2NLndAEBvIhoJAtqESonzD1QL2nUqBEdOnRI2aZCjcqalmVOQgln5GXqqTI4D1bDkkmhk2HWwRkGiSTIODA0azpw4IAgO2+++aZZIYhIu+Pj44URD6QtcE7uvFWZk5MjFk6QhWCTrbSAqs7sNS6pPLSGquCA3EQGNoH2NXQmR44cKZ5RFd3oOOKBqDjwbNCpUyeCmzKVk62ohCxnVLF78C3QsWafN000OcOSSTxwTCh9D2ZHfQ3ttzXrvKmJJMYOLIrhBzE7O1vluTuqbdu+fbuIagOpIxyXu0vLli0TBCEccYoFqUz6mSoOrzMGsTyykSzpp8heqVYEFHf9HI5jkNohrjVeTNatWxeOIqUtA+600E54lVDd+EhIKdMVl1ImpCrhiDyQB8bQZBINFYQyPduc4vMgJJTiTcnEEkmMGUjPMHFD8Z1T6AjgGVy4cKHAFL4ojx075rFQODG/7bbbwmrwhBjfsICuPL5FSlJZGbOLrHlpyiree+zsMJyASyn4JG3YsKHwexqGIqUtYsmSJeIZgl9XMyRs/SrnQiguheCv2Yy7foYnk3joBKHMYEKpSR49fVuz80w5yJ0n5mnTpolJG34SOYWGQElJibC8BTl/8MEHCdvYnhKinSDff//7X09ZQjqOecBWmi+kf5Unt+tHLA+tocrY3WTNiid7JevjhtSpRCKuO15AmjVrprZeod1e8ywhWpQZknhmS0rJkmBwH9JnkkgY2NjMqzqmBJnEQycGZW4+Syg9SCvhooETUW5urjD+GDVqFMMRIgLQ9erbt68giLC89bU9hzwgk7guGglEDlbSVfEHqPLY5giSyzVUeWIbVSUeJuv5VDaoiUDnJiQkCCffbdq0oZiYmAjcQY4i4bAd0nuo4MDHq1mSWL+LSownqYxPqSaRVptZuspjO5Uhk1oL4erGEpvIpFIjlfC0X2aeSBraOPD0DWfcIDR79+71lIWP+4EA8GvXrp0Ig/fZZ5/5vAJh5Fq1akUPP/ywz7yRyoDtcPittGTGCqtwSA8rT2ylip+/8Y9oHtlIkHjC+Kcq6WdBVBGtx25T2x9ipPoj0HKPHz9OLVu2pM6dO0fthSTQOoYjP4gznhXEK/cm6Q/HvWQsA5FhhLcWiddxRIyzlZTyTp/DAFKOTKJtGIyWs6lMKBPTlfS07zB+A/oJQoMQZv369QvoOs5cGwE4W4YOGxyPHzx4sPZJD/9gkAMSL6shBQihvaKUbOXFZCsrJFtZAdnKisheXiwMZiA54aQ/AogcA6ld9+7dlSZaO3bsEM/LQw89RAh1asaEsIy2guJql0IyEMukjGopZJXFjN3hs81Kkkm02m61kTUzx7SE0kwuCXyO8l8zrFy5UmpC42879MqHsG+I3w1SiDBwmZmZfldl6NChQtoCQs+JEQgFAYQ+RShCvBSGGuozlHpE+lotGtDMmTMjfSvpy6/WrSyrXtPjU6Kzrp9JImvaOUFo7YpHYwrHAFCWTGrgiPCLcVEafNrWsp7fcJBarr6DVK1//f2GI+RevXoRrI0Rzo9TYAhkZGQQnLyDSIJQBhJPGDqSuA46k5wYgXAg8Pnnn4sxNWTIkIDGYjjuHa0yMGeNHTtWtNOTq61o1UW2+0BYhLXdlltQLbnETmRMCOptcclkTckkGKnCF6a9ysJb2AF2uvJkEniYRUrJ1tqeR/+WLVvEpLx06VLPmfiMWwSwld2xY0extY0t7kATrLdBJmHNzYkRCBcCixcvFuMKEZVUfUGE5BUvwfDdeuLEiXBBp2w52Bq3V1aRvbSMbIXFBMNThF+GpbX4zi8UrntgW2EvryT4vGQVlvAMB1OQSQ0qSOysyZnREZFHUTqJMFV4gDh5RmDw4MFim1XlbTHPrQ/+DFQDGjduLIxtgjFagnQFbl369OkTfCX4SkbADQIgAbNnzxaEEj5jVSUFcXFxwvDo9ttvp/Pnz7tBgg8xAvojYCoyqcEttr4TDe7X6nSCIMa8pa31qudvzb8hwvtx8g8BKP1rrnzuuuuuoK1nd+/eLRb7YCSa/tWUc5kZAbysTJw4UYyx119/XVkovvvuO9FGxLpXVQqrbOeZpGGmJJPoW6HQa0S/ViCRKZlCX8QkYzTkZj711FMiHnR6enrIZZmhALgjgQNybE2PHz+eENYu2IQY3I0aNRL+PYMtg69jBLwhgBefMWPGiPGqshrLm2++qTxp9tbPfE5uBExLJh27Rfi1guW3DO4HPG2Pw7IMMbV5O9ux63z+hvEH3NhMmDDBZ17OQCIUIoyUQCQRIjGUrcOCggLhxgU6bZwYgUgiUFZWVvMCtHr16kjeSreyrVYrjRw5UjybGzZs0K0efGNGwB0CTCYdUBEWYvlFQvJniUnQX7cyJrHaNUFhMdlNHKbJoYsC/vnKK6+IyRcOjzl5RwAWo1D0h8Pk7du3e8/sx9kVK1YI7Ldt2+ZHbs7CCISGQGFhIUElA26Dtm7dGlphkl6dn59P3bp1o+bNm9Pp06clrSVXy4wIMJn00OvCYSq2wRHz+0xS9IglXBRk5pCwNmMC6aF3/DsMyViLFi0IPg45eUYAEg/NkAGWo/Hx8Z4zB3Cmf//+1KlTJ9bxCgAzzhoaAllZWYJswbH5gQMHQitM0qtBIkEmQSpBLjkxAjIgwGTSj17AVh+2l22FJWKr2ZqcQZbYMBBMbF07+bbyozqcxU8ElixZIiRjiCbByT0CeXl5BKV+bGuPHj06bE6gseChTJWNItwjykf1RiApKUlEZ4KE/eTJk3pXJyL3xzY3nq9Ro0YRXgY5MQJ6I8BkMoQewLY49C2F89SCYrLl5leTzazzIrYo4otCzxHRaISfK2xXl5ZV+8GycWD4EKD3eWllZaWI4du7d++Q9P583sjAGWJiYoR0A4vSvHnzCJax4UqI2oFywyXlDFe9uBxzIHDq1CmhrgH/qCCXKqY5c+aIZ+ytt95SsXncJoMhwGTSYB3G1fUPga+++kpMtIiUwckVgW+//VaoAEANYNOmTa4ZQjgCIt++fXsaNGhQCKXwpYxAaAhgmxvb3dgOxva3agkugrRdBQRl4MQI6IkAk0k90ed7RwwBKOLffPPNBGLD6QICkD5qLka6du0aESV+GNxAKslE/gLu/EsfBGCIA4MczAfQoVYtwYk5nJm3bNmSdwFU61yDtYfJpME6jKvrG4Fdu3YJMvPOO+/4zmyiHMXFxfToo48KbB5++OGIRdNIS0sjWNGH4p/SRN3CTY0wAnAVhJcb+E6FCyHVEsIswgsDjOc4wpdqvWuc9jCZNE5fcU39RABbP82aNSMYl3CqRuDs2bN0xx13iEV11qxZbGHNA8NUCMCZOQgljMzg5Fy1BLdeaN+4cePCqvusGk7cnsghwGQycthyyTogoFkRv/TSSzrcXc5bfv/999S6dWuhPwZdUk6MgBkRgGcBEC6EXwynsZksWGo+dRcsWCBLlbgeJkKAyaSJOtsMTZ00aZLQkUpMTDRDc322cdGiRQKPLl260NGjR33m5wyMgKoIwMXb1KlTBaGEX9VQojvJiBEkroMHDxbtY3doMvaQ2nViMql2/5qqdefOnaPGjRvT448/bqp2u2ss9BURkxySmAceeICys7PdZeNjjICpEIAFNOYHPBeLFy9Wru05OTmEF0fsRPALtXLdK3WDmExK3T1cuUAQmDt3rlgkDh06FMhlyuVFPPK7775bYDFt2jS2aFeuh7lBoSBQUVFBQ4YMEc/HqlWrQilKymuPHDkiVFruvPNOgtEdJ0YgGggwmYwGynyPiCOASRNv42b3bbh3717h4xES2k8++STiuPMNGAEjIgCr5379+gkVkM2bNxuxCV7r/MUXXwiy/OSTTyq3ne+14XxSNwSYTOoGPd84nAgsX75cTJ5wxm3WBAwaNmxIiPrx008/mRUGbjcj4BcC2BLu0aOHkOLt27fPr2uMlGn69OliTnz33XeNVG2uq0ERYDJp0I7jal9AALFp4bgXkS7MGKcW23YwPIIeWP/+/SkjI+MCOPyLEWAEPCIAlZDOnTsLp9/Hjh3zmM+IJxCw4f777xfS1927dxuxCVxnAyHAZNJAncVVdY/Ahg0bBJH6+OOP3WdQ+CiMju677z7R/meffZbKy8sVbi03jREIPwKIUd+mTRvq0KEDwR+rSgnzQ6dOnaht27YE4syJEYgUAkwmI4Uslxs1BO69914xWZot4srhw4fFQoGt7WXLlkUNb74RI6AaAjDaQ6CDW2+9lTIzM5VqHtrWqFEjYZRntjlSqY6UvDFMJiXvIK6edwSgG4jt3Xnz5nnPqNhZWKE2adJEkGjewlKsc7k5uiAA5/54Mevdu7dy0bNgjId5csKECWyQo8voUv+mTCbV72OlWzh27FhBqrKyspRup9Y4OCZ+8cUXxcLQp08fSk5O1k7xNyPACISIwLp168SzNXDgQCopKQmxNHkuh4P2KVOmiLZ98MEH8lSMa6IMAkwmlelK8zUE+k14237++edN0fjc3NyaCBdwvKzSYmeKDuRGGgKBDz/8UMwrI0aMUMpHKwz1oBIE6euPP/4Ycl9AP7t79+60Zs2akMviAoyPAJNJ4/ehaVvwwgsviEk/NjZWeQyOHz9Ot9xyi2gvYu+qFgpO+Q7kBhoKgbfeeks8a88884xScbzh6QGGRvikp6eH1CfYJYEu5uTJk0Mqhy9WAwEmk2r0o+lacf78eWratCmNHDlS+bZj6w1tbdWqFW3btk359nIDGQG9EcDLmuan8eWXX1bq5W3//v1COjlgwICQvT/06tVLuB/Su7/4/vojwGRS/z7gGgSBwNtvvy0kB4j4omqCz8zXXntNtLNnz54UFxenalO5XYyAdAjg+UMEGajSYL5RKWlBHiBVDGWXAzrr7du3VwkabkuQCDCZDBI4vkw/BKCrg20axJ9WNeXn59MjjzwiFrJRo0ZRYWGhqk3ldjEC0iIAx9/Dhw8Xz6FK4UlBIJ977jnRrhUrVgSNv/aym5eXF3QZfKEaCDCZVKMfTdWKlStXiklw7dq1SrYbOqCI5gOJyBtvvKGUzpaSHcaNUhqB4uJiYbiC5xEBElRJZWVlIj459B4PHjwYVLPgogy4/PLLL0FdzxepgwCTSXX60hQtwRs19HS6dOlCUABXLX333XcitFvz5s2VWrhU6yduj7kQgI72HXfcQY0bN6Zdu3Yp03hExWnXrh3dfPPNhGg5gSboX4JMqvpiHygeZs7PZNLMvW/Atm/dulVMXu+9954Ba++5yiDJ//nPf0TbEGf81KlTnjPzGUaAEYg6ArB+xkssXvRUksTt2bNHxO8eNGhQwK6Q4N8XZBLW75zMjQCTSXP3v+FaP3jwYGHVXFRUZLi6e6owttGgyI5JeciQIQQpCCdGgBGQDwEYwUGSh49KBnF4Ocf8A3drgSS8BLds2ZKeeuqpQC7jvAoiwGRSwU5VtUlHjx4VE96rr76qTBMTEhJE+DZM5HBBYrFYlGkbN4QRUBEBSCUhnYSUMi0tTYkmghSCEGIe+vzzzwNqU//+/ZU2hgwIDBNnZjJp4s43WtOffvpp4SRXlQl8586d1Lp1axEO8ssvvzRad3B9GQHTIgC9SehPQn9blZ0ERNRCiNYmTZrQkSNH/O5bxPsGubbZbH5fwxnVQ4DJpHp9qmSLUlNThaNdRKRQIS1ZskToKXXu3Fkp/SsV+obbwAj4gwAsuyHJQ4hCqKqokJKSksQLLqSu2dnZfjVJ8/mbmZnpV37OpCYCTCbV7FflWjVz5kwxcSOsoJET3HFAwopFCArvUGDnxAgwAsZEAL4n8SwPGzYsYOMVWVv8/fffizZBP90fjxlff/21yL9v3z5Zm8T1igICTCajADLfIjQE4LAbSt4wTjFygnQVjtax+EydOlWZxcfIfcJ1ZwRCRUCTzI0fP54QNUeF9M4774h56pVXXvHZnGPHjom88P/LybwIMJk0b98bpuXYEgYB2759u2Hq7FzRH3/8UUTtgYPgUCJOOJfL/xkBRkBfBGC8AuM5zFGwhsZ/oyfoPz722GOiTWvWrPHaHGzxo+0qGUZ6bTCfdIsAk0m3sPBBWRDANgv0d3r37m3YSfqjjz4ShkMIAQknv5wYAUZALQRAvqDPDVKlis9FkEQ4aodBji/1ok6dOtGYMWN07VS7zUb2yiqyl5aRrbCYbOcLyJaTR9bsPLJmnSdrNj55ZMvNJ1t+EdmKS8leXkl2q9Wwa4uugDvdnMmkEyD8Vy4E8FaMCTpQdxUytAJxfZ9//nlR/3vuuUcZNyIyYMt1YARkQwDP+8iRI8Xzvnz5ctmqF1R94uPjhV/f2267zavV+kMPPUQ9e/YM6h6BXgTJL0ijraCYrOdyyZKUQZbYRLKcTgjtk5BG1oxssuUVkr2sgkBOOfmPAJNJ/7HinDogAB3Djh07UkVFhQ53D/6WCE02cOBAsbBAYgHDG06MACOgNgKlpaU1z70qIQa3bNki5jEYGXnygztt2jThbcMfg51gRoDdYiVbQRFZU8+Fhzj6SzyT0oUk015RGUy1TXUNk0lTdbexGrt7924xiS1YsMBQFf/5558J2z4NGjQg1cI+GqojuLKMgA4I5OXlCbWchg0bEiyjVUhaqNfXXnvNbXOWLVsm5moEYQhXslssgshZktJDkzj6Sxx95YtPEdvl9nJjCTbC1R++ymEy6QshPq8bAo888gg1a9bM6/aKbpXzcGNsx0PHqE2bNgTHxpwYAUbAfAjA5yK2hjF/HTp0SDcAfvjhB+ratSuBBIYS/hFW6qNHjxaE8ZtvvnFpz7Zt28S5HTt2uJwL5IDYwi4tI2talhwE0hPBTEwTklLeCr/Qu0wmL2DBvyRC4PTp02JyevHFFyWqleeqYHtnxowZos533nknwfkvJ0aAETAvAmfPnhUeHPBiGRMTowsQIJAIdwi9c3zg2xYvvME4WS8oKKDu3bsLgoz52TFBtxLlv//++46H/f4NUgZdRcvZVLlJpDO5jE2qllZWcRhcJpN+D3fOGE0EJk2aJLaJExMTo3nboO6FcGpQQMdkCncawUzUQd2YL2IEGAGpEYAVNHzkItJVSkqKbnU9deqUcF8EYot5qkWLFjRlyhQhNQ3ElVFsbKy4tlu3bpSfn1/THhgfYVt/+vTpNcf8+YF7w7LaEpdsLBLpTCpjEqtJpSJ+Rv3pO+c8TCadEeH/uiMA4xXEvQUxkz2dOHFCbGdhgobz4kAmZtnbxvVjBBiB0BFAZBiovkCql5OTE3qBIZRQXl5OiFgDYxrMWfjA7drSpUv9rtvGjRvFdbBcd3TS3qNHD3r44Yf9qp0gkUUlxpNEOpNI5/+xSdUGOya0BGcy6dfQ50zRROCNN94Qk9XBgwejeduA74VJGTpRkDzA4pETI8AIMALuENi8ebPYaenXrx8VFRW5yxL1Y5CUwicm/PiCVCKgwuOPP07Qe/Rkta1Vcu7cueKaefPmaYeETiXK8pXg1seanGFsSaQziXT+H5cs/Fj6wkKl80wmVepNBdpSUlIijFfgVkfWhLfxOXPmiMkU0oYzZ87IWlWuFyPACEiCAHQVQdoQFlYmV2eYz3bu3ElPPPGEIJSoI0ghiKIn3W+QzeHDh4v2gCgjIQIOrsUc7i4JaST0ImPC4BPSmbxJ+h9+K+EU3QyJyWQQvYyHQjhNLSkTFl3wqA/nqbBAwxuXeOuCO4Ok9F//Z5I1PYusWblkyy0QzlZtJWVkr7LwtqgT/h9++KGYkDZt2uR0Ro6/UEIfMWKEqCO+8Z8TI8AIMAL+ILB48WIxd0CFx5f0z5/ywp0nNzdXGNFg6xvEUCO/8Jnp7CsXLpBgKY6dGRj6IDY38kM/0zlhvRTOxSUlfSE7PPfWLpNIKZlMOo96p/81xDHc3va1wQdrMBDQrPNkKywRBNOpCqb5izdkTE5Q7nbUxZEFAEggoReECROSSRnrKAtWXA9GgBFwRQDryezZs8UcAgMY/JcxoV6HDx+mqVOnCoMbzHmtW7cmeNc4duxYTb1BHKHqg+g3mnNz6FQ6JltRaXQdjWtrq2TfWONl7W/H/gr2N5NJN8ihwyE5FKGa4lOir9uRkCriiNrLypUefM7Qa4rdiGUtW8JEiTdwTJzQleTECDACjEAwCCCO98SJEwWhfP3114MpIqrXwDvFF198IdwKgVTig8hkmKdh0b1+/XpxDCFjcW7hwoWifmIdzcmP/vopGYl0lHpaUzKV3fZmMvnrY1lDINOz5HqLOpNE1owcESs0qjOIDje77777qG3btoSQZLIkjIv58+eLSRJOiGG9zYkRYAQYgVAQgF/aMWPGiHkFltRGSdjOhgP0Dh06iLrDSh3hYvv06SP+g0zCrRv8RkrveFwv0hmfQiqGZzQ9mYRyrO18gTFcFMDrfn6RkgHoYbmNicjROlDvCRZv5NBtQr3gRxL+JDkxAowAIxAOBKCD+OCDD4r5ZfXq1eEoMmplwK8kDG9GjRpVQyIxT2ofS2IaSyS9kdXYRLKXlketv6JxI9OSSRi/WDNzjGlZFqueg9Rx48YJX2xZWVnRGPc+7wFn6Yhkg8kRkW0gSeDECDACjEA4EYAB31133SXcBm3dujWcRUetrIyMDHrnnXdqdCsxZ1adOstk0huZxLkYtQil6cik3WKt1oWMSTD+YI9NJFtOHtmttqhNHJG4UUJCgiBtkydPjkTxAZeJmNqIFIEtHLjz4MQIMAKMQKQQwAs0jA4x3xw4cCBSt4l4udbKKtqxajU9M+pROn/wmPHXV19kMBznYxKFfUbEOycKNzANmRQ6HNl5xpRE+hq0Z5LEVj30+4yYEIILb7MI1aV3eu+994SUoFOnTsKaUe/68P0ZAUZAfQTgz/Hmm2+mVq1a0cmTJw3XYAhpDBdX29e6Gq3zihBKU5BJWGZb9LDKjtZg1O6TkEr28gpDTUTQQ4SFNEJz6ZkQZmzChAmC1MIQCCEdOTECjAAjEC0E4GYHZLJjx44enYVHqy6B3AeCGtaRDHGnEzqUFZWBwC5dXqXJJLZ/4YHe0TTfDL+FPyuDxAZFPGtIJffs2aPbw5GWlkaaW4vnn3+eoFzOiRFgBBiBaCOAbW5sd8PfrhFeaLEbprLVdsWJOFo+5026u1sP6tqxE7363PNUdiw2MpwCVt4W40bLUZZMCMaIxwAAIABJREFU2kpKyRKXHJlO1ySBMn+fTZXenRBCisHFBHyW6ZUweaMOiEsro39LvXDh+zICjIA+CMAQp0GDBtS3b1/pI2xBZ19VAU3J0dPUo3MXuuiii2p9pjz6eOTanJROdpsx1dWUI5PCX2QuO0oVD3hMgnAlpM+U6Puun332mZBKIlSXHmnFihWCRLZv355+/PFHParA92QEGAFGwAUBuArCjg1cBzmHMXTJrNMBRGxTlUiiXbOfnVyLRGqksum/GkS03db0bEMGK1GKTFY7Sj0X0Y424sMDF0iyGeegPnfccQd16dIl6m53sI2NMGGYrCEVTU1N1Wk65tsyAowAI+AeATgzxxw1evTosM2RycnJYs4L1dgRrvUssYnKrrWFP5+kKy+/wi2Z7Ny6bcTbbSsodj8oJD6qDJkUgeTPpka8k41IJkWdIT6XSB9j27ZtYqKE9XQ0E9xwDBo0SNz76aeflvatP5qY8L0YAUZATgQQbhGEEuEXEYYx1AQjH5S3aNGioIsSepLJGUqvtesWLXVLJCGdnDVhUuTbHptEIOxGSkqQSVhBWc6YWD/SX91N6FFKMkARUQaWi0VFRVF7Xo4cOSIkodBHWrJkSdTuyzdiBBgBRiAYBEDcpkyZIgjg7NmzQ95hslgswrk4QjkGm0TEOH/XHIPmmzxmnFsyWadOHUrauS/yZPJ0AlmTM0Lu72D7OJjrDE8m7eUgkklR6VzDSiUdH2hYjOlMKI8ePVozOQYzaIO55ssvvxRWkq1bt6adO3cGUwRfwwgwAoxA1BEAAdTCui5evDjk+w8dOpSgJx6M6pMQ3MSou72trfHdO7ka3kAq2a97z6hyDVteYcj9Ha0CDE0m4VPREstEUnsA/P4GoazULzzgM888Qw0bNiS45Il0wkT88ssvC/Lau3dvQrQdTowAI8AIGAkBeL4YMmSImMdWrVoVUtXnzZsnykHI2ECTNTkzqmTK7zXNUWASht//vunvbiWTu1aujm774X9SIvU0b+PFsGRSvCEprAAc8YcoLlkXCSUIJIgkCGWkExyi4y0cOkJjx46l4mLjKTVHGiMunxFgBIyBAFSC+vXrJ9wGbd68OehKb9++XcyJgXrRsBWXRpdIhYEUBrOOIq74ZZde6kImo2F4466+MKA1QjIkmbRbLOb2IRmuhywhjWABH800a9YsMZEdO3YsoreFovntt98u7vWf//wnqC2diFaQC2cEGAFGIEAEcnJyqEePHkJlZ9++fQFeXZ0dL9l4wX7xxRf9vh5b4pYEcxi4Zu//xYVIYosbRjnuyF40jum5k+jvIDEcmeTQTSGGbXIiotbUzKgRrcLCQmrZsiXB+CaSacOGDdS8eXNxr1De4CNZRy6bEWAEGIFgEEhJSaHOnTuL+S3Yl/Lu3bsLKae/97flF+lGpKJB1hzv8fP6TS5ksuE//kmVJ+N1w8CaKn94X0ORSeGSII39SDoO/HD8tp7L9XdOCSnfu+++K96Isc0SiQTXGXPnzhX36NatG4XqSy0SdeQyGQFGgBEIFYGYmBhq06aNiN4VHx8fcHFwNQSvFiUlJT6vFVJJE0WT2/DechcyuezVuboRSW2Nt5eV++wrPTMYikzaOLJNxAZ0pJ2kVlVVCbc8cFQejBWhr4cEUs9Ro0YJIjl8+HDKz8/3dQmfZwQYAUbAsAgcOnSImjVrRrfeeitlZmYG1I5PPvlEzJX+RP7C2qARGjN8vzdrTi0y+affX0+lR2N0xwAx0GVOhiGTwnLbaYvWDAM7am2E1VgEXQZB2Rt6OqFaIrp7mOLi4qhnz56i/Ndee42sVqu7bHyMEWAEGAGlEPj++++FQSM8VeTl5fndthMnToj50h9/u5bENN2JVNTWwdMJNOOpZ2uRyTmTpkrT/kiu0X4PHg8ZDUEmhZ4kR7eJ+ICOpJNUhC3s0KEDwcVFONPWrVuF8/OmTZvSunXrwlk0l8UIMAKMgPQIYN7Di/rAgQP92rZGg+AyDXrl8HLhLWFrNZpEToZ7PfrAQzVk8uorr6LzB49Kg4E1+7y37tL1nCHIJHT6ZBhkZqiDLbcg7ANyz549YrJ7++23w1Y2tspRHiZRbPMcP348bGVzQYwAI8AIGAmB5cuXi7lwxIgRVFlZ6VfV4bcSL/je1I6s6VmmW3vv6tq9hkwiEo5U6/6ZpKh7YPFrMBGR9GTSXmq+NyO9B2+43RBggoNuD1xShCNBafzxxx8Xk+fgwYMpNzc6BkThqDuXwQgwAoxAJBB46623xJwIH77+xPHWnJcnJye7rY7dapWLSEVJza11k6aCTF588cWU8sN+6TCwFcrpL1lqMimsyEymr6E3kcT9w+mGAFaHkB5Onz7d7YQV6EFMfH369BFlwk8aDHs4MQKMACNgdgSwXmKexXyLqF/eJI7ACipCyOtJPchshjfa2vvH3/9ekMmRAx+QjkiK9VlSQxypyaStwDy+rbSBLMu3vbQsLHPz5MmTxYQVjjCGu3fvprZt2wqHvZEw5AlLg7kQRoARYAR0QgDGh08++aSYc32pFWFHB2RyxowZbmtrNaEbvvLjZ6hOnTqCTJ7YtE1KMmmBsazN7rbP9DwoLZkURjcm8m0lC4msqQei49hDG7BZWVmC+I0bNy7kMb5s2TJhtXjzzTcTXGJwYgQYAUaAEXBFADqTcI8GorhixQrXDA5H4I+3f//+Dkeqf4r1NyZRTjIVwe3upJ37BJG8p0cvqduO0JayJWnJpC0nX+rOrCFdERzYet8DkuFQkqaTc/DgwaCLKS8vp2effVZMjPfee2/A/tSCvjFfyAgwAoyAQREoLi4mzJcglN98843HVmBubdiwIZWW1iYntqISKdffgsMnqOTo6aDqlrH3IMVu2Ullx2I9Xg/L7S/fXkzx23Z7zKP3uoz7WzPki9ctJZkUb0VnkqTuTBkGVMTrcDY1aOkkjGSwJX3fffd5nMh8ncjIyBBvzZgQJ02aFHa3Qr7uz+cZAUaAETAqAjB4RJCIRo0a0a5du9w2A5JLzK8HDhyodd6amaPr+ovQhac376Av5i+i6U88Rf173kH/vPFvQmqI34GENty49EPq0KKluBYxtn97zTX05tTpurYv5LU7zr3RVK1OjPIfKcmkmeKAhjyoIiwZtZUEpzv50UcfiUlq48aNQQ1pSDM7duwo3prh9oITI8AIMAKMQGAIpKeni8hj8Cn5yy+/uFwMl2ogkwh165j0clT+xJBh1K5ZC7rs0ktryB8IoPNn6tgnfJJB6D+OHzrc5VqtrF0rV/ssQ+b12W6RKziHdGRSWHCzg3JpBrk1JbAwXZiQoAQOXZyuXbsGFY0Gob4aN25M7du3p7179zrOcfybEWAEGAFTIJCUlBQWbxWIENauXTvxwW/HBG8YcNv22GOP1RyGcYdeJGpIv/70YN9+NLB3H4KLHs0YRiOA2vdvfvMb8mYgg+3wXl1u9UgkUc7MZybq1s5w4Cub3qR0ZBKSsHAAzWUkhA3HQP1Obtq0SbztfvjhhzUTlD8/oDg+bdo0cS0i5qSkpPhzGedhBBgBRkApBE6fPi3mQagKPffcc4QdHuhBBpsglYR0skuXLpSWllarGPjqxS6QZnBpL6sI29oR6jqc+9MRenbEaLekcNCdfd3WE3qPnVq1cXuNRkbxvXDGLLfXh1rnaF1vzfY/fGatDo/QH+nIJHwcRqszvN0HbzY/ffUNVZ06G3B98AB8/8nntPPTL4JWFvZWt2ifQwSiQBL0JNu0aeN3aC+UnZ2dTQ888ICYQOHawlkhPJD7c15GgBFgBIyMAMIdfvDBB/TQQw9RgwYNxLyI3RoEgICeI/TJA03Qm0QZvXr1qhVAYu7cuaJ87eXdllcY8JoX6TXp6eEjXchhvXr1CEY1jvfGeg2dSpDFKy6/nKY/8TQtePEVur/PXeK/Rib73N6NCn8+Wetax3KM8DuYXcNAx0wg+aUik3q4I9AUfWHBhYGHgfi/f7upZuC+8sxzfg+4rB9/picffoTqX1y/5vprrrqK1i56z+8ypBzEcck1b62+Bhd0HaGD88Ybb/jKWnP+6NGj4o0Zk+aiRYtqjvMPRoARYATMjkBeXh6tXbuWxo8fTy1atBDzK+bYe+65R4SUPXnypN/z84YNG8T1sPTWJJ1btmwRx77++msBtd7GN+7WQAh3/vLHP9WsqxopnP/CjFprKwxrcO6vf7qBjm/cWutc8ZHTdGD119Jbartrv9tjkhnhSEUmbYXRc0dwbMMWat+8BV1+2WUuA1QbqNq3P2Twl/Xf0k1//ovbsq69+mrCw+B2QETYgCZc98TWhz8JujdNmjShc+fO+ZOdvvrqK5G/VatWtGPHDr+u4UyMACPACJgRgYqKCtq5cych+he2rEEq8bnllluE83EEdvAVmxs66bhm2LBhIi92hfAfUXOQIPEK17oRznJeenKCy/oKCaN2D1h/X3rJJfS7a3+rDmH0wQ801QQZngWpyKQ1LXpB5WO++54mPDKann/0MXpq2Ai6tV17QixOjUA6fv/9L3/1ul297aOVdOXlV7i9VivnyNebawa9NviN9G3N8h1XG1FuIF1E1BtfCds4M2fOFJMY3FecPXvW1yV8nhFgBBgBRuBXBEAkjh07Rv/9738JOuYascSL+dNPP03r16+n/Px8t3ghOg7yQ9oJg0kYSw4YMEDktSSkSblWHVq70WWNhTCo9GiMcBV0S9t24vz6xcukrH8k1nt7lcVt/+pxUBoyqccWt3PnZu//haDUqxFAx29PyrrwYXVJ/Qvb2o7XaL9heeas2+F8b+n/x6f43ErB2zImKMTj9pawbYO3YuQdM2YMFRWF5hzd2734HCPACDACZkAgNTWVPv74YxH9Br4lMb/CIfnQoUMJ7tU0nUhgASIKSSTywOjxmWeeEf4oy8rKyCKpj2foQ/7huutc1mcIc7DdjfUWambSr6U+pI2B1N/fHcNojH9pyKQsVtwVJ+JqOTjVCCHcFDh38qlvt9NVV1wpBvFt7TvSmoXv0Sfz5hPcG1x95VXi+A3X/4E+mvuWy7XOZRnhvzerbjjIhYsJKIh7S7BSxFswJrE333yTbDabt+x8jhFgBBgBRiBABAoLC0XkG5BESCox3+LTt29fMe8eOXKEsDuE8ziu5fnpp5+kXqtgSKOtydr3A33vFupqzRs09LqDaIQ1NtA6IlKRLEkeMilR+MSf129yGbAYuI5+rRCSqUXDRiLfuMFDCSTUcSDgPKSRzscd8xjtt63As2uKBQsWiEkJOjueEtxbwD0FlMjhPogTI8AIMAKMQGQRgA4l/PW+8sordNttt9UQy06dOgmVJI1o4vu9xUtqrWOyrVGLXp7tdm3G+rxn1Rqp6x4JLGF5L0uShkzK4hJI6/Aubar1L7S3H3z/Z9pLNYNVUwZ+6O7+QbkP0u5jpG9PLoKgFA4/ZdDbcZcgfdTidMOZOaSTnBgBRoARYASiiwC2tzH/vvPOO0JH0pFIar9lXpNObtrmlkwOHzCwZm2Wuf7hrpvtfEF0B5CXu0lBJjHAZdPTeG3iFJdBe+dtXcWAheU2fFzBhVD+oePmGcSJ6W6H0qpVq8Tb7po1a1zOQx9y9OjR4vzw4cMJ+pKcGAFGgBFgBPRHIDMzk1auXEnwDQwy2aRxY6mFI9Cb/NPvr3dZmzct/cg867CDzqUt172BlR4jSw4yWWWRbiC4sxxDvFA4Om3TpJkgk/BZFe43DdnLA/F3TPgPa2y4qUBoLscUHx8vHORikpo9e3ZQoRUdy+PfjAAjwAgwApFBAH4nv/1mA8Efo8zrEMItOu4Y4veMp56Vus6RwpPJpNOzACXSSIEdbLlwZv7ba65xGbTwa4XB+/rkqdLVOdi2BnKdvby2v8nt27eLN9p33323Vq/iOJS6mzZtKhzu1jrJfxgBRoARYASkQ8BeUSn9urbklVdd1uUenbtIX+9A1ll/8zKZdHqEZAzfhM68p0cvl0ELItns3w2p/PgZcw7e4tJavTdkyBBq2bIlwXoQCZLKhQsXCoIJaSWi23BiBBgBRoARkB8BeOzwl8jolW/v52tc1mWETjTjmsw6k07PFBxi6zUwvd0XBjfO4nT83/7xKinr660t4TrnaD0Gh7nYwp41a5bo0ZKSEuEEF8cQZxuRFTgxAowAI8AIGAMBu8Uq/do2+v4H3a7LP331jfR1D9c6rJVjy5fHR7MUOpPW9GwpB4E7F0EI1wS3P1pnmu3bmn3BgAY+yuAUF85y4RAXPsxAJF944QWfIb2MMbVyLRkBRoARMA8CwhjWwcBDtvUtbtsuQhAQd0IeR28rstU7UvWxOe0U6jlS5SCTyRlSkjPoTSLOp/PA3ffFWinrG6kB61iuNaNa2piWliaIJMJ2wYdZu3btqHHjxsIyUM8BzfdmBBgBRoARCB4BS1yKtOvbgJ69qU6dOnTfHX1c1uWBvftIW2/HNTScv6HjKkuSgkxazqZKOwgweJ3J5BvPT5O2vuEcqO7KsqZkirEL62xtixvSSfiZPHjwoCzjmuvBCDACjAAjEAQClsR0Kdc3xNzGWjz2wSG09cNPXdblP/7+91K7NXK3noZ6zG61BtHDkblEDjIZL++b0MRRj7oM2v4975DyYQt1YPpzvTU5Q8TShtENCCQI5YABAwj+yjgxAowAI8AIGBsBa9o56dY3uOT72w1/pmuvvprO7Tss/DvXrVvXZW2O3bJTurr7s64GlScmQRi8yjLa5CCTcclSDgA4JHe3zX3db//HdG9ANYM9Kb0mmg2I5MSJEwkRcDgxAowAI8AIGB8Ba1audOvx5DHjBHGc/8KMmrq1atzEhUx+8Nq8mvM1a1aYdEArtsymPr+rR3Xr1qd2T22mijCVG3Q941OkGmxMJr0MiFkTJrkMVm3LG2Gdgh4EXu4pe5ll8cnCdySI5LJly6QazFwZRoARYAQYgdAQsBUWS7W2HVyzgSCFbNmocS33P48PGeayPo8a9IDHuleciPN4zue6e2Ibvd35Wqrz/x2kX3RRPWr95GYq13kdt6ZnhdbRYb5aEjIp3zZ30s59BN9V7Zq1oJtbtnYZtO/NmhP8wNR5EPp8cLzUrzIhjT777DNasGBBmIciF8cIMAKMACOgNwIy+ZqE5xSQyEvq16djG7bUWnNXvPFfl3W54T/+WSuP41oHlbXBd93j8bxj3tq/z9Dx/+tM19YBkZSHTMrkYxJjVg4yKaHOpGZ4s2fVGnKnN2nWwPLQmeTECDACjAAjoCYCwj1QbFIQpCsh7NdMeGS0IHBvT3/Zpeyz23e7kEmQvbTdB1zy7l+9ni6++GJ66/9edDlXmzi6tqH8m/+j266q43AvOSST9tJyqQagHGQyMS3gDvY1AEI5r1mNDet/n6jXV++86zCQqt9O/nnj36SqcyjtDeRaKGdzYgQYAUaAEVAXAQgNAlkXIpH3i/mLxLp7521d3dooVJ06Szdc/weXtfnTN9+uVfesH3+mG2+4QUSuC9hH9NFN9Frbq6juFX+nBtdrBj+SkEmbTaoBKAWZtKbKYz1WcPiEsBq78vIrKHVX9RtO+p6fXAYs3oC08+F/kOIo9uVudH29ulT34hY04+sQdD28bFkHU2/ruVypBjBXhhFgBBgBRiC8CCA4RTDrQyDXbPvoM+rUqg39799uoulPPE1Fv5yquefRb74jrMEwdnUnadTu487f5P197qopJ+fAEerSpp2wAg/c0vs0HXqmDV1V9xrqMfV9eql5vV95gARkMiEtvB0ehtLkIJOZOTWdrw0Svb6feWSUGDDO4nBIIjXjG+378/kLPdb7/MGjHs/5alvFppep57W/itXrNaWXvpYnDrhMgeXDMP65CEaAEWAEGAEnBOxlFUGvX77WN5zP2HuQLrv00lprKuwTzmz9gUAyNS8q6xYt9VqPj+a+VasMbW3+8PU3Cdf+66a/Cyfn3y77yGs57upcvHoCdbi8Ll1362yKObqVZkpEJh0j0Tl1nW5/pSCTtpz8gDvaXeeHegz6kfCu36NzF0L0G8fyht4zwGXQPvnwI7XyaPmLj5wWYnV3eh5aHo/fx7fSWzdf/avV2EV0kWxksqBYt8HKN2YEGAFGgBGIPAJCbzKCLvtWvrXAZT3ViKD2/dzIMW7XV8e1M+/QMWGco13j7vv1yVN9luNYpvh9ZC290PQyqvu7nrR0WxxZTshFJu3l8rnjk4NM5hcF3tlh3r7V9Cr+59prKfmHH13qs+jl2S6Dv0XDRi75MBDHDx1Ol192mdtyXAZtrXacoaOTO9I1NVZjEpLJkrLIz2R8B0aAEWAEGAFdEbBGcMfQXQQbRyL4/KOPudWTdLd+PtD3bpe1WStr3pQX3K7R7sq5cOwE7R7bhC6tez3dN3cPVWKNlolMxqdI5axcG6RSkElYJV3oSFdrqnCdg8IuPs7lQQp5xy23iQH55duLXc4j/y/rv3U7YOGN37G8T+bNF/nmTv6/Wscd83j6Xbp+Ct1yZV266qZ/0A11f3VDIJlk0l5l0cYOfzMCjAAjwAgoioCtpCzgNczT2uZ8HGtu59ZtXdZUbH1DcONunXYuQ/sPXcjrf3ddrbKuvvIqWrPwvaDqn//pOGpR/zf0574LKOXkr3xEIjIpq92CHGTSZguq07XB5OsbzkqfGjZC6Gj84brrCERP28bGoJ069gkxEEfcd7/HeiD/NVddVWvA4u0HA1+7/9dL3qdLL7mEoAAcyMMgrj+6kWa2upLqXtOF3lwygdrXk5BMnkmS8o1I0bmcm8UIMAKMgG4IiK3uM5FzEQR1MEgOb23XgW7vcDPNmTSVsvf/UrOeauuqP98wkn24/73C2GbaY+NFyEV/rnPJc2gVPfuv+lTvhvvoy90Oqm4SkUnZXAJpA1QKMonKWBJSgxpELoOh1rZx9VvFwhmzXEjgPT160eF1G2nc4KHi3D/+eqOI9+mtPLgK0sTn2jcUhaHsC39Y0Lds3qAhwSLcWzmu507T/idb0hV1/4d6v/w9lWycKCWZtKZy/G3tweFvRoARYARURyAaVt2u62Hkdie93+sIbR32v1S/3o00atHh6u1tjU/IQiYT0qQV6EhDJq0ZkbPohqRQI3/uviFxPLD6a58EcOPSD72WAzcGsEbzPmBdH5TiL56ktpfVpeu7v05xJxKoQlIyCUMpTowAI8AIMALmQABqTYGuZ0bNn/P+MPr3xfXoX4M/pGyNRGrfkpBJW36RtANPGjIJkCI1CKHM645E4hgI4KG1G/26Nxye/vkPf3RbFnxlxXz3vV/l1Grn4a9oauNLqO7v+9BHO6rF6tKSSTa+kfZB5ooxAowAIxAJBKxpWYGvaxoJM8r3j8tp7E31qP4/R9DWn1wFPlIY4EDNTDJH5Y7jTRoyaa+ojNiARZztv93wZxcSCF2N+G27A7rvN+9+ICy1HckpPPQ7G+LUIoweH6jjtHNMI7rkN3+kB9/aXyNWl5VM2q1yedx3HMj8mxFgBBgBRiD8CNjLomMg69+a6YboeVxf/cx78jCtG3Qj1avfkJ5bcdw9H5BAMmnNPh/+zg1jidKQSbTJcjZyepPwhA9lX7gReGLIMPrxy3XuB40fA/P05h00+v4H6ZF7B9H2j1cFXU7ex6Opaf169Lf+iylNsxo7Lec2tzWF9SXD+NxxUYwAI8AIGAIBYYiTlB70OqcbSfRjLbecjqf0dwbRTfUupVZjV1OBp2v0JpMxiSS7JxWpyCSYt9wDz883HU8D0vH4T5/SU/+sT/X++gCt2+dgNSYpmbTlFxpi4uNKMgKMACPACIQXAVWlk5W7F9HQG+rR5c2eon1HvKzvOpNJGSPeOI8wqcgkvLqbg0weoc1D/k4X1/s7jVvq6gpBxm1uu8XqPHb4PyPACDACjIBJEFBOd/Lkflp515/oN/X+TiPmrBa7ldixdPv5fAmN//eF2NyNH1pIe7W8X+2gcye8EFFHIVIwv6EraQAVM7nIpN1OlvgU5Qll1ntD6F/16lOjYZ9SrpvBJR2ZTMowyXTJzWQEGAFGgBFwh4C9skqttXnvLOpx8a/+nC8K4fviW2jh3siRSVueMXYFpSKTGMCqb3VX7ltKo/5ajy759xjaccj9AJSNTPIWt7uplY8xAowAI2AuBKxZucoQyso9M+Unk2dTpfUr6TzypSOTSvu1OvkTfXXvX6jepU1o6krPjs2lIpOxcrsjcB7Q/J8RYAQYAUYgMgjANY0yu4cH3qepXW8ToZQRTtn7pwM1vLrOrx5h6tA1N7W/kL/rE/SNO3dCbnYdA1Xjg66qUZJ0ZBLAWdNV9GsVT2nzB9CN9S6jdk+spWIvA00mMim7OwKjPGhcT0aAEWAEVEAA4fwCJUWGz6+DAY4RjG4cx7OUZNJepp4hTuUPC2jwH39D9W66n5av9KDk+6tC794Fw6lZTWzuf9Fj89fUKAX/tPkwVXghouF+aGV3R+A4mPk3I8AIMAKMQOQRsGaZyPMK1ttok0mJwyZ6Gl1SkklU1qKYX6uMGV2ofihKvr9eW7/zLMqIEpmE9R4nRoARYAQYAUbAEQHhezIhzTwSymiSyZgEQhAXoyVpyaStpEyhgRpP6S91oYsNRiaNOKCN9gByfRkBRoARMCICwro7Nkmhddq9QazY7YsimbQVyBt/29s4lZZMotLW1HPKDNScJU/QXT6VfH9VAm73T7q2zq+uCupcRf9ud0E5+K5xH7h1JxTu7W3ruVxv44bPMQKMACPACJgcAbWEPvqTSagPGDVJTSYjGa873OQrnOXpboADC24rOyk36kPN9WYEGAFGIFoIwHVcONc/KcuKgmQSwjOoDxg1SU0mASokZFIOrgjqLepNJm3nC4w6nrnejAAjwAgwAlFGQPl1OtJkEgY3NluUey28t5OeTEJCZjmTbCpCqSuZhJNUm3HfjsL7eHBpjAAjwAgwAr4QgETNmpFHaDldAAAF/ElEQVRtqnU6bEIurLkKhCuWnkxiENuKS001SPUkk4iPzokRYAQYAUaAEQgEAUEoM3NMtVaHTCghkVSASGKcGIJMoqJWEw1SvcikLTc/kLmD8zICjAAjwAgwAjUICEJpQtW0oEgliKRCtgmGIZMijNPZVFO89ehCJpMyDK38WzOb8Q9GgBFgBBgB3RAQhNJsTs0DtaFISleKSGKwGYZMorLYgrXEJCpPKKNOJs8kkb2qSrfJh2/MCDACjAAjoBYCtoJiU6zXgUolscsKwq1aMhSZBPi2whLlyWSggzPU/Ii1yokRYAQYAUaAEQgnAkIAFGcuA1pv67EtrzCc8EpVluHIJNCDbp+3DuNzXpyvOonjbYXFUg1IrgwjwAgwAoyAOgjAwMSSlGHuNRu7f6Vl6nSqm5YYkkwKnQx2QxDyw2nLyXMzJPgQI8AIMAKMACMQPgSwZsN/sRnU1JyFWdb0LOX0I92NDEOSSTREEMrUzJAJlXPHm+W/qnob7gY5H2MEGAFGgBHQHwERzzsp3Rzr9plkshWV6A96lGpgWDIJfAShTFMnfne0iCyiFQA7TowAI8AIMAKMQDQRqJFSxiYpSyrhwF0ltz/+jA9Dk0k0UBDK9CxlB2W4CSYCyTOR9OfR4DyMACPACDACkUIAZAvrkUpb3yK+dkVlpCCTulzDk0mgKwgl61D6JNTW7DwmklI/jlw5RoARYATMhYC9ymL8oCTw01xmbq8oSpBJPHpCdM5W3u4JZUwiwecXJ0aAEWAEGAFGQEYEBKnMPk+WM8bZ/hbGNaXlLKQxmtNyfx4AW0kZWRTWxQh42zsuWTh79wc7zsMIMAKMACPACOiJgN1mJ7iss8hqqBOXItwTqhJTO1x9rYxk0hEQYTGWkOZeSufkZzFgcmag663JGcoEkXfsX/7NCDACjAAjoD4CWMvhUghrma5r9dlUod+JAB9sc+B+3ClJJtFUxPIWyr0GIn9he1iwrZ2bz4Pe/Zjno4wAI8AIMAIGQwAGO1DXsqZnk+VsamTJZVwyWVMzq9fRSg417M9QUZZMao23l1WQJSHCA08mwooA8jz4te7nb0aAEWAEGAEFEYDACJJCIbnMyK6WXoJk+qvmFpNIlvgUsZ1uTcsiBPGwFZeS3WJREK3IN0l5MgkIhXFOTl5k32T0JpSxiYS4nyyCj/xDw3dgBBgBRoARkBcBQTQrq8heXilsBiBUQpxw8amoJLvVxmtlmLvPFGRSw0xYi6nmQigmgaxZuawbqXUyfzMCjAAjwAgwAoxAVBEwFZnUkLVXVBLE2mHTUdRJKilCIlaxSF7rV/5mBBgBRoARYAQYgegjYEoyqcEMkTfCHhnKA39sEolwiKwXqXUjfzMCjAAjwAgwAoyAjgiYmkxquEN/AvqGEbcQC0WCmZhOtoIiYaWu1Zu/GQFGgBFgBBgBRoAR0BsBJpMOPQDjFYREEi6FIu16wB9imZgmLMygRMyJEWAEGAFGgBFgBBgBGRFgMumlVy44TM30392APyTRU54zSdW+rfILCcZCnBgBRoARYAQYAUaAEZAdASaTfvaQkFrCG39hiZBcWlMyq7fFYxMDN+SBHyx41E/JJGt2HtmKSgR5ZLc+fnYGZ2MEGAFGgBFgBBgBaRBgMhmGrqjxaQUHqkUl1Z/CYhFftPp/qdg+h6QTeTkxAowAI8AIMAKMACOgCgJMJlXpSW4HI8AIMAKMACPACDACOiDAZFIH0PmWjAAjwAgwAowAI8AIqIIAk0lVepLbwQgwAowAI8AIMAKMgA4IMJnUAXS+JSPACDACjAAjwAgwAqogwGRSlZ7kdjACjAAjwAgwAowAI6ADAkwmdQCdb8kIMAKMACPACDACjIAqCDCZVKUnuR2MACPACDACjAAjwAjogACTSR1A51syAowAI8AIMAKMACOgCgJMJlXpSW4HI8AIMAKMACPACDACOiDAZFIH0PmWjAAjwAgwAowAI8AIqIIAk0lVepLbwQgwAowAI8AIMAKMgA4IMJnUAXS+JSPACDACjAAjwAgwAqog8P8AHCDlo/giyWgAAAAASUVORK5CYII=;" vertex="1" parent="1">
          <mxGeometry x="-374.9966666666665" y="4481.996666666667" width="659" height="581" as="geometry" />
        </mxCell>
        <mxCell id="3zQvHG_156ugY79DkXVN-48" value="&lt;font style=&quot;font-size: 40px;&quot;&gt;Bottleneck&lt;/font&gt;" style="text;html=1;strokeColor=none;fillColor=none;align=center;verticalAlign=middle;whiteSpace=wrap;rounded=0;" vertex="1" parent="1">
          <mxGeometry x="-124.79000000000008" y="4941" width="191.59" height="62" as="geometry" />
        </mxCell>
      </root>
    </mxGraphModel>
  </diagram>
</mxfile>
